<?xml version="1.0" encoding="utf-8"?>
<!-- Generator: Adobe Illustrator 20.1.0, SVG Export Plug-In . SVG Version: 6.00 Build 0)  -->
<svg version="1.1" id="Слой_1" xmlns="http://www.w3.org/2000/svg" xmlns:xlink="http://www.w3.org/1999/xlink" x="0px" y="0px"
	 viewBox="0 0 93 58" style="enable-background:new 0 0 93 58;" xml:space="preserve">
<style type="text/css">
	.st0{fill:#FFFFFF;}
</style>
<g>
	<path class="st0" d="M85,36.5c1.4,0,2.5-1.1,2.5-2.5s-1.1-2.5-2.5-2.5H4c-1.4,0-2.5,1.1-2.5,2.5s1.1,2.5,2.5,2.5h4V51H4
		c-1.4,0-2.5,1.1-2.5,2.5S2.6,56,4,56h81c1.4,0,2.5-1.1,2.5-2.5S86.4,51,85,51h-3.2V36.5H85z M42.7,36.5h5V51h-5V36.5z M37.7,51H23
		V36.5h14.8V51z M52.7,36.5h14V51h-14V36.5z M13,36.5h5V51h-5V36.5z M76.7,51h-5V36.5h5V51z"/>
	<path class="st0" d="M11.6,16.7c-0.6,0-1.2-0.1-1.9-0.4c-0.7-0.3-1.4-0.8-2.2-1.4l-2.2,3.5c0.9,0.8,2,1.4,3.1,1.8s2.3,0.6,3.4,0.6
		c2,0,3.6-0.5,4.8-1.6c1.2-1.1,1.8-2.5,1.8-4.2c0-1-0.2-1.9-0.7-2.7c-0.4-0.8-1.1-1.4-1.9-1.8c0.7-0.4,1.2-1,1.6-1.7
		c0.4-0.7,0.6-1.4,0.6-2.3c0-1.5-0.5-2.8-1.6-3.8c-1.1-1-2.5-1.5-4.1-1.5c-1.1,0-2.2,0.3-3.2,0.8S7.3,3.3,6.4,4.4l2.3,2.5
		c0.7-0.7,1.3-1.1,1.9-1.4s1.1-0.5,1.6-0.5c0.6,0,1,0.2,1.4,0.5c0.4,0.3,0.5,0.8,0.5,1.3c0,0.8-0.3,1.4-1,1.8s-1.7,0.6-3.1,0.7v3.2
		h0.5c1.2,0,2.2,0.2,2.8,0.6c0.6,0.4,1,0.9,1,1.7c0,0.6-0.2,1.2-0.7,1.6C13,16.5,12.4,16.7,11.6,16.7z"/>
	<path class="st0" d="M27.5,20.8c2.1,0,3.8-0.6,5.1-1.9s2-2.8,2-4.7c0-1.9-0.6-3.4-1.8-4.6c-1.2-1.2-2.8-1.8-4.7-1.8
		c-0.2,0-0.6,0-1.1,0.1c-0.1,0-0.2,0-0.2,0V5.5H33l1.1-3.7H23.4v9.7c0.5-0.2,1-0.3,1.5-0.4c0.5-0.1,1-0.1,1.6-0.1
		c1.2,0,2.2,0.3,2.9,0.8c0.7,0.6,1.1,1.3,1.1,2.2c0,0.8-0.3,1.5-0.9,2s-1.3,0.8-2.3,0.8c-0.6,0-1.3-0.1-1.9-0.4s-1.4-0.6-2.2-1.2
		l-2,3.3c1,0.8,2,1.3,3,1.7S26.3,20.8,27.5,20.8z"/>
	<path class="st0" d="M43.6,20.8c2.1,0,3.7-0.9,4.9-2.6c1.2-1.7,1.8-4.1,1.8-7.2c0-3.1-0.6-5.5-1.8-7.2c-1.2-1.7-2.8-2.6-4.9-2.6
		s-3.7,0.9-4.8,2.6C37.6,5.5,37,7.9,37,11c0,3.1,0.6,5.5,1.8,7.2C39.9,19.9,41.6,20.8,43.6,20.8z M41.9,6.7c0.4-1,1-1.6,1.8-1.6
		c0.8,0,1.4,0.5,1.8,1.5c0.4,1,0.6,2.5,0.6,4.3c0,1.8-0.2,3.3-0.6,4.3c-0.4,1-1,1.5-1.8,1.5c-0.7,0-1.3-0.5-1.8-1.5
		c-0.4-1-0.6-2.5-0.6-4.3C41.2,9.2,41.4,7.7,41.9,6.7z"/>
	<path class="st0" d="M59.7,20.8c2.1,0,3.7-0.9,4.9-2.6c1.2-1.7,1.8-4.1,1.8-7.2c0-3.1-0.6-5.5-1.8-7.2c-1.2-1.7-2.8-2.6-4.9-2.6
		S56,2.1,54.8,3.8c-1.2,1.7-1.8,4.1-1.8,7.2c0,3.1,0.6,5.5,1.8,7.2C56,19.9,57.6,20.8,59.7,20.8z M57.9,6.7c0.4-1,1-1.6,1.8-1.6
		c0.8,0,1.4,0.5,1.8,1.5c0.4,1,0.6,2.5,0.6,4.3c0,1.8-0.2,3.3-0.6,4.3c-0.4,1-1,1.5-1.8,1.5c-0.7,0-1.3-0.5-1.8-1.5
		c-0.4-1-0.6-2.5-0.6-4.3C57.3,9.2,57.5,7.7,57.9,6.7z"/>
	<path class="st0" d="M72.5,16.1c0.1-0.3,0.1-0.6,0.1-0.9c0.1,0.3,0.4,0.8,0.8,1.6l2,3.9h1.2l2.7-5.3c0-0.1,0.1-0.1,0.1-0.2
		c0.1,0.6,0.4,2.2,0.9,5l0,0.2h3.1L81.2,8.8h-1.3l-3.8,7.5l-3.8-7.5H71l-2.2,11.7h3L72.5,16.1z"/>
	<path class="st0" d="M88.3,8.9l1.3-1.5c1.4-1.6,2-2.9,2-4c0-0.9-0.3-1.6-0.9-2.1s-1.5-0.8-2.6-0.8c-1.5,0-2.7,0.5-3.7,1.6l1.4,1.5
		c0.7-0.8,1.4-1.2,2.1-1.2c0.8,0,1.1,0.4,1.1,1.1c0,0.8-0.5,1.8-1.5,3l-3,3.7v0.7h7.6v-2L88.3,8.9L88.3,8.9z"/>
</g>
</svg>
