<?xml version="1.0" encoding="utf-8"?>
<!-- Generator: Adobe Illustrator 20.1.0, SVG Export Plug-In . SVG Version: 6.00 Build 0)  -->
<svg version="1.1" id="Layer_1" xmlns="http://www.w3.org/2000/svg" xmlns:xlink="http://www.w3.org/1999/xlink" x="0px" y="0px"
	 viewBox="0 0 140 81" style="enable-background:new 0 0 140 81;" xml:space="preserve">
<style type="text/css">
	.st0{fill:#FFFFFF;}
</style>
<g id="Слой_1">
</g>
<g id="Режим_изоляции">
	<g>
		<path class="st0" d="M137.8,18.4l-14-16.8c-0.6-0.7-1.5-1.1-2.4-1.1H64.9c-0.8,0-1.6,0.3-2.2,0.9L46.5,18.2
			c-0.9,0.9-1.1,2.2-0.6,3.3s1.6,1.9,2.8,1.9h3.9c-0.7,0.6-1.2,1.4-1.2,2.4v17c0,0.4,0.1,0.8,0.2,1.1c-1.6,0.1-2.9,1.4-2.9,3.1v4.3
			c0,1.7,1.4,3.1,3.1,3.1h1.5c-0.2,0.4-0.4,0.9-0.4,1.4v22c0,1.7,1.4,3.1,3.1,3.1h8.6c0.9,0,1.7-0.4,2.3-1.1
			c0.6-0.7,0.9-1.6,0.7-2.4l0-0.2c0-0.1,0-0.2,0-0.2v-6.3c0-1.7,1.5-3.1,3.4-3.1c1.9,0,3.4,1.4,3.4,3.1v6.3c0,0.1,0,0.1,0,0.2l0,0.2
			c-0.1,0.9,0.2,1.8,0.7,2.4c0.6,0.7,1.4,1.1,2.3,1.1H107c0.9,0,1.7-0.4,2.3-1.1c0.6-0.7,0.9-1.6,0.7-2.4l0-0.2c0-0.1,0-0.1,0-0.2
			v-6.3c0-1.7,1.5-3.1,3.4-3.1c1.9,0,3.4,1.4,3.4,3.1v6.3c0,0.1,0,0.2,0,0.3l0,0.1c-0.1,0.9,0.1,1.8,0.7,2.5
			c0.6,0.7,1.4,1.1,2.3,1.1h8.3c1.7,0,3.1-1.4,3.1-3.1v-22c0-0.5-0.1-1-0.4-1.4h1.5c1.7,0,3.1-1.4,3.1-3.1v-4.3c0-1.6-1.3-3-2.9-3.1
			c0.1-0.4,0.2-0.7,0.2-1.1v-17c0-1-0.5-1.8-1.2-2.4h3.9c1.2,0,2.3-0.7,2.8-1.8C138.7,20.6,138.6,19.3,137.8,18.4z M128.1,77.9h-8.3
			c0-0.3,0.1-0.5,0.1-0.8v-6.3c0-3.4-2.9-6.2-6.5-6.2s-6.5,2.8-6.5,6.2v6.3c0,0.3,0.1,0.6,0.1,0.8H77.5c0-0.3,0.1-0.5,0.1-0.8v-6.3
			c0-3.4-2.9-6.2-6.5-6.2s-6.5,2.8-6.5,6.2v6.3c0,0.3,0,0.6,0.1,0.8h-8.6v-22h72L128.1,77.9L128.1,77.9z M83.8,22.2l7.5-10.3l8,10.3
			c0.2,0.3,0.5,0.5,0.8,0.7l2.2,2.9h27.3v17h-9.8c0-0.3,0.1-0.5,0.1-0.8v-6.3c0-3.4-2.9-6.2-6.5-6.2c-3.6,0-6.5,2.8-6.5,6.2v6.3
			c0,0.3,0,0.6,0.1,0.8h-8.3c0-0.3,0.1-0.5,0.1-0.8v-6.3c0-3.4-2.9-6.2-6.5-6.2c-3.6,0-6.5,2.8-6.5,6.2v6.3c0,0.3,0,0.6,0.1,0.8
			h-8.4c0-0.3,0.1-0.5,0.1-0.8v-6.3c0-3.4-2.9-6.2-6.5-6.2s-6.5,2.8-6.5,6.2v6.3c0,0.3,0,0.6,0.1,0.8H54.6v-17h26.3l2.2-3
			C83.3,22.7,83.6,22.5,83.8,22.2z M67.7,42.5l0-0.2c0-0.1,0-0.2,0-0.2v-6.3c0-1.7,1.5-3.1,3.4-3.1c1.9,0,3.4,1.4,3.4,3.1v6.3
			c0,0.1,0,0.2,0,0.2l0,0.1c-0.1,0.5,0,1.1,0.2,1.6h-7.1C67.7,43.6,67.8,43,67.7,42.5z M88.9,42.5l0-0.1c0-0.1,0-0.2,0-0.3v-6.3
			c0-1.7,1.5-3.1,3.4-3.1c1.9,0,3.4,1.4,3.4,3.1v6.3c0,0.1,0,0.2,0,0.3c-0.1,0.6,0,1.1,0.2,1.7h-7.1C88.9,43.6,89,43,88.9,42.5z
			 M110,42.5l0-0.1c0-0.1,0-0.2,0-0.3v-6.3c0-1.7,1.5-3.1,3.4-3.1c1.9,0,3.4,1.4,3.4,3.1v6.3c0,0.1,0,0.2,0,0.3
			c-0.1,0.6,0,1.1,0.2,1.7h-7.1C110,43.5,110.1,43,110,42.5z M132.3,51.4H51.9v-4.3h80.4V51.4z M102,20.4L93.7,9.7
			c-0.2-0.3-0.5-0.5-0.8-0.7l-1.7-2.2l-1.7,2.3c-0.3,0.2-0.5,0.4-0.7,0.7l-7.7,10.6H48.8L64.9,3.6h56.5l14,16.8L102,20.4L102,20.4z"
			/>
		<rect x="81.5" y="60.3" class="st0" width="21.4" height="4.1"/>
		<rect x="81.5" y="69.2" class="st0" width="21.4" height="4.1"/>
		<path class="st0" d="M47.6,76.4h-5.6V66.1c0-3.3-2.8-6-6.2-6s-6.2,2.7-6.2,6v10.3H12.3V53.7c0-0.9-0.7-1.5-1.5-1.5H7L35.2,24
			l11.7,11.6c0.6,0.6,1.6,0.6,2.2,0c0.6-0.6,0.6-1.6,0-2.2L36.3,20.8c-0.6-0.6-1.6-0.6-2.2,0L2.2,52.6c-0.4,0.4-0.6,1.1-0.3,1.7
			c0.2,0.6,0.8,1,1.4,1h5.9V78c0,0.9,0.7,1.5,1.5,1.5h20.4c0.9,0,1.5-0.7,1.5-1.5V66.1c0-1.6,1.4-2.9,3.1-2.9c1.7,0,3.2,1.3,3.2,2.9
			V78c0,0.9,0.7,1.5,1.5,1.5h7.1c0.9,0,1.5-0.7,1.5-1.5C49.2,77.1,48.5,76.4,47.6,76.4z"/>
		<path class="st0" d="M17.8,57.7v2.5c0,1.9,1.5,3.4,3.4,3.4c1.9,0,3.4-1.5,3.4-3.4v-2.5c0-1.9-1.5-3.4-3.4-3.4
			C19.3,54.3,17.8,55.9,17.8,57.7z"/>
		<path class="st0" d="M43,57.7v2.5c0,1.9,1.5,3.4,3.4,3.4c0.6,0,1.2-0.2,1.8-0.5v-8.3c-0.5-0.3-1.1-0.5-1.8-0.5
			C44.5,54.3,43,55.9,43,57.7z"/>
	</g>
</g>
</svg>
