<?xml version="1.0" encoding="utf-8"?>
<!-- Generator: Adobe Illustrator 15.1.0, SVG Export Plug-In . SVG Version: 6.00 Build 0)  -->
<!DOCTYPE svg PUBLIC "-//W3C//DTD SVG 1.1//EN" "http://www.w3.org/Graphics/SVG/1.1/DTD/svg11.dtd">
<svg version="1.1" xmlns="http://www.w3.org/2000/svg" xmlns:xlink="http://www.w3.org/1999/xlink" x="0px" y="0px" width="85.04px"
	 height="85.04px" viewBox="0 0 85.04 85.04" enable-background="new 0 0 85.04 85.04" xml:space="preserve">
<g id="Слой_1">
	<g>
		<path fill="#FFFFFF" d="M72.75,5.236l5.5,72.75H5.75L5.5,41.236L25,27.986l0.5,12H30l18.25-12.25l0.5,12.25H55l0.75,21.75H58
			l5-56.5H72.75 M72.75,1.236H63c-2.072,0-3.802,1.582-3.984,3.646l-2.77,31.301c-0.393-0.129-0.812-0.197-1.246-0.197h-2.41
			l-0.343-8.414c-0.06-1.447-0.896-2.748-2.188-3.404c-0.571-0.289-1.191-0.432-1.81-0.432c-0.78,0-1.559,0.229-2.229,0.678
			L29.321,35.623l-0.325-7.804c-0.06-1.45-0.901-2.755-2.198-3.407c-0.567-0.285-1.184-0.426-1.798-0.426
			c-0.788,0-1.573,0.232-2.248,0.691l-19.5,13.25c-1.104,0.75-1.761,2.001-1.752,3.336l0.25,36.75c0.015,2.197,1.802,3.973,4,3.973
			h72.5c1.113,0,2.176-0.465,2.934-1.281c0.757-0.816,1.139-1.91,1.055-3.021l-5.5-72.75C76.581,2.848,74.842,1.236,72.75,1.236
			L72.75,1.236z"/>
	</g>
	<g>
		<path fill="#FFFFFF" d="M16.75,45.986v5.75H14v-5.75H16.75 M16.75,42.486H14c-1.933,0-3.5,1.566-3.5,3.5v5.75
			c0,1.933,1.567,3.5,3.5,3.5h2.75c1.933,0,3.5-1.567,3.5-3.5v-5.75C20.25,44.053,18.683,42.486,16.75,42.486L16.75,42.486z"/>
	</g>
	<g>
		<path fill="#FFFFFF" d="M31,45.986v5.75h-2.75v-5.75H31 M31,42.486h-2.75c-1.933,0-3.5,1.566-3.5,3.5v5.75
			c0,1.933,1.567,3.5,3.5,3.5H31c1.933,0,3.5-1.567,3.5-3.5v-5.75C34.5,44.053,32.933,42.486,31,42.486L31,42.486z"/>
	</g>
	<g>
		<path fill="#FFFFFF" d="M46,45.986v5.75h-2.75v-5.75H46 M46,42.486h-2.75c-1.933,0-3.5,1.566-3.5,3.5v5.75
			c0,1.933,1.567,3.5,3.5,3.5H46c1.933,0,3.5-1.567,3.5-3.5v-5.75C49.5,44.053,47.933,42.486,46,42.486L46,42.486z"/>
	</g>
	<g>
		<path fill="#FFFFFF" d="M16.75,60.986v5.75H14v-5.75H16.75 M16.75,57.486H14c-1.933,0-3.5,1.566-3.5,3.5v5.75
			c0,1.933,1.567,3.5,3.5,3.5h2.75c1.933,0,3.5-1.567,3.5-3.5v-5.75C20.25,59.053,18.683,57.486,16.75,57.486L16.75,57.486z"/>
	</g>
	<g>
		<path fill="#FFFFFF" d="M31,60.986v5.75h-2.75v-5.75H31 M31,57.486h-2.75c-1.933,0-3.5,1.566-3.5,3.5v5.75
			c0,1.933,1.567,3.5,3.5,3.5H31c1.933,0,3.5-1.567,3.5-3.5v-5.75C34.5,59.053,32.933,57.486,31,57.486L31,57.486z"/>
	</g>
	<g>
		<path fill="#FFFFFF" d="M46,60.986v5.75h-2.75v-5.75H46 M46,57.486h-2.75c-1.933,0-3.5,1.566-3.5,3.5v5.75
			c0,1.933,1.567,3.5,3.5,3.5H46c1.933,0,3.5-1.567,3.5-3.5v-5.75C49.5,59.053,47.933,57.486,46,57.486L46,57.486z"/>
	</g>
</g>
<g id="Режим_изоляции">
</g>
</svg>
