<?xml version="1.0" encoding="utf-8"?>
<!-- Generator: Adobe Illustrator 20.1.0, SVG Export Plug-In . SVG Version: 6.00 Build 0)  -->
<svg version="1.1" id="Слой_1" xmlns="http://www.w3.org/2000/svg" xmlns:xlink="http://www.w3.org/1999/xlink" x="0px" y="0px"
	 viewBox="0 0 93 58" style="enable-background:new 0 0 93 58;" xml:space="preserve">
<style type="text/css">
	.st0{fill:#FFFFFF;}
</style>
<g>
	<path class="st0" d="M84,36.5c1.4,0,2.5-1.1,2.5-2.5s-1.1-2.5-2.5-2.5H3c-1.4,0-2.5,1.1-2.5,2.5s1.1,2.5,2.5,2.5h4V51H3
		c-1.4,0-2.5,1.1-2.5,2.5S1.6,56,3,56h81c1.4,0,2.5-1.1,2.5-2.5S85.4,51,84,51h-3.2V36.5H84z M41.7,36.5h5V51h-5V36.5z M36.7,51H22
		V36.5h14.8V51z M51.7,36.5h14V51h-14V36.5z M12,36.5h5V51h-5V36.5z M75.7,51h-5V36.5h5V51z"/>
	<polygon class="st0" points="8.4,20.2 12.5,20.2 12.5,1.8 5.8,1.8 5.2,5.1 8.4,5.1 	"/>
	<path class="st0" d="M24,20.8c2.1,0,3.8-0.6,5.1-1.9s2-2.8,2-4.7c0-1.9-0.6-3.4-1.8-4.6c-1.2-1.2-2.8-1.8-4.7-1.8
		c-0.2,0-0.6,0-1.1,0.1c-0.1,0-0.2,0-0.2,0V5.5h6.2l1.1-3.7H19.9v9.7c0.5-0.2,1-0.3,1.5-0.4c0.5-0.1,1-0.1,1.6-0.1
		c1.2,0,2.2,0.3,2.9,0.8c0.7,0.6,1.1,1.3,1.1,2.2c0,0.8-0.3,1.5-0.9,2s-1.3,0.8-2.3,0.8c-0.6,0-1.3-0.1-1.9-0.4s-1.4-0.6-2.2-1.2
		l-2,3.3c1,0.8,2,1.3,3,1.7S22.8,20.8,24,20.8z"/>
	<path class="st0" d="M40.1,20.8c2.1,0,3.7-0.9,4.9-2.6c1.2-1.7,1.8-4.1,1.8-7.2c0-3.1-0.6-5.5-1.8-7.2c-1.2-1.7-2.8-2.6-4.9-2.6
		s-3.7,0.9-4.8,2.6c-1.2,1.7-1.8,4.1-1.8,7.2c0,3.1,0.6,5.5,1.8,7.2C36.4,19.9,38.1,20.8,40.1,20.8z M38.4,6.7c0.4-1,1-1.6,1.8-1.6
		c0.8,0,1.4,0.5,1.8,1.5c0.4,1,0.6,2.5,0.6,4.3c0,1.8-0.2,3.3-0.6,4.3c-0.4,1-1,1.5-1.8,1.5c-0.7,0-1.3-0.5-1.8-1.5
		c-0.4-1-0.6-2.5-0.6-4.3C37.7,9.2,37.9,7.7,38.4,6.7z"/>
	<path class="st0" d="M55.2,20.8c2.1,0,3.7-0.9,4.9-2.6c1.2-1.7,1.8-4.1,1.8-7.2c0-3.1-0.6-5.5-1.8-7.2c-1.2-1.7-2.8-2.6-4.9-2.6
		s-3.7,0.9-4.8,2.6c-1.2,1.7-1.8,4.1-1.8,7.2c0,3.1,0.6,5.5,1.8,7.2C51.5,19.9,53.1,20.8,55.2,20.8z M53.4,6.7c0.4-1,1-1.6,1.8-1.6
		c0.8,0,1.4,0.5,1.8,1.5c0.4,1,0.6,2.5,0.6,4.3c0,1.8-0.2,3.3-0.6,4.3c-0.4,1-1,1.5-1.8,1.5c-0.7,0-1.3-0.5-1.8-1.5
		c-0.4-1-0.6-2.5-0.6-4.3C52.8,9.2,53,7.7,53.4,6.7z"/>
	<path class="st0" d="M73.2,16.1c0.1-0.3,0.1-0.6,0.1-0.9c0.1,0.3,0.4,0.8,0.8,1.6l2,3.9h1.2l2.7-5.3c0-0.1,0.1-0.1,0.1-0.2
		c0.1,0.6,0.4,2.2,0.9,5l0,0.2h3.1L81.9,8.8h-1.3l-3.8,7.5L73,8.8h-1.3l-2.2,11.7h3L73.2,16.1z"/>
	<path class="st0" d="M89,9.2l1.3-1.5c1.4-1.6,2-2.9,2-4c0-0.9-0.3-1.6-0.9-2.1S90,0.8,88.9,0.8c-1.5,0-2.7,0.5-3.7,1.6l1.4,1.5
		c0.7-0.8,1.4-1.2,2.1-1.2c0.8,0,1.1,0.4,1.1,1.1c0,0.8-0.5,1.8-1.5,3l-3,3.7v0.7h7.6v-2L89,9.2L89,9.2z"/>
</g>
</svg>
