<?xml version="1.0" encoding="utf-8"?>
<!-- Generator: Adobe Illustrator 15.1.0, SVG Export Plug-In . SVG Version: 6.00 Build 0)  -->
<!DOCTYPE svg PUBLIC "-//W3C//DTD SVG 1.1//EN" "http://www.w3.org/Graphics/SVG/1.1/DTD/svg11.dtd">
<svg version="1.1" id="Слой_1" xmlns="http://www.w3.org/2000/svg" xmlns:xlink="http://www.w3.org/1999/xlink" x="0px" y="0px"
	 width="85.04px" height="85.04px" viewBox="0 0 85.04 85.04" enable-background="new 0 0 85.04 85.04" xml:space="preserve">
<g>
	<path fill="#FFFFFF" d="M77.75,1.986h-70c-2.761,0-5,2.238-5,5v70.25c0,2.761,2.239,5,5,5h70c2.762,0,5-2.239,5-5V6.986
		C82.75,4.225,80.512,1.986,77.75,1.986z M77.75,77.236h-70V6.986h70V77.236z"/>
	<path fill="#FFFFFF" d="M41.665,45.596c0.153-0.904,0.23-1.625,0.23-2.166h0.121c0.056,0.201,0.133,0.432,0.23,0.689
		c0.097,0.258,0.443,0.977,1.041,2.154l2.25,4.416h1.064l3.05-6.038c0.129-0.249,0.278-0.657,0.448-1.222h0.121
		c0,0.161,0.018,0.455,0.055,0.883c0.035,0.428,0.381,2.473,1.033,6.135h3.099l-2.444-13.213h-1.102l-4.635,9.244l-4.707-9.244
		h-1.162l-2.457,13.213h2.953L41.665,45.596z"/>
	<path fill="#FFFFFF" d="M59.55,30.737c0.79,0,1.186,0.379,1.186,1.138c0,0.782-0.513,1.814-1.536,3.098l-3.074,3.848v0.689h7.805
		v-2.105h-4.018l1.367-1.585c1.404-1.613,2.105-2.993,2.105-4.138c0-0.889-0.313-1.602-0.938-2.143s-1.526-0.811-2.704-0.811
		c-1.532,0-2.819,0.561-3.86,1.682l1.452,1.561C58.094,31.148,58.832,30.737,59.55,30.737z"/>
	<polygon fill="#FFFFFF" points="27.208,50.277 30.708,50.277 30.708,30.277 30.333,30.277 27.208,30.277 23.75,30.277 
		23.75,33.444 27.208,33.444 	"/>
</g>
</svg>
