<?xml version="1.0" encoding="utf-8"?>
<!-- Generator: Adobe Illustrator 20.1.0, SVG Export Plug-In . SVG Version: 6.00 Build 0)  -->
<svg version="1.1" id="Layer_1" xmlns="http://www.w3.org/2000/svg" xmlns:xlink="http://www.w3.org/1999/xlink" x="0px" y="0px"
	 viewBox="0 0 200 66" style="enable-background:new 0 0 200 66;" xml:space="preserve">
<style type="text/css">
	.st0{fill:#FFFFFF;}
</style>
<g id="Слой_1">
	<g>
		<polygon class="st0" points="82.5,26 99.7,33 82.5,40 82.5,44.2 105.1,34.9 105.1,31.1 82.5,21.8 		"/>
		<polygon class="st0" points="116.8,21.1 123.3,21.1 123.3,51.4 131.6,51.4 131.6,14.3 118.1,14.3 		"/>
		<path class="st0" d="M151.2,13.1c-4.1,0-7.4,1.7-9.8,5.2s-3.5,8.3-3.5,14.5s1.2,11,3.5,14.5c2.4,3.5,5.6,5.2,9.8,5.2
			c4.1,0,7.4-1.7,9.8-5.2c2.4-3.5,3.6-8.3,3.6-14.5s-1.2-11-3.6-14.5S155.3,13.1,151.2,13.1z M154.7,41.5c-0.9,2.1-2.1,3.1-3.6,3.1
			c-1.5,0-2.7-1-3.5-3.1c-0.9-2.1-1.3-5-1.3-8.6c0-3.7,0.4-6.6,1.3-8.7c0.9-2.1,2-3.1,3.5-3.1c1.5,0,2.7,1,3.6,3.1s1.3,5,1.3,8.7
			C156,36.6,155.6,39.5,154.7,41.5z"/>
		<path class="st0" d="M190,18.4c-2.4-3.5-5.6-5.2-9.8-5.2s-7.4,1.7-9.8,5.2s-3.5,8.3-3.5,14.5s1.2,11,3.5,14.5
			c2.4,3.5,5.6,5.2,9.8,5.2s7.4-1.7,9.8-5.2c2.4-3.5,3.6-8.3,3.6-14.5S192.4,21.9,190,18.4z M183.8,41.5c-0.9,2.1-2.1,3.1-3.6,3.1
			c-1.5,0-2.7-1-3.5-3.1s-1.3-5-1.3-8.6c0-3.7,0.4-6.6,1.3-8.7s2-3.1,3.5-3.1c1.5,0,2.7,1,3.6,3.1s1.3,5,1.3,8.7
			C185.1,36.6,184.6,39.5,183.8,41.5z"/>
		<path class="st0" d="M4.5,28.3h19.8c2.4,0,4.4-2,4.4-4.4V4.7c0-2.4-2-4.4-4.4-4.4H4.5c-2.4,0-4.4,2-4.4,4.4V24
			C0.1,26.4,2,28.3,4.5,28.3z M4.5,4.7h19.8V24H4.5V4.7z"/>
		<path class="st0" d="M41.3,27.2c0.8,1.3,2.2,2,3.7,2h11.8c1.5,0,2.9-0.8,3.7-2l6.2-9.8c0.9-1.4,0.9-3.3,0-4.7l-6.2-9.5
			c-0.8-1.2-2.2-2-3.7-2H45c-1.5,0-2.8,0.7-3.7,2l-6.2,9.5c-0.9,1.4-1,3.3,0,4.7L41.3,27.2z M45,5.6h11.8L63,15l-6.2,9.8H45L38.8,15
			L45,5.6z"/>
		<path class="st0" d="M11.4,34.9H4.6c-2.7,0-4.9,2.2-4.9,4.9v6.8c0,1.2,0.5,2.3,1.2,3.2c-0.7,0.9-1.2,1.9-1.2,3.2v6.8
			c0,2.7,2.2,4.9,4.9,4.9h6.8c2.7,0,4.9-2.2,4.9-4.9v-6.8c0-1.2-0.5-2.3-1.2-3.2c0.7-0.9,1.2-2,1.2-3.2v-6.8
			C16.3,37.1,14.1,34.9,11.4,34.9z M4.1,39.8c0-0.3,0.2-0.5,0.5-0.5h6.8c0.3,0,0.5,0.2,0.5,0.5v6.8c0,0.3-0.2,0.5-0.5,0.5H4.6
			c-0.3,0-0.5-0.2-0.5-0.5V39.8z M11.9,59.6c0,0.3-0.2,0.5-0.5,0.5H4.6c-0.3,0-0.5-0.2-0.5-0.5v-6.8c0-0.3,0.2-0.5,0.5-0.5h6.8
			c0.3,0,0.5,0.2,0.5,0.5L11.9,59.6L11.9,59.6z"/>
		<path class="st0" d="M63.8,35.4h-7c-4.2,0-8.3,0.6-10.5,4.4c0,0,0,0-0.1,0c-0.3,0-0.5,0-0.6,0c-0.2,0-0.4,0-0.6,0h-1
			c-0.2,0-0.4,0-0.6,0c0,0-0.3,0-0.6,0c0,0,0,0-0.1,0c-2.2-3.9-6.3-4.4-10.5-4.4h-7c-2.4,0-4.4,2-4.4,4.4v21.7c0,2.4,2,4.4,4.4,4.4
			h6.5c0.6,0.1,1.7,0.2,3,0.2c5.8,0,8.2-2.5,9.1-4.5c0.3-0.6,0.5-1,0.7-1.3c0.2,0.3,0.4,0.7,0.7,1.3c1,2.1,3.3,4.5,9.1,4.5
			c1.3,0,2.4-0.1,3-0.2h6.5c2.4,0,4.4-2,4.4-4.4V39.8C68.1,37.4,66.2,35.4,63.8,35.4z M63.8,61.4h-6.9c0,0-1.2,0.2-2.7,0.2
			c-2,0-4.4-0.4-5.2-2c-1.2-2.6-2.3-4-4.3-4.2h-0.6c-2,0.2-3.1,1.6-4.3,4.2c-0.8,1.7-3.2,2-5.2,2c-1.5,0-2.7-0.2-2.7-0.2h-6.8V39.8
			c0,0,2.2,0,7,0c4.9,0,6.3,0.9,7,2.9c0.5,1.3,2.3,1.5,3.5,1.5c0.7,0,1.2-0.1,1.2-0.1h1c0,0,0.5,0.1,1.2,0.1c1.2,0,3-0.2,3.5-1.5
			c0.8-2,2.2-2.9,7-2.9s7,0,7,0L63.8,61.4L63.8,61.4z"/>
		<path class="st0" d="M44.6,55.4C44.5,55.4,44.5,55.4,44.6,55.4c0,0,0.1,0,0.2,0H45C44.8,55.4,44.7,55.4,44.6,55.4z"/>
		<path class="st0" d="M44.4,55.4c-0.1,0-0.3,0-0.4,0h0.2C44.3,55.4,44.4,55.4,44.4,55.4C44.5,55.4,44.4,55.4,44.4,55.4z"/>
	</g>
</g>
<g id="Режим_изоляции">
</g>
</svg>
