<?xml version="1.0" encoding="utf-8"?>
<!-- Generator: Adobe Illustrator 15.1.0, SVG Export Plug-In . SVG Version: 6.00 Build 0)  -->
<!DOCTYPE svg PUBLIC "-//W3C//DTD SVG 1.1//EN" "http://www.w3.org/Graphics/SVG/1.1/DTD/svg11.dtd">
<svg version="1.1" id="Слой_1" xmlns="http://www.w3.org/2000/svg" xmlns:xlink="http://www.w3.org/1999/xlink" x="0px" y="0px"
	 width="85.04px" height="85.04px" viewBox="0 0 85.04 85.04" enable-background="new 0 0 85.04 85.04" xml:space="preserve">
<g>
	<circle fill="#FFFFFF" cx="348.701" cy="530.361" r="3.125"/>
	<circle fill="#FFFFFF" cx="339.063" cy="530.361" r="3.125"/>
	<circle fill="#FFFFFF" cx="329.426" cy="530.361" r="3.125"/>
	<circle fill="#FFFFFF" cx="319.788" cy="530.361" r="3.125"/>
	<circle fill="#FFFFFF" cx="310.15" cy="530.361" r="3.125"/>
	<circle fill="#FFFFFF" cx="300.513" cy="530.361" r="3.125"/>
	<circle fill="#FFFFFF" cx="290.875" cy="530.361" r="3.125"/>
	<path fill="#FFFFFF" d="M301.75,521.486c2.348,0,4.25-1.903,4.25-4.25v-12.75c0-2.348-1.902-4.25-4.25-4.25s-4.25,1.902-4.25,4.25
		v12.75C297.5,519.583,299.402,521.486,301.75,521.486z"/>
	<path fill="#FFFFFF" d="M337.979,521.486c2.348,0,4.25-1.903,4.25-4.25v-12.75c0-2.348-1.902-4.25-4.25-4.25
		c-2.347,0-4.25,1.902-4.25,4.25v12.75C333.729,519.583,335.632,521.486,337.979,521.486z"/>
	<path fill="#FFFFFF" d="M316.221,568.992c0.432-1.414,16.188-29.93,16.188-29.93h-21.877v4.713h13.176
		c-5.197,9.543-8.014,14.91-12.457,21.961L316.221,568.992z"/>
	<path fill="#FFFFFF" d="M348.33,508.736h-5.08v6h5.08c3.132,0,5.67,2.537,5.67,5.669v49.161c0,3.131-2.538,5.67-5.67,5.67h-57.66
		c-3.132,0-5.67-2.539-5.67-5.67v-49.161c0-3.132,2.538-5.669,5.67-5.669H296v-6h-5.33c-6.436,0-11.67,5.234-11.67,11.669v49.161
		c0,6.435,5.234,11.67,11.67,11.67h57.66c6.436,0,11.67-5.235,11.67-11.67v-49.161C360,513.971,354.766,508.736,348.33,508.736z"/>
	<rect x="307.75" y="508.736" fill="#FFFFFF" width="23.75" height="6"/>
</g>
<g>
	<path fill="#FFFFFF" d="M38.956,57.582c-0.473-0.236-1.018-0.355-1.621-0.355c-1.786,0-4.684,1.205-6.679,2.148
		c-1.425-1.225-3.946-3.674-5.996-7.157c-0.021-0.036-0.043-0.071-0.066-0.106c-0.036-0.055-3.133-4.771-4.957-8.26l4.443-5.252
		c0.629-0.742,0.769-1.783,0.359-2.667l-6.5-14c-0.497-1.07-1.674-1.647-2.822-1.386c-0.333,0.076-8.214,1.918-12.705,7.345
		c-0.357,0.431-0.559,0.971-0.573,1.53C1.824,30.063,1.578,45.277,13.308,61.61c13.679,19.047,25.964,20.321,26.48,20.366
		c0.072,0.006,0.145,0.009,0.217,0.009c0.635,0,1.248-0.241,1.713-0.679l8.332-7.834c0.959-0.9,1.055-2.391,0.221-3.407
		C40.767,58.486,39.452,57.83,38.956,57.582z M39.231,76.781c-2.936-0.772-11.859-4.16-21.862-18.088
		C8.193,45.916,7.008,33.719,6.859,30.418c2.247-2.313,5.44-3.707,7.458-4.414l4.915,10.586l-4.469,5.281
		c-0.624,0.737-0.767,1.769-0.367,2.648c1.664,3.662,5.549,9.621,5.986,10.287c3.563,6.029,8.317,9.415,8.518,9.557
		c0.761,0.535,1.754,0.604,2.58,0.18c2.039-1.046,4.357-1.995,5.438-2.25c1.334,1.295,4.768,5.261,7.998,9.145L39.231,76.781z"/>
	<path fill="#FFFFFF" d="M76.065,15.568C69.614,6.193,59.491,1.422,47.573,2.133C35.684,2.842,24.397,9.021,20.125,17.157
		c-0.642,1.223-0.171,2.733,1.051,3.376c1.222,0.641,2.734,0.172,3.375-1.052c3.444-6.56,13.25-11.757,23.319-12.357
		c5.855-0.351,16.764,0.652,24.075,11.278c14.258,20.725-0.418,36.016-1.045,36.652c-0.527,0.528-0.79,1.266-0.718,2.008
		l1.047,10.701L61.51,62.61c-0.837-0.442-1.854-0.376-2.624,0.175c-2.021,1.443-4.884,2.512-4.912,2.521
		c-1.295,0.479-1.958,1.914-1.48,3.209c0.477,1.297,1.917,1.957,3.209,1.482c0.119-0.043,2.486-0.922,4.764-2.281l12.535,6.645
		c0.367,0.195,0.77,0.291,1.171,0.291c0.487,0,0.973-0.143,1.392-0.424c0.765-0.512,1.187-1.403,1.097-2.32l-1.395-14.253
		C78.649,53.598,90.614,36.716,76.065,15.568z"/>
	<path fill="#FFFFFF" d="M48.339,14.986c-1.381,0-2.5,1.119-2.5,2.5v11.438c-2.451,1.09-4.167,3.544-4.167,6.396c0,3.86,3.141,7,7,7
		c2.851,0,5.306-1.716,6.396-4.167h12.104c1.381,0,2.5-1.119,2.5-2.5s-1.119-2.5-2.5-2.5H55.324
		c-0.691-2.119-2.367-3.794-4.485-4.485V17.486C50.839,16.105,49.72,14.986,48.339,14.986z M48.672,37.319c-1.103,0-2-0.897-2-2
		s0.897-2,2-2s2,0.897,2,2S49.774,37.319,48.672,37.319z"/>
	<polygon fill="#FFFFFF" points="33.765,52.08 33.765,43.66 30.693,43.66 30.42,45.193 31.895,45.193 31.895,52.08 	"/>
	<path fill="#FFFFFF" d="M39.198,43.388c-0.94,0-1.679,0.396-2.215,1.188c-0.536,0.792-0.804,1.89-0.804,3.295
		s0.268,2.503,0.804,3.295c0.537,0.792,1.275,1.188,2.215,1.188s1.681-0.397,2.221-1.19s0.81-1.891,0.81-3.292
		s-0.27-2.499-0.81-3.292C40.879,43.784,40.139,43.388,39.198,43.388z M40.008,49.832c-0.195,0.469-0.465,0.703-0.81,0.703
		c-0.341,0-0.608-0.236-0.804-0.709c-0.196-0.472-0.294-1.124-0.294-1.956c0-0.837,0.099-1.491,0.297-1.966
		c0.197-0.474,0.464-0.711,0.801-0.711c0.349,0,0.619,0.235,0.813,0.705c0.193,0.471,0.29,1.128,0.29,1.972
		C40.301,48.71,40.203,49.364,40.008,49.832z"/>
	<path fill="#FFFFFF" d="M52.557,45.739h-0.528l-2.224,4.437l-2.259-4.437h-0.558L45.81,52.08h1.417l0.389-2.328
		c0.073-0.434,0.11-0.781,0.11-1.04h0.059c0.026,0.097,0.063,0.207,0.109,0.331c0.047,0.124,0.213,0.469,0.5,1.033l1.08,2.119h0.511
		l1.463-2.896c0.063-0.121,0.134-0.316,0.215-0.587h0.059c0,0.077,0.009,0.219,0.025,0.424c0.018,0.205,0.184,1.187,0.497,2.944
		h1.486L52.557,45.739z"/>
	<polygon fill="#FFFFFF" points="60.12,52.08 60.12,45.716 59.726,45.716 55.992,49.617 55.992,45.861 54.541,45.861 54.541,52.225 
		54.936,52.225 58.669,48.322 58.669,52.08 	"/>
	<polygon fill="#FFFFFF" points="66.872,52.08 66.872,45.861 65.421,45.861 65.421,48.213 62.843,48.213 62.843,45.861 
		61.392,45.861 61.392,52.08 62.843,52.08 62.843,49.414 65.421,49.414 65.421,52.08 	"/>
</g>
</svg>
