<?xml version="1.0" encoding="utf-8"?>
<!-- Generator: Adobe Illustrator 20.1.0, SVG Export Plug-In . SVG Version: 6.00 Build 0)  -->
<svg version="1.1" id="Layer_1" xmlns="http://www.w3.org/2000/svg" xmlns:xlink="http://www.w3.org/1999/xlink" x="0px" y="0px"
	 viewBox="0 0 122 85" style="enable-background:new 0 0 122 85;" xml:space="preserve">
<style type="text/css">
	.st0{fill:#FFFFFF;}
</style>
<g id="Слой_1">
	<g>
		<path class="st0" d="M120.7,77.8h-6V24.2l2.8,0.7c0.4,0.1,0.8,0,1.2-0.2c0.3-0.3,0.5-0.6,0.5-1.1v-4c0-0.6-0.4-1.1-1-1.3L60.8,3.4
			c-0.2-0.1-0.5-0.1-0.7,0C5,17.7,4.2,18.3,3.9,18.5c-0.3,0.2-0.5,0.6-0.5,1l-0.2,4c0,0.4,0.2,0.8,0.5,1.1c0.2,0.2,0.5,0.3,0.8,0.3
			c0.1,0,0.2,0,0.3,0l1.4-0.4v53.3H1.8c-0.7,0-1.3,0.6-1.3,1.3c0,0.7,0.6,1.3,1.3,1.3h4.8c0.2,0.3,0.6,0.4,1,0.4s0.7-0.2,1-0.4
			h103.7c0.2,0.3,0.6,0.4,1,0.4c0.4,0,0.7-0.2,1-0.4h6.4c0.7,0,1.3-0.6,1.3-1.3C122,78.4,121.4,77.8,120.7,77.8z M6,20.6
			C11.1,19,40.5,11.2,60.5,6l56,14.6v1.3L60.8,7.6c-0.1,0-0.2,0-0.3,0c-0.1,0-0.2,0-0.3,0L7.7,21.4c0,0,0,0-0.1,0
			c-0.2,0-0.5,0.1-0.7,0.2l-1,0.3L6,20.6z M9,23.8l51.5-13.5L112,23.5v54.3H91V42.1c0-0.7-0.6-1.3-1.3-1.3H31.5
			c-0.7,0-1.3,0.6-1.3,1.3v35.7H9V23.8z M78.7,64.4h0.7v4h-5.4v-4H78.7z M71.2,71.5v4h-5.4v-4H71.2z M74.1,71.1h5.4v4.5h-5.4V71.1z
			 M82.3,71.1h5.4v4.5h-5.4V71.1z M82.3,68.4v-4h5.4v4H82.3z M87.7,61.7h-5.4v-4.9h5.4V61.7z M88.3,54.2H81c-0.7,0-1.3,0.6-1.3,1.3
			v6.2h-0.9h-6c-0.7,0-1.3,0.6-1.3,1.3v5.4h-6.7c-0.6,0-1.1,0.4-1.3,1c-0.2,0.2-0.3,0.5-0.3,0.8v6.7c0,0.3,0.1,0.5,0.2,0.7h-5.5
			c0.1-0.2,0.2-0.4,0.2-0.7v-6.7c0-0.3-0.1-0.6-0.3-0.8c-0.2-0.6-0.7-1-1.3-1h-6.7v-5.4c0-0.7-0.6-1.3-1.3-1.3h-6h-0.9v-6.2
			c0-0.7-0.6-1.3-1.3-1.3h-7.4v-4.2h55.5V54.2z M47.1,64.4v4h-5.4v-4h0.7H47.1z M55.3,71.5v4H50v-4H55.3z M33.5,71.1h5.4v4.5h-5.4
			V71.1z M33.5,64.4h5.4v4h-5.4V64.4z M41.7,71.1h5.4v4.5h-5.4V71.1z M38.8,61.7h-5.4v-4.9h5.4V61.7z M88.3,47.2H32.8v-3.8h55.5
			V47.2z"/>
		<path class="st0" d="M41.1,33.2h39.2c0.7,0,1.3-0.6,1.3-1.3v-8.5c0-0.7-0.6-1.3-1.3-1.3H41.1c-0.7,0-1.3,0.6-1.3,1.3v8.5
			C39.7,32.6,40.3,33.2,41.1,33.2z M79,30.5H62.2v-5.8H79V30.5z M42.4,24.7h17.2v5.8H42.4V24.7z"/>
	</g>
</g>
<g id="Режим_изоляции">
</g>
</svg>
