<?xml version="1.0" encoding="utf-8"?>
<!-- Generator: Adobe Illustrator 15.1.0, SVG Export Plug-In . SVG Version: 6.00 Build 0)  -->
<!DOCTYPE svg PUBLIC "-//W3C//DTD SVG 1.1//EN" "http://www.w3.org/Graphics/SVG/1.1/DTD/svg11.dtd">
<svg version="1.1" id="Слой_1" xmlns="http://www.w3.org/2000/svg" xmlns:xlink="http://www.w3.org/1999/xlink" x="0px" y="0px"
	 width="85.04px" height="85.04px" viewBox="0 0 85.04 85.04" enable-background="new 0 0 85.04 85.04" xml:space="preserve">
<g>
	<circle fill="#FFFFFF" cx="348.701" cy="530.361" r="3.125"/>
	<circle fill="#FFFFFF" cx="339.063" cy="530.361" r="3.125"/>
	<circle fill="#FFFFFF" cx="329.426" cy="530.361" r="3.125"/>
	<circle fill="#FFFFFF" cx="319.788" cy="530.361" r="3.125"/>
	<circle fill="#FFFFFF" cx="310.15" cy="530.361" r="3.125"/>
	<circle fill="#FFFFFF" cx="300.513" cy="530.361" r="3.125"/>
	<circle fill="#FFFFFF" cx="290.875" cy="530.361" r="3.125"/>
	<path fill="#FFFFFF" d="M301.75,521.486c2.348,0,4.25-1.903,4.25-4.25v-12.75c0-2.348-1.902-4.25-4.25-4.25s-4.25,1.902-4.25,4.25
		v12.75C297.5,519.583,299.402,521.486,301.75,521.486z"/>
	<path fill="#FFFFFF" d="M337.979,521.486c2.348,0,4.25-1.903,4.25-4.25v-12.75c0-2.348-1.902-4.25-4.25-4.25
		c-2.347,0-4.25,1.902-4.25,4.25v12.75C333.729,519.583,335.632,521.486,337.979,521.486z"/>
	<path fill="#FFFFFF" d="M316.221,568.992c0.432-1.414,16.188-29.93,16.188-29.93h-21.877v4.713h13.176
		c-5.197,9.543-8.014,14.91-12.457,21.961L316.221,568.992z"/>
	<path fill="#FFFFFF" d="M348.33,508.736h-5.08v6h5.08c3.132,0,5.67,2.537,5.67,5.669v49.161c0,3.131-2.538,5.67-5.67,5.67h-57.66
		c-3.132,0-5.67-2.539-5.67-5.67v-49.161c0-3.132,2.538-5.669,5.67-5.669H296v-6h-5.33c-6.436,0-11.67,5.234-11.67,11.669v49.161
		c0,6.435,5.234,11.67,11.67,11.67h57.66c6.436,0,11.67-5.235,11.67-11.67v-49.161C360,513.971,354.766,508.736,348.33,508.736z"/>
	<rect x="307.75" y="508.736" fill="#FFFFFF" width="23.75" height="6"/>
</g>
<g>
	<circle fill="#FFFFFF" cx="71.701" cy="31.361" r="3.125"/>
	<circle fill="#FFFFFF" cx="62.063" cy="31.361" r="3.125"/>
	<circle fill="#FFFFFF" cx="52.426" cy="31.361" r="3.125"/>
	<circle fill="#FFFFFF" cx="42.788" cy="31.361" r="3.125"/>
	<circle fill="#FFFFFF" cx="33.15" cy="31.361" r="3.125"/>
	<circle fill="#FFFFFF" cx="23.513" cy="31.361" r="3.125"/>
	<circle fill="#FFFFFF" cx="13.875" cy="31.361" r="3.125"/>
	<path fill="#FFFFFF" d="M24.75,22.486c2.347,0,4.25-1.903,4.25-4.25V5.486c0-2.348-1.903-4.25-4.25-4.25s-4.25,1.902-4.25,4.25
		v12.75C20.5,20.583,22.403,22.486,24.75,22.486z"/>
	<path fill="#FFFFFF" d="M60.979,22.486c2.348,0,4.25-1.903,4.25-4.25V5.486c0-2.348-1.902-4.25-4.25-4.25
		c-2.347,0-4.25,1.902-4.25,4.25v12.75C56.729,20.583,58.632,22.486,60.979,22.486z"/>
	<path fill="#FFFFFF" d="M39.22,69.992c0.432-1.414,16.188-29.93,16.188-29.93H33.531v4.713h13.176
		c-5.197,9.543-8.013,14.91-12.457,21.961L39.22,69.992z"/>
	<path fill="#FFFFFF" d="M71.33,9.736h-5.08v6h5.08c3.132,0,5.67,2.537,5.67,5.669v49.161c0,3.131-2.538,5.67-5.67,5.67H13.669
		c-3.131,0-5.669-2.539-5.669-5.67V21.405c0-3.132,2.538-5.669,5.669-5.669H19v-6h-5.331C7.235,9.736,2,14.971,2,21.405v49.161
		c0,6.435,5.235,11.67,11.669,11.67H71.33c6.436,0,11.67-5.235,11.67-11.67V21.405C83,14.971,77.766,9.736,71.33,9.736z"/>
	<rect x="30.75" y="9.736" fill="#FFFFFF" width="23.75" height="6"/>
</g>
</svg>
