<svg xmlns="http://www.w3.org/2000/svg" xmlns:xlink="http://www.w3.org/1999/xlink" viewBox="0 0 44.49 42.52"><defs><style>.cls-1{fill:url(#linear-gradient);}.cls-2{fill:url(#linear-gradient-2);}.cls-3{fill:url(#linear-gradient-3);}</style><linearGradient id="linear-gradient" x1="14.2" y1="55.12" x2="56.59" y2="22.34" gradientTransform="matrix(1, 0, 0, -1, 0, 44)" gradientUnits="userSpaceOnUse"><stop offset="0" stop-color="#fecd00"/><stop offset="1" stop-color="#f6a500"/></linearGradient><linearGradient id="linear-gradient-2" x1="14.18" y1="55.1" x2="56.57" y2="22.32" xlink:href="#linear-gradient"/><linearGradient id="linear-gradient-3" x1="0.37" y1="37.23" x2="42.75" y2="4.45" xlink:href="#linear-gradient"/></defs><title>Asset 1</title><g id="Layer_2" data-name="Layer 2"><g id="Слой_1" data-name="Слой 1"><path class="cls-1" d="M34.76,7.14a2.37,2.37,0,1,0-2.37-2.37A2.37,2.37,0,0,0,34.76,7.14Zm0-4.21a1.84,1.84,0,1,1-1.84,1.84A1.84,1.84,0,0,1,34.76,2.94Z"/><path class="cls-2" d="M34.46,5h.2l.63.92H36l-.76-1.07a.79.79,0,0,0,.43-.76.71.71,0,0,0-.07-.34.61.61,0,0,0-.19-.22.66.66,0,0,0-.26-.11,1.73,1.73,0,0,0-.33,0H33.9V5.92h.56V5Zm0-1.13h.35l.12,0A.22.22,0,0,1,35,4a.37.37,0,0,1,0,.16.49.49,0,0,1,0,.17.29.29,0,0,1-.08.11.28.28,0,0,1-.14.07l-.2,0h-.16Z"/><polygon class="cls-3" points="44.49 18.67 42.48 12.27 30.9 10.74 25.6 0 18.89 0.09 13.81 10.61 2.06 12.36 0 18.63 8.42 26.87 6.44 38.53 11.84 42.52 22.27 36.95 32.79 42.43 38.09 38.49 36.16 26.83 44.49 18.67"/></g></g></svg>