<?xml version="1.0" encoding="utf-8"?>
<!-- Generator: Adobe Illustrator 15.1.0, SVG Export Plug-In . SVG Version: 6.00 Build 0)  -->
<!DOCTYPE svg PUBLIC "-//W3C//DTD SVG 1.1//EN" "http://www.w3.org/Graphics/SVG/1.1/DTD/svg11.dtd">
<svg version="1.1" xmlns="http://www.w3.org/2000/svg" xmlns:xlink="http://www.w3.org/1999/xlink" x="0px" y="0px" width="74.5px"
	 height="42.52px" viewBox="0 0 74.5 42.52" enable-background="new 0 0 74.5 42.52" xml:space="preserve">
<g id="Слой_1">
</g>
<g id="Режим_изоляции">
	<g>
		<path fill-rule="evenodd" clip-rule="evenodd" fill="#AE294D" d="M41.921,27.968c0,0.821-0.652,1.485-1.46,1.485l0,0
			c-0.807,0-1.459-0.664-1.459-1.485V15.281c0-0.82,0.652-1.485,1.459-1.485l0,0c0.808,0,1.46,0.665,1.46,1.485V27.968z"/>
	</g>
	<g>
		<circle fill-rule="evenodd" clip-rule="evenodd" fill="#AE294D" cx="51.918" cy="21.713" r="1.415"/>
	</g>
	<g>
		<path fill="#808283" d="M74.433,15.034c0-0.414-0.175-0.786-0.452-1.052c-0.267-0.277-0.639-0.452-1.053-0.452
			c-0.117,0-0.231,0.018-0.341,0.044h-7.842c-0.616,0-1.141,0.382-1.354,0.92c-0.126,0.253-0.179,0.544-0.133,0.844
			c0.513,3.331,0.672,10.486-2.115,11.348c-0.747,0.23-1.166,1.023-0.936,1.77c0.188,0.608,0.749,0.998,1.354,0.998
			c0.137,0,0.278-0.021,0.418-0.063c4.799-1.484,4.607-9.372,4.271-12.898h5.219v10.969c0,0.808,0.654,1.46,1.46,1.46
			c0.807,0,1.461-0.652,1.461-1.46V15.375C74.414,15.266,74.433,15.153,74.433,15.034z"/>
		<path fill="#808283" d="M51.918,13.663c-4.438,0-8.052,3.612-8.052,8.05s3.613,8.05,8.052,8.05c4.439,0,8.05-3.611,8.05-8.05
			S56.358,13.663,51.918,13.663z M51.918,26.933c-2.878,0-5.22-2.342-5.22-5.22s2.342-5.219,5.22-5.219s5.22,2.341,5.22,5.219
			S54.796,26.933,51.918,26.933z"/>
	</g>
	<g>
		<path fill="#AE294D" d="M25.6,32.993c0.806,0,1.459-0.653,1.459-1.46v-3.538c0-0.806-0.654-1.46-1.459-1.46
			c-0.119,0-0.231,0.019-0.341,0.044h-0.411V15.375c0.026-0.11,0.044-0.223,0.044-0.341c0-0.414-0.174-0.786-0.451-1.052
			c-0.266-0.277-0.638-0.452-1.052-0.452c-0.119,0-0.231,0.018-0.341,0.044h-7.842c-0.615,0-1.139,0.382-1.354,0.92
			c-0.125,0.253-0.18,0.544-0.133,0.844c0.494,3.211,0.651,9.962-1.836,11.214c-0.677,0.085-1.204,0.63-1.264,1.313
			c-0.002,0.021-0.004,0.041-0.006,0.062c0,0.021-0.006,0.044-0.006,0.066v3.538c0,0.807,0.653,1.46,1.46,1.46
			c0.806,0,1.459-0.653,1.459-1.46V29.5H24.14v2.033C24.14,32.339,24.793,32.993,25.6,32.993z M16.709,16.494h5.219v10.084h-6.369
			C17.107,23.528,16.944,18.952,16.709,16.494z"/>
		<path fill="#AE294D" d="M40.461,13.796c-0.347,0-0.658,0.127-0.908,0.333c-0.207,0.101-0.396,0.246-0.541,0.446l-7.618,9.689
			v-8.982c0-0.82-0.654-1.485-1.46-1.485c-0.806,0-1.459,0.665-1.459,1.485v12.688c0,0.268,0.075,0.515,0.196,0.732
			c0.086,0.303,0.264,0.584,0.54,0.785c0.653,0.474,1.565,0.33,2.039-0.322l7.752-9.859v8.664c0,0.821,0.652,1.485,1.459,1.485
			c0.808,0,1.46-0.664,1.46-1.485V15.281C41.921,14.46,41.269,13.796,40.461,13.796z"/>
		<path fill="#AE294D" d="M32.164,34.158c-3.158,3.185-7.39,4.938-11.916,4.938c-9.171,0-16.632-7.328-16.632-16.335
			c0-9.008,7.46-16.337,16.632-16.337h3.086V8.25c0,0.36,0.183,0.696,0.485,0.892c0.174,0.112,0.375,0.17,0.576,0.17
			c0.148,0,0.296-0.031,0.435-0.093l7.882-3.537c0.382-0.17,0.628-0.55,0.628-0.969c0-0.418-0.246-0.797-0.628-0.968l-7.882-3.537
			c-0.328-0.146-0.708-0.118-1.011,0.078c-0.302,0.196-0.485,0.531-0.485,0.892v1.708h-3.086c-11.123,0-20.17,8.916-20.17,19.875
			c0,10.958,9.048,19.875,20.17,19.875c5.477,0,10.601-2.127,14.428-5.989c0.688-0.693,0.684-1.813-0.011-2.501
			C33.971,33.458,32.852,33.463,32.164,34.158z"/>
	</g>
	<g>
		<circle fill-rule="evenodd" clip-rule="evenodd" fill="#AE294D" cx="51.918" cy="21.713" r="1.415"/>
	</g>
</g>
</svg>
