<?xml version="1.0" encoding="utf-8"?>
<!-- Generator: Adobe Illustrator 15.1.0, SVG Export Plug-In . SVG Version: 6.00 Build 0)  -->
<!DOCTYPE svg PUBLIC "-//W3C//DTD SVG 1.1//EN" "http://www.w3.org/Graphics/SVG/1.1/DTD/svg11.dtd">
<svg version="1.1" id="Слой_1" xmlns="http://www.w3.org/2000/svg" xmlns:xlink="http://www.w3.org/1999/xlink" x="0px" y="0px"
	 width="157.819px" height="42.52px" viewBox="0 0 157.819 42.52" enable-background="new 0 0 157.819 42.52" xml:space="preserve">
<g>
	<g>
		<path fill-rule="evenodd" clip-rule="evenodd" d="M77.419,33.356c0.286,0.633,0.873,0.965,1.169,1.588
			c0.313-0.245,0.212-0.903,0.334-1.338c0.434,0.041,1.038-0.09,1.338,0.084c-0.033,0.942-0.196,1.754-0.669,2.256
			c0.234,0.686,0.987,0.853,1.086,1.672c-0.388,0.057-1.003,0.093-1.41,0.121c0.058,0-0.499-0.439-0.596-0.705
			c-0.519,0.254-0.967,0.591-1.504,0.668c-1.742,0.25-3.376-0.678-3.176-2.591c0.094-0.897,0.671-1.43,1.42-1.839
			c-0.142-0.152-0.234-0.346-0.334-0.502c-0.144-0.226-0.405-0.598-0.418-1.003c-0.026-0.814,0.445-1.38,0.752-1.587
			c0.102-0.069,0.145-0.103,0.258-0.16c0.039-0.021,0.214-0.082,0.244-0.092c0.292-0.092,0.75-0.105,1.003-0.083
			c0.252,0.021,0.523,0.146,0.752,0.251c0.53,0.244,1.13,0.934,0.919,2.006C78.497,32.571,78.049,32.948,77.419,33.356z
			 M77.251,31.6c-0.065-0.477-0.67-0.646-1.086-0.25c-0.07,0.543,0.138,0.809,0.334,1.086C76.912,32.272,77.311,32.03,77.251,31.6z
			 M76.332,34.274c-0.106-0.004-0.115-0.106-0.25-0.083c-0.565,0.452-0.993,1.302-0.418,1.923c0.172,0.186,0.641,0.328,0.92,0.334
			c0.392,0.008,0.935-0.23,1.169-0.502C77.209,35.459,76.773,34.864,76.332,34.274z"/>
		<path fill-rule="evenodd" clip-rule="evenodd" d="M81.431,36.448c0.174-0.104,0.313-0.243,0.418-0.418
			c0.231-0.01,0.396,0.156,0.668,0.334c0.17,0.111,0.34,0.342,0.584,0.418c0.561,0.176,1.551,0.143,2.007-0.083
			c0.06-0.029,0.117-0.136,0.167-0.167c0.132-0.082,0.431-0.262,0.502-0.502c0.089-0.301,0.064-0.888-0.168-1.254
			c-0.398-0.628-1.807-0.457-2.758-0.836c-0.453-0.18-0.68-0.375-0.919-0.668c-0.252-0.31-0.507-1.386-0.251-2.09
			c0.079-0.217,0.453-0.66,0.669-0.836c0.298-0.242,1.138-0.537,1.922-0.501c0.98,0.046,2.454,0.722,1.839,1.337
			c-0.003,0.004-0.188,0.172-0.167,0.168c-0.288,0.063-0.896-0.511-1.17-0.586c-0.773-0.212-1.8,0.014-2.09,0.418
			c-0.135,0.189-0.315,0.783-0.167,1.254c0.17,0.539,0.657,0.699,1.17,0.836c0.514,0.136,1.103,0.061,1.672,0.25
			c0.406,0.137,1.244,0.874,1.337,1.422c0.063,0.369,0.062,0.877,0,1.17c-0.153,0.725-0.991,1.449-1.839,1.588
			c-1.029,0.169-2.014-0.04-2.674-0.418C81.863,37.1,81.447,36.842,81.431,36.448z"/>
		<path fill-rule="evenodd" clip-rule="evenodd" d="M95.535,29.864c0.025-0.004,0.104-0.019,0.188-0.019
			c1.361-0.001,2.204,0.622,2.676,1.421c0.31,0.526,0.397,3.09,0.25,4.179c-0.018,0.132-0.042,0.301-0.081,0.452
			c-0.042,0.168-0.142,0.41-0.169,0.467c-0.229,0.463-1.154,1.22-1.84,1.338c-1.428,0.246-2.704-0.508-3.092-1.421
			c-0.27-0.636-0.256-1.634-0.251-2.507c0.005-0.975,0.027-1.988,0.251-2.508c0.016-0.039,0.073-0.119,0.088-0.15
			c0.019-0.043,0.053-0.063,0.079-0.101c0.021-0.03,0.055-0.127,0.073-0.149C94.153,30.31,94.744,29.972,95.535,29.864z
			 M94.636,31.266c-0.386,0.385-0.46,0.928-0.502,1.839c-0.053,1.147-0.043,2.515,0.334,3.092c0.18,0.274,0.691,0.608,1.004,0.669
			c0.875,0.168,1.791-0.271,2.089-0.92c0.195-0.425,0.173-1.52,0.167-2.424c-0.004-0.878,0.004-1.748-0.417-2.256
			c-0.276-0.332-0.896-0.593-1.589-0.502C95.13,30.842,94.888,31.014,94.636,31.266z"/>
		<path fill-rule="evenodd" clip-rule="evenodd" d="M58.279,29.928c0.483,1.289,0.952,2.553,1.421,3.846
			c0.179,0.494,0.309,0.971,0.501,1.504c0.016,0.043,0.158,0.136,0.168,0.167c0.201,0.667,0.514,1.419,0.668,2.173
			c-0.209,0.07-0.448,0.109-0.752,0.084c-0.396-0.468-0.527-1.2-0.752-1.84c-1.059,0-2.117,0-3.176,0
			c-0.489,0.526-0.254,2.348-1.588,1.756c0.082-0.635,0.414-1.236,0.668-1.922c0.535-1.441,1.083-2.994,1.672-4.598
			C57.357,30.424,57.255,29.727,58.279,29.928z M56.608,35.027c0.863,0,1.727,0,2.591,0c-0.437-1.235-0.843-2.5-1.338-3.677
			C57.529,32.661,57.013,33.788,56.608,35.027z"/>
		<path fill-rule="evenodd" clip-rule="evenodd" d="M65.717,34.191c0.387,0.89,0.814,1.613,1.254,2.508
			c0.132,0.268,0.42,0.547,0.334,0.919c-1.053,0.42-1.29-0.736-1.588-1.337c-0.345-0.698-0.785-1.39-1.002-2.007
			c-0.585,0-1.17,0-1.755,0c-0.015,0.534,0.019,1.44,0,2.174c-0.018,0.677,0.112,1.545-0.752,1.17
			c-0.302-0.021-0.16-0.533-0.167-0.836c-0.049-2.025,0.038-4.476,0-6.602c0-0.084,0-0.168,0-0.252
			c1.104,0.107,3.205-0.208,4.095,0.168c0.366,0.154,0.937,0.779,1.087,1.254c0.207,0.656-0.01,1.6-0.334,2.09
			C66.707,33.711,66.324,34,65.717,34.191z M66.386,32.436c0.045-0.229,0.03-0.611,0-0.752c-0.031-0.148-0.251-0.504-0.334-0.586
			c-0.637-0.621-2.01-0.209-3.092-0.334c0,0.892,0,1.783,0,2.676C64.531,33.452,66.154,33.622,66.386,32.436z"/>
		<path fill-rule="evenodd" clip-rule="evenodd" d="M73.324,29.928c0,0.252,0,0.502,0,0.752c-0.539,0.186-1.415,0.035-2.09,0.084
			c-0.158,1.57-0.074,3.611-0.084,5.433c-0.002,0.509,0.149,1.171-0.25,1.505c-0.147-0.049-0.491,0.101-0.501-0.084
			c-0.3-0.009-0.159-0.442-0.167-0.752c-0.053-1.859,0.04-4.141,0-6.102c-0.729-0.078-1.792,0.178-2.257-0.166
			c-0.006-0.285-0.026-0.584,0.167-0.67C69.869,29.928,71.596,29.928,73.324,29.928z"/>
		<path fill-rule="evenodd" clip-rule="evenodd" d="M92.63,30.012c0,0.223,0,0.445,0,0.668c-0.539,0.186-1.414,0.035-2.09,0.084
			c-0.158,1.57-0.074,3.611-0.084,5.433c-0.002,0.509,0.149,1.171-0.25,1.505c-0.146-0.049-0.491,0.101-0.502-0.084
			c-0.3-0.009-0.158-0.442-0.166-0.752c-0.055-1.859,0.039-4.141,0-6.102c-0.73-0.049-1.664,0.104-2.258-0.084
			c0.036-0.27-0.109-0.723,0.168-0.752C89.149,29.983,91.068,29.819,92.63,30.012z"/>
		<path fill-rule="evenodd" clip-rule="evenodd" d="M101.156,29.928c1.344,2,2.631,4.057,4.012,6.018c0-2.006,0-4.012,0-6.018
			c0.277,0,0.557,0,0.836,0c0.149,1.752,0.083,3.933,0.083,5.934c0,0.618,0.126,1.272-0.167,1.756
			c-0.475,0.268-0.669-0.029-0.92-0.25c-0.227-0.201-0.369-0.633-0.502-0.836c-0.342-0.529-0.766-1.103-1.086-1.588
			c-0.725-1.098-1.447-2.232-2.173-3.177c-0.163,1.368,0.214,3.493,0,5.099c-0.063,0.467-0.017,1.1-0.752,0.752
			c-0.302-0.021-0.159-0.533-0.167-0.836c-0.051-2.025,0.037-4.476,0-6.602C100.218,29.716,100.875,30.011,101.156,29.928z"/>
		<path fill-rule="evenodd" clip-rule="evenodd" d="M112.856,30.096c0.181,0.949-0.972,0.668-1.671,0.668c-0.804,0-1.671,0-2.257,0
			c0,0.836,0,1.672,0,2.508c0.667,0.199,1.759,0.021,2.675,0.084c0.27,0.018,0.549-0.08,0.668,0.166
			c0.193,0.879-0.719,0.662-1.337,0.669c-0.711,0.008-1.494-0.006-2.006,0c0,0.836,0,1.671,0,2.508
			c0.536,0.15,1.275,0.083,2.173,0.083c0.682,0,1.703-0.197,1.755,0.418c0.046,0.541-0.339,0.443-0.919,0.502
			c-1.178,0.119-2.944-0.029-3.929-0.084c0-2.563,0-5.125,0-7.689c1.058,0.035,2.615-0.043,3.845,0
			C112.193,29.942,112.632,29.811,112.856,30.096z"/>
	</g>
	<g>
		<path fill-rule="evenodd" clip-rule="evenodd" d="M65.885,11.291c-0.201,0.475-0.662,0.745-1.003,1.086
			c-0.334,0.334-0.612,0.725-1.003,1.003c-0.348-0.176-0.789-0.633-1.421-0.836c-1.554-0.5-4.025-0.28-3.928,1.588
			c0.019,0.349,0.166,0.534,0.334,0.752c0.577,0.75,1.994,0.814,3.176,1.002c0.821,0.13,1.7,0.241,2.424,0.668
			c0.659,0.39,1.156,1.167,1.253,1.338c0.324,0.565,0.527,1.283,0.585,1.922c0.066,0.735-0.038,1.654-0.251,2.257
			c-0.052,0.145-0.172,0.259-0.251,0.418c-0.2,0.405-0.278,0.576-0.584,0.919c-0.396,0.44-0.812,0.771-1.421,1.087
			c-2.655,1.379-7.041,0.922-9.026-1.338c-0.011-0.281,0.249-0.488,0.418-0.668c0.453-0.483,1.058-0.985,1.588-1.505
			c0.487,0.188,0.914,0.689,1.504,0.919c1.121,0.439,3.835,0.566,4.513-0.417c0.268-0.388,0.336-1.423,0-1.922
			c-0.586-0.87-2.259-0.719-3.677-1.003c-1.139-0.228-2.336-0.773-3.009-1.588c-0.052-0.063-0.032-0.113-0.083-0.167
			c-0.232-0.242-0.602-1.211-0.669-1.755c-0.462-3.744,2.261-5.878,5.934-5.684C63.11,9.464,64.825,10.034,65.885,11.291z"/>
		<path fill-rule="evenodd" clip-rule="evenodd" d="M78.923,9.535c0,0.975,0,1.951,0,2.926c-1.178,0.187-2.696,0.034-4.012,0.083
			c0,4.179,0,8.358,0,12.537c-0.911,0.137-2.349,0.137-3.26,0c0-4.15,0-8.302,0-12.453c-1.148-0.245-2.862,0.076-4.012-0.167
			c0.056-0.948-0.111-2.117,0.084-2.926C71.458,9.535,75.19,9.535,78.923,9.535z"/>
		<path fill-rule="evenodd" clip-rule="evenodd" d="M91.376,9.535c0,0.975,0,1.951,0,2.926c-2.176,0.191-4.706,0.03-7.02,0.083
			c0,1.031,0,2.062,0,3.093c1.783,0.25,4.149-0.083,5.934,0.167c0.138,0.789,0.138,2.137,0,2.925c-1.979,0-3.956,0-5.934,0
			c0,1.087,0,2.173,0,3.26c2.146,0.248,4.871-0.08,7.02,0.167c0,0.976,0,1.95,0,2.925c-3.262,0.139-7.102,0.139-10.363,0
			c0.056-5.153-0.111-10.53,0.084-15.545C84.523,9.535,87.951,9.535,91.376,9.535z"/>
		<path fill-rule="evenodd" clip-rule="evenodd" d="M125.143,9.535c1.555,4.203,3.043,8.349,4.597,12.621
			c0.328,0.903,0.781,1.888,1.002,2.925c-0.902,0.129-2.359,0.148-3.26,0c-0.291-0.025-0.263-0.398-0.334-0.584
			c-0.217-0.579-0.497-1.36-0.668-2.09c-1.699,0-3.398,0-5.099,0c-0.206,0.125-0.259,0.452-0.334,0.668
			c-0.207,0.591-0.382,1.428-0.752,2.006c-0.903,0.144-2.354,0.133-3.26,0c-0.105-0.535,0.251-0.955,0.417-1.42
			c0.071-0.196,0.107-0.334,0.168-0.502c0.448-1.236,0.861-2.533,1.338-3.845c0.061-0.168,0.096-0.306,0.166-0.501
			c0.107-0.298,0.313-0.762,0.502-1.17c0.12-0.261,0.274-0.772,0.418-1.17c0.113-0.316,0.215-0.672,0.334-1.003
			c0.176-0.486,0.306-0.961,0.502-1.504c0.016-0.043,0.092-0.181,0.101-0.211c0.022-0.076,0.039-0.133,0.066-0.207
			c0.348-0.944,0.71-1.813,1.087-2.842c0.141-0.384,0.213-0.875,0.501-1.17C123.471,9.535,124.306,9.535,125.143,9.535z
			 M122.217,19.565c1.087-0.056,2.396,0.111,3.343-0.083c-0.607-1.51-1.059-3.176-1.671-4.681
			C123.333,16.391,122.808,18.011,122.217,19.565z"/>
		<path fill-rule="evenodd" clip-rule="evenodd" d="M140.855,18.479c0.373,0.496,0.549,1.111,0.836,1.671
			c0.285,0.552,0.647,1.045,0.92,1.588c0.282,0.563,0.55,1.132,0.836,1.672c0.146,0.278,0.285,0.55,0.418,0.835
			c0.115,0.25,0.368,0.528,0.25,0.836c-0.984,0.13-2.527,0.146-3.51,0c-0.316-0.047-0.383-0.445-0.502-0.668
			c-0.869-1.627-1.73-3.643-2.591-5.349c-0.641,0-1.282,0-1.923,0c0,2.005,0,4.011,0,6.017c-0.91,0.137-2.349,0.137-3.259,0
			c0.056-5.153-0.111-10.53,0.083-15.545c2.408,0.138,4.751-0.188,6.771,0c1.313,0.123,2.355,0.721,3.093,1.504
			c1.352,1.439,1.779,3.775,0.668,5.767c-0.02,0.035-0.071,0.069-0.109,0.128C142.445,17.549,141.587,18.146,140.855,18.479z
			 M138.515,16.222c1.016-0.146,1.746-0.926,1.756-1.839c0.004-0.379-0.171-0.957-0.418-1.254c-0.672-0.806-2.695-0.585-4.18-0.585
			c-0.027,0-0.056,0-0.084,0c0,1.226,0,2.452,0,3.678C136.702,16.139,137.726,16.335,138.515,16.222z"/>
		<path fill-rule="evenodd" clip-rule="evenodd" d="M146.456,9.535c3.317,0.186,6.427-0.472,8.524,0.585
			c0.074,0.037,0.27,0.125,0.335,0.167c0.032,0.021,0.122,0.088,0.149,0.1c0.175,0.079,0.495,0.383,0.687,0.569
			c0.118,0.114,0.284,0.281,0.417,0.447c0.125,0.158,0.238,0.315,0.334,0.472c0.082,0.132,0.164,0.323,0.238,0.471
			c0.18,0.36,0.305,0.738,0.432,1.368c0.285,1.424,0.299,4.295,0.166,6.102c-0.068,0.946-0.365,1.887-0.668,2.507
			c-0.17,0.348-0.375,0.576-0.585,0.92c-0.192,0.311-0.644,0.669-1.003,0.919c-1.916,1.331-5.799,1.049-9.11,0.919
			c-0.194-4.931-0.028-10.224-0.083-15.294C146.361,9.719,146.337,9.557,146.456,9.535z M149.631,22.073
			c1.153-0.104,2.33,0.176,3.177-0.084c0.203-0.063,0.549-0.33,0.668-0.418c0.254-0.19,0.256-0.236,0.418-0.502
			c0.234-0.387,0.339-0.721,0.418-1.253c0.197-1.325,0.156-2.91,0.083-4.263c-0.081-1.533-0.585-2.611-1.671-2.925
			c-0.836-0.241-1.9,0.005-3.009-0.084C149.519,15.553,149.687,18.924,149.631,22.073z"/>
		<path fill-rule="evenodd" clip-rule="evenodd" d="M109.597,22.073c0-4.179,0-8.358,0-12.538c-1.059,0-2.117,0-3.177,0
			c-0.116,0.021-0.095,0.184-0.167,0.251c0,4.432,0,8.865,0,13.298l0.181,0.174l2.448,1.951c0.486,0.025,1.072-0.045,1.634-0.045
			c2.019,0,4.263,0.066,6.019-0.084c0-0.975,0-1.949,0-2.925C114.386,21.963,111.884,22.125,109.597,22.073z"/>
		<path fill-rule="evenodd" clip-rule="evenodd" d="M104.164,22.156c-2.092-0.247-4.762,0.081-6.853-0.167
			c-0.056-4.124,0.11-8.469-0.084-12.454c-1.03,0-2.062,0-3.093,0c-0.104,0.034-0.17,0.108-0.166,0.251c0,3.903,0,8.113,0,12.034
			c0,0.432-0.051,0.926-0.051,1.303l0.14,0.135l2.435,1.939c0.499,0.04,1.125-0.033,1.738-0.033c1.968,0,4.271,0.066,5.934-0.084
			C104.302,24.292,104.302,22.945,104.164,22.156z"/>
	</g>
	<g>
		<linearGradient id="SVGID_1_" gradientUnits="userSpaceOnUse" x1="14.1987" y1="-11.1235" x2="56.5885" y2="21.6582">
			<stop  offset="0" style="stop-color:#FECD00"/>
			<stop  offset="1" style="stop-color:#F6A500"/>
		</linearGradient>
		<path fill="url(#SVGID_1_)" d="M34.761,7.145c1.306,0,2.367-1.062,2.367-2.367c0-1.306-1.062-2.367-2.367-2.367
			c-1.305,0-2.367,1.062-2.367,2.367C32.394,6.083,33.456,7.145,34.761,7.145z M34.761,2.937c1.016,0,1.841,0.826,1.841,1.841
			c0,1.015-0.826,1.841-1.841,1.841c-1.015,0-1.841-0.826-1.841-1.841C32.92,3.763,33.746,2.937,34.761,2.937z"/>
		<linearGradient id="SVGID_2_" gradientUnits="userSpaceOnUse" x1="14.1782" y1="-11.0981" x2="56.5698" y2="21.685">
			<stop  offset="0" style="stop-color:#FECD00"/>
			<stop  offset="1" style="stop-color:#F6A500"/>
		</linearGradient>
		<path fill="url(#SVGID_2_)" d="M34.461,4.997h0.202l0.628,0.923h0.689L35.223,4.85c0.13-0.071,0.234-0.166,0.312-0.286
			c0.078-0.121,0.117-0.277,0.117-0.47c0-0.136-0.024-0.249-0.071-0.337c-0.047-0.089-0.111-0.162-0.192-0.219
			c-0.079-0.055-0.165-0.092-0.257-0.109c-0.092-0.018-0.202-0.027-0.327-0.027h-0.906V5.92h0.563V4.997z M34.461,3.866h0.189
			c0.064,0,0.119,0.002,0.162,0.007c0.043,0.004,0.083,0.015,0.118,0.032c0.051,0.025,0.086,0.06,0.108,0.106
			c0.022,0.045,0.033,0.1,0.033,0.163c0,0.071-0.009,0.129-0.026,0.173C35.027,4.39,35,4.428,34.963,4.459
			c-0.038,0.035-0.084,0.058-0.14,0.069s-0.122,0.016-0.201,0.016h-0.161V3.866z"/>
		<linearGradient id="SVGID_3_" gradientUnits="userSpaceOnUse" x1="0.3682" y1="6.7705" x2="42.7494" y2="39.5456">
			<stop  offset="0" style="stop-color:#FECD00"/>
			<stop  offset="1" style="stop-color:#F6A500"/>
		</linearGradient>
		<polygon fill="url(#SVGID_3_)" points="44.492,18.673 42.476,12.273 30.903,10.74 25.6,0 18.893,0.088 13.808,10.608 
			2.061,12.361 0,18.63 8.417,26.871 6.444,38.531 11.835,42.52 22.268,36.953 32.789,42.432 38.092,38.487 36.164,26.827 		"/>
	</g>
</g>
</svg>
