<?xml version="1.0" encoding="utf-8"?>
<!-- Generator: Adobe Illustrator 15.1.0, SVG Export Plug-In . SVG Version: 6.00 Build 0)  -->
<!DOCTYPE svg PUBLIC "-//W3C//DTD SVG 1.1//EN" "http://www.w3.org/Graphics/SVG/1.1/DTD/svg11.dtd">
<svg version="1.1" id="Слой_1" xmlns="http://www.w3.org/2000/svg" xmlns:xlink="http://www.w3.org/1999/xlink" x="0px" y="0px"
	 width="42.52px" height="29.5px" viewBox="0 0 42.52 29.5" enable-background="new 0 0 42.52 29.5" xml:space="preserve">
<path fill="#F6A607" d="M40.145,15.683c-1.253-0.74-4.409-2.507-7.778-4.546c-3.27,1.525-4.353,3.994-4.405,4.12
	c-0.312,0.767-1.129,1.184-1.911,1.014c-0.09-0.019-0.177-0.046-0.264-0.08c-0.855-0.341-1.279-1.298-0.948-2.156
	c0.06-0.155,1.168-2.814,4.289-4.915c-0.575-0.369-1.142-0.739-1.688-1.106c-2.673,1.524-3.572,3.622-3.62,3.738
	c-0.312,0.765-1.128,1.183-1.913,1.013c-0.087-0.02-0.175-0.045-0.261-0.081c-0.855-0.34-1.281-1.297-0.948-2.156
	c0.058-0.148,1.069-2.553,3.84-4.593c-1.47-1.138-2.568-2.169-2.958-2.949c-1.639-3.277-5.598-2.731-6.007-1.775
	c-0.41,0.956-5.358,5.507-8.271,5.324c-3.823-0.91,0-5.461-3.06-4.232C1.816,3.276-1.044,9.002,0.381,13.998
	c1.466,5.143,1.537,8.647,1.537,8.647s0.437,2.441,0.621,3.247c0.755,3.306,4.442,3.17,4.442,3.17h31.673
	c0,0,4.222-0.547,4.222-5.598C42.876,19.85,43.148,17.457,40.145,15.683z M38.449,26.741H5.956c-0.641,0-1.161-0.52-1.161-1.16
	c0-0.642,0.52-1.161,1.161-1.161h32.493c0.641,0,1.16,0.52,1.16,1.161C39.609,26.222,39.09,26.741,38.449,26.741z"/>
</svg>
