<?xml version="1.0" encoding="utf-8"?>
<!-- Generator: Adobe Illustrator 15.1.0, SVG Export Plug-In . SVG Version: 6.00 Build 0)  -->
<!DOCTYPE svg PUBLIC "-//W3C//DTD SVG 1.1//EN" "http://www.w3.org/Graphics/SVG/1.1/DTD/svg11.dtd">
<svg version="1.1" id="Слой_1" xmlns="http://www.w3.org/2000/svg" xmlns:xlink="http://www.w3.org/1999/xlink" x="0px" y="0px"
	 width="42.52px" height="35.187px" viewBox="0 0 42.52 35.187" enable-background="new 0 0 42.52 35.187" xml:space="preserve">
<g>
	<g>
		<polygon fill="#F6A607" points="20.827,1.5 25.973,7.932 42.52,7.932 35.629,0 7.932,0 0,7.932 15.976,7.932 		"/>
		<polygon fill="#F6A607" points="20.666,7.932 21.177,7.932 20.914,7.603 		"/>
	</g>
	<rect x="1.54" y="20.588" fill="#F6A607" width="39.443" height="2.037"/>
	<path fill="#F6A607" d="M26.279,10.532L20.87,3.771l-5.1,6.761H2.861v8.062h4.935c-0.018-0.129-0.042-0.256-0.042-0.389v-2.992
		c0-1.628,1.426-2.947,3.186-2.947c1.759,0,3.185,1.319,3.185,2.947v2.992c0,0.133-0.023,0.26-0.043,0.389h4.117
		c-0.018-0.129-0.042-0.256-0.042-0.389v-2.992c0-1.628,1.426-2.947,3.186-2.947c1.758,0,3.185,1.319,3.185,2.947v2.992
		c0,0.133-0.023,0.26-0.043,0.389h4.075c-0.02-0.129-0.043-0.256-0.043-0.389v-2.992c0-1.628,1.426-2.947,3.186-2.947
		s3.186,1.319,3.186,2.947v2.992c0,0.133-0.023,0.26-0.043,0.389h4.816v-8.062H26.279z"/>
	<path fill="#F6A607" d="M3.599,24.749v10.404h4.204c-0.019-0.129-0.043-0.256-0.043-0.391v-2.99c0-1.629,1.426-2.947,3.186-2.947
		c1.758,0,3.185,1.318,3.185,2.947v2.99c0,0.135-0.023,0.262-0.042,0.391h14.477c-0.018-0.129-0.043-0.256-0.043-0.391v-2.99
		c0-1.629,1.426-2.947,3.186-2.947s3.186,1.318,3.186,2.947v2.99c0,0.135-0.023,0.262-0.043,0.391h4.072V24.749H3.599z
		 M26.57,32.987H16.082v-1.951H26.57V32.987z M26.57,28.78H16.082v-1.949H26.57V28.78z"/>
</g>
</svg>
