<?xml version="1.0" encoding="utf-8"?>
<!-- Generator: Adobe Illustrator 15.1.0, SVG Export Plug-In . SVG Version: 6.00 Build 0)  -->
<!DOCTYPE svg PUBLIC "-//W3C//DTD SVG 1.1//EN" "http://www.w3.org/Graphics/SVG/1.1/DTD/svg11.dtd">
<svg version="1.1" id="Слой_1" xmlns="http://www.w3.org/2000/svg" xmlns:xlink="http://www.w3.org/1999/xlink" x="0px" y="0px"
	 width="42.52px" height="42.52px" viewBox="0 0 42.52 42.52" enable-background="new 0 0 42.52 42.52" xml:space="preserve">
<path fill="#F6A607" d="M42.484,36.544V36.54c-0.273-1.815-1.56-2.274-1.56-2.274c-3.656-1.769-9.764-5.781-11.33-7.373
	c-1.155-1.174-0.89-3.505-0.67-4.655c0.095-0.03,0.117-0.139,0.129-0.143l9.732-9.662L25.795,0.025L16.443,9.38
	c-0.214-0.286-0.916-0.787-3.214-0.527c-2.538,0.285-7.017,5.443-8.627,7.395L0,20.879L20.921,42.52h21.563V36.544z M17.846,10.889
	l7.981-7.981l10.023,9.574l-7.684,7.836c-0.414,0.129-1.442,0.405-2.678,0.405c0,0,0,0-0.002,0c-2.211-0.001-3.963-0.85-5.203-2.526
	C17.668,14.666,17.748,11.76,17.846,10.889z M8.552,14.719c0-0.125,0.5,0.261,1.057,0.819l6.714,6.711
	c0.554,0.557,0.556,1.458,0,2.013c-0.557,0.556-1.459,0.556-2.015,0c0,0-2.297-5.375-3.381-6.459
	C10.372,17.247,8.469,14.927,8.552,14.719z M21.775,40.439L2.852,20.865l1.692-1.784l18.938,18.602l17.31-0.018l0.03,2.592
	L21.775,40.439z"/>
</svg>
