<?xml version="1.0" encoding="utf-8"?>
<!-- Generator: Adobe Illustrator 15.1.0, SVG Export Plug-In . SVG Version: 6.00 Build 0)  -->
<!DOCTYPE svg PUBLIC "-//W3C//DTD SVG 1.1//EN" "http://www.w3.org/Graphics/SVG/1.1/DTD/svg11.dtd">
<svg version="1.1" id="Слой_1" xmlns="http://www.w3.org/2000/svg" xmlns:xlink="http://www.w3.org/1999/xlink" x="0px" y="0px"
	 width="42.52px" height="33.187px" viewBox="0 0 42.52 33.187" enable-background="new 0 0 42.52 33.187" xml:space="preserve">
<path fill="#F6A607" d="M1.167,17.262l1.351,15.925h4.538c0,0,0.289-9.267,2.896-12.451C9.951,20.736,5.029,15.717,1.167,17.262z"/>
<path fill="#F6A607" d="M4.772,0c0,0-4.671,3.348-4.758,8.106c-0.087,4.759,0.264,5.641,0.264,5.641s17.626,7.492,27.055,19.475
	h15.068c0,0,0.006-1.925-0.265-3.083c-0.458-1.958-0.706-3.438-7.227-5.024s-8.371-5.287-8.371-5.287s-2.513-4.433-9.617-13.062
	C14.184,3.44,11,0,4.772,0z"/>
</svg>
