<?xml version="1.0" encoding="utf-8"?>
<!-- Generator: Adobe Illustrator 15.1.0, SVG Export Plug-In . SVG Version: 6.00 Build 0)  -->
<!DOCTYPE svg PUBLIC "-//W3C//DTD SVG 1.1//EN" "http://www.w3.org/Graphics/SVG/1.1/DTD/svg11.dtd">
<svg version="1.1" id="Слой_1" xmlns="http://www.w3.org/2000/svg" xmlns:xlink="http://www.w3.org/1999/xlink" x="0px" y="0px"
	 width="42.52px" height="42.52px" viewBox="0 0 42.52 42.52" enable-background="new 0 0 42.52 42.52" xml:space="preserve">
<path fill="#F6A607" d="M41.612,37.228L25.641,21.259L41.61,5.291c1.211-1.21,1.211-3.173,0-4.382c-1.211-1.211-3.174-1.211-4.385,0
	L21.259,16.875L5.291,0.909c-1.208-1.211-3.174-1.211-4.382,0c-1.21,1.209-1.21,3.172,0,4.382l15.967,15.968L0.907,37.228
	c-1.211,1.21-1.211,3.174,0,4.384c0.604,0.605,1.397,0.908,2.191,0.908s1.587-0.303,2.191-0.908l15.969-15.971l15.968,15.971
	c0.605,0.605,1.399,0.908,2.192,0.908c0.794,0,1.587-0.303,2.192-0.908C42.823,40.402,42.823,38.438,41.612,37.228z"/>
</svg>
