<?xml version="1.0" encoding="utf-8"?>
<!-- Generator: Adobe Illustrator 15.1.0, SVG Export Plug-In . SVG Version: 6.00 Build 0)  -->
<!DOCTYPE svg PUBLIC "-//W3C//DTD SVG 1.1//EN" "http://www.w3.org/Graphics/SVG/1.1/DTD/svg11.dtd">
<svg version="1.1" id="Слой_1" xmlns="http://www.w3.org/2000/svg" xmlns:xlink="http://www.w3.org/1999/xlink" x="0px" y="0px"
	 width="42.52px" height="28.346px" viewBox="0 0 42.52 28.346" enable-background="new 0 0 42.52 28.346" xml:space="preserve">
<rect x="0.198" y="25.181" fill="#F6A607" width="42.321" height="2.049"/>
<rect x="2.314" y="16.65" fill="#F6A607" width="6.282" height="6.282"/>
<rect x="34.121" y="16.65" fill="#F6A607" width="6.282" height="6.282"/>
<polygon fill="#F6A607" points="33.791,10.55 33.791,14.402 42.388,14.402 32.006,3.888 27.811,3.888 "/>
<polygon fill="#F6A607" points="8.662,10.55 14.643,3.888 10.514,3.888 0,14.402 8.662,14.402 "/>
<path fill="#F6A607" d="M21.227-0.411L10.778,11.228v11.639h8.398v-8.531h4.232v8.531h8.266V11.228L21.227-0.411z M17.061,17.972
	h-4.232v-4.628h4.232V17.972z M29.691,17.972h-4.232v-4.628h4.232V17.972z"/>
</svg>
