<?xml version="1.0" encoding="utf-8"?>
<!-- Generator: Adobe Illustrator 15.1.0, SVG Export Plug-In . SVG Version: 6.00 Build 0)  -->
<!DOCTYPE svg PUBLIC "-//W3C//DTD SVG 1.1//EN" "http://www.w3.org/Graphics/SVG/1.1/DTD/svg11.dtd">
<svg version="1.1" id="Слой_1" xmlns="http://www.w3.org/2000/svg" xmlns:xlink="http://www.w3.org/1999/xlink" x="0px" y="0px"
	 width="32.153px" height="42.52px" viewBox="0 0 32.153 42.52" enable-background="new 0 0 32.153 42.52" xml:space="preserve">
<rect x="0" y="40.368" fill="#F6A607" width="31.755" height="2.152"/>
<circle fill="#F6A607" cx="20.317" cy="3.903" r="3.902"/>
<path fill="#F6A607" d="M17.761,9.15c0,0-5.382-0.269-9.15,5.651s-2.96,9.15-0.269,8.342c1.729-0.519,1.346-6.458,4.037-7.804
	s-1.076,6.728,0,8.612c1.077,1.884,9.688,11.033,11.302,13.455c2.153,3.229,5.113,0.27,2.961-1.884l-9.15-11.841
	c0,0,1.077-8.342,1.615-7.804c1.615,2.422,6.189,6.19,10.227,5.382c0,0,1.884-2.153-1.615-2.691
	c-3.498-0.539-7.266-6.459-7.535-8.073C19.913,8.881,18.299,8.881,17.761,9.15z"/>
<g>
	<path fill="#F6A607" d="M12.333,26.573c-0.394,0.248-0.687,0.646-0.753,1.141c-0.915,6.832-5.098,8.643-5.31,8.729
		c-0.824,0.325-1.234,1.254-0.916,2.082c0.247,0.642,0.859,1.035,1.507,1.035c0.193,0,0.389-0.035,0.579-0.107
		c0.24-0.093,5.619-2.268,7.138-10.152C13.846,28.378,13.086,27.478,12.333,26.573z"/>
</g>
<path fill="#F6A607" d="M26.546,33.639l0.947,1.226c0.275,0.272,0.478,0.593,0.639,0.928h3.758v-2.153H26.546z"/>
<g>
	<path fill="#F6A607" d="M13.145,35.792h7.884c-0.554-0.655-1.183-1.384-1.855-2.153h-4.837
		C13.971,34.441,13.567,35.156,13.145,35.792z"/>
	<path fill="#F6A607" d="M5.876,35.441c0.072-0.03,1.104-0.497,2.194-1.802H0v2.153h5.334C5.509,35.667,5.667,35.523,5.876,35.441z"
		/>
</g>
</svg>
