<?xml version="1.0" encoding="utf-8"?>
<!-- Generator: Adobe Illustrator 15.1.0, SVG Export Plug-In . SVG Version: 6.00 Build 0)  -->
<!DOCTYPE svg PUBLIC "-//W3C//DTD SVG 1.1//EN" "http://www.w3.org/Graphics/SVG/1.1/DTD/svg11.dtd">
<svg version="1.1" id="Слой_1" xmlns="http://www.w3.org/2000/svg" xmlns:xlink="http://www.w3.org/1999/xlink" x="0px" y="0px"
	 width="42.52px" height="37.27px" viewBox="0 0 42.52 37.27" enable-background="new 0 0 42.52 37.27" xml:space="preserve">
<g>
	<path fill="#F6A607" d="M38.549,37.113h-0.73c-5.713,0-7.953-5.823-8.045-6.07c-0.17-0.457-0.865-0.941-1.355-0.941H14.102
		c-0.488,0-1.185,0.484-1.355,0.941c-0.092,0.247-2.332,6.07-8.043,6.07H4.062C1.781,37.113,0,35.313,0,33.1V4.013
		C0,1.8,1.781,0,3.971,0h0.732c5.431,0,7.673,5.217,7.766,5.438c0.197,0.473,0.949,0.974,1.461,0.974h14.66
		c0.514,0,1.264-0.501,1.461-0.974C30.145,5.217,32.387,0,37.818,0h0.641c2.279,0,4.061,1.8,4.061,4.013V33.1
		C42.52,35.313,40.738,37.113,38.549,37.113z M14.102,26.55h14.316c1.977,0,3.99,1.396,4.684,3.249
		c0.055,0.146,1.484,3.763,4.717,3.763h0.73c0.229,0,0.42-0.211,0.42-0.462V4.013c0-0.25-0.191-0.462-0.42-0.462h-0.73
		c-3.047,0-4.438,3.133-4.494,3.268c-0.748,1.789-2.785,3.146-4.734,3.146H13.93c-1.949,0-3.987-1.356-4.739-3.156
		C9.138,6.684,7.748,3.551,4.703,3.551H4.062c-0.319,0-0.511,0.211-0.511,0.462V33.1c0,0.251,0.192,0.462,0.419,0.462h0.732
		c3.231,0,4.66-3.616,4.719-3.77C10.111,27.947,12.125,26.55,14.102,26.55z"/>
</g>
</svg>
