<?xml version="1.0" encoding="utf-8"?>
<!-- Generator: Adobe Illustrator 15.1.0, SVG Export Plug-In . SVG Version: 6.00 Build 0)  -->
<!DOCTYPE svg PUBLIC "-//W3C//DTD SVG 1.1//EN" "http://www.w3.org/Graphics/SVG/1.1/DTD/svg11.dtd">
<svg version="1.1" id="Слой_1" xmlns="http://www.w3.org/2000/svg" xmlns:xlink="http://www.w3.org/1999/xlink" x="0px" y="0px"
	 width="42.52px" height="41.664px" viewBox="0 0 42.52 41.664" enable-background="new 0 0 42.52 41.664" xml:space="preserve">
<path fill="#F6A607" d="M21.26,4.634l7.633,4.407l0.002,6.902v2.315l2.005,1.158l7.606,4.392l0.002,8.813l-7.635,4.408l-7.606-4.393
	l-2.007-1.158l-2.007,1.158l-7.606,4.393l-7.632-4.408l-0.003-8.813l7.61-4.392l2.006-1.159V15.94l-0.003-6.899L21.26,4.634
	 M21.26,0L9.614,6.725l0.002,9.217L0,21.493l0.002,13.445l11.645,6.725l9.613-5.551l9.613,5.551l11.646-6.725l-0.002-13.446
	l-9.611-5.55l-0.002-9.218L21.26,0L21.26,0z"/>
</svg>
