<?xml version="1.0" encoding="utf-8"?>
<!-- Generator: Adobe Illustrator 15.1.0, SVG Export Plug-In . SVG Version: 6.00 Build 0)  -->
<!DOCTYPE svg PUBLIC "-//W3C//DTD SVG 1.1//EN" "http://www.w3.org/Graphics/SVG/1.1/DTD/svg11.dtd">
<svg version="1.1" id="Слой_1" xmlns="http://www.w3.org/2000/svg" xmlns:xlink="http://www.w3.org/1999/xlink" x="0px" y="0px"
	 width="42.52px" height="28.347px" viewBox="0 0 42.52 28.347" enable-background="new 0 0 42.52 28.347" xml:space="preserve">
<g>
	<path fill="#F6A607" d="M33.536,26.943c-1.983,0-3.251-1.207-4.177-2.089c-0.856-0.817-1.338-1.243-2.102-1.243
		c-1.997,0-2.713,0.522-3.702,1.245c-0.861,0.628-1.933,1.409-3.716,1.793c-0.54,0.114-1.094,0.173-1.646,0.173
		c-2.958,0-5.349-1.641-6.777-2.62c-0.322-0.223-0.581-0.416-0.781-0.51c-0.091,0.024-0.616,0.233-0.999,0.385
		c-0.929,0.368-2.2,0.873-3.788,0.873c-0.581,0-1.171-0.068-1.754-0.202c-1.932-0.446-3.345-2.15-3.88-4.675
		c-0.535-2.532-0.107-5.823,1.749-7.214c0.847-0.636,1.221-2.096,1.338-2.816C2.37,6.81,3.108,4.827,3.915,3.721
		C4.919,2.342,6.561,1.55,8.417,1.55c1.185,0,2.278,0.346,3.002,0.948l0.354,0.303c0.871,0.756,1.957,1.697,3.562,1.697
		c1.063,0,2.272-0.409,3.597-1.215c1.691-1.03,3.096-1.51,4.419-1.51c1.725,0,2.918,0.833,3.877,1.501
		c1.156,0.808,2.079,1.408,4.06,1.167c1.193-0.149,2.093-0.324,2.827-0.465c1.828-0.355,3.135-0.488,4.705,0.097
		c1.995,0.749,3.267,3.228,3.604,5.215c0.307,1.812-0.105,3.292-1.16,4.172c-1.353,1.126-2.001,1.666-2.169,3.675
		c-0.043,0.512,0.124,1.177,0.298,1.88c0.488,1.968,1.398,5.631-3.906,7.561C34.814,26.82,34.159,26.943,33.536,26.943z
		 M27.257,19.822c2.314,0,3.704,1.323,4.717,2.289c1.086,1.034,1.367,1.215,2.215,0.903c2.1-0.763,2.011-1.117,1.522-3.085
		c-0.229-0.925-0.49-1.974-0.394-3.107c0.294-3.547,1.934-4.953,3.4-6.174c0.184-0.742-0.62-2.752-1.236-3.027
		c-0.817-0.308-1.351-0.175-2.651,0.076c-0.797,0.154-1.776,0.343-3.075,0.505c-3.52,0.439-5.369-0.892-6.7-1.82
		c-0.792-0.553-1.195-0.819-1.706-0.819c-0.583,0-1.406,0.322-2.449,0.957c-1.927,1.173-3.799,1.768-5.566,1.768
		c-3.018,0-4.986-1.706-6.045-2.623L8.991,5.409c0.004,0.012-0.213-0.069-0.574-0.069c-0.232,0-1.025,0.044-1.439,0.614
		C6.522,6.577,6.542,7.764,7.035,9.294l0.113,0.354L7.12,10.02c-0.031,0.402-0.375,3.989-2.885,5.871
		c-0.294,0.294-0.71,2.033-0.228,3.746c0.22,0.781,0.588,1.337,0.938,1.418c1.206,0.277,2.237-0.081,3.293-0.5
		c1.199-0.477,2.643-0.88,3.896-0.342c0.442,0.188,0.877,0.486,1.427,0.864c1.396,0.958,3.454,2.304,5.484,1.865
		c0.993-0.212,1.532-0.604,2.276-1.147C22.526,20.916,24.025,19.822,27.257,19.822z"/>
</g>
</svg>
