<?xml version="1.0" encoding="utf-8"?>
<!-- Generator: Adobe Illustrator 15.1.0, SVG Export Plug-In . SVG Version: 6.00 Build 0)  -->
<!DOCTYPE svg PUBLIC "-//W3C//DTD SVG 1.1//EN" "http://www.w3.org/Graphics/SVG/1.1/DTD/svg11.dtd">
<svg version="1.1" id="Слой_1" xmlns="http://www.w3.org/2000/svg" xmlns:xlink="http://www.w3.org/1999/xlink" x="0px" y="0px"
	 width="42.52px" height="42.52px" viewBox="0 0 42.52 42.52" enable-background="new 0 0 42.52 42.52" xml:space="preserve">
<path fill="#61696B" d="M35.435,26.078l5.655-5.258c1.218-1.186,1.68-2.483,1.3-3.654c-0.38-1.171-1.526-1.951-3.244-2.2
	l-8.096-0.829c-1.898-0.276-1.898-0.276-2.805-2.125l-3.911-7.836c-0.752-1.524-1.844-2.364-3.074-2.364s-2.325,0.844-3.084,2.383
	l-3.425,7.292c-0.274,0.556-0.453,0.992-0.594,1.338c-0.279,0.684-0.279,0.684-1.688,0.889l-9.142,1.257
	c-1.683,0.245-2.819,1.023-3.2,2.194s0.091,2.477,1.34,3.692l5.479,4.803c1.623,1.582,1.764,2.022,1.376,4.284l-1.223,8.339
	c-0.236,1.379-0.015,2.518,0.64,3.294c0.921,1.095,2.618,1.227,4.33,0.327l8.214-4.251c0.337-0.178,0.607-0.327,0.878-0.478
	c0.133-0.074,0.266-0.148,0.367-0.206c0.067,0.04,0.145,0.09,0.219,0.136c0.277,0.171,0.651,0.401,1.181,0.679l7.512,4.117
	c0.781,0.41,1.526,0.618,2.214,0.618c0.869,0,1.603-0.325,2.122-0.941c0.654-0.776,0.876-1.911,0.641-3.28l-1.36-8.661
	C33.73,27.732,33.859,27.607,35.435,26.078z M31.949,29.984l1.36,8.661c0.143,0.833,0.007,1.35-0.167,1.557
	c-0.245,0.289-0.94,0.211-1.691-0.183l-7.512-4.117c-0.488-0.256-0.82-0.462-1.067-0.614c-0.432-0.268-0.806-0.498-1.314-0.498
	c-0.499,0-0.869,0.206-1.484,0.547c-0.209,0.116-0.464,0.258-0.778,0.423l-8.213,4.25c-0.779,0.409-1.46,0.486-1.708,0.192
	c-0.226-0.268-0.287-0.857-0.163-1.582l1.223-8.339c0.508-2.964,0.149-4.06-2.037-6.188l-5.479-4.803
	c-0.578-0.563-0.869-1.124-0.758-1.464c0.111-0.34,0.674-0.623,1.467-0.738l9.142-1.258c2.283-0.332,2.724-0.619,3.367-2.198
	c0.126-0.311,0.285-0.701,0.54-1.217l3.425-7.292c0.357-0.724,0.801-1.174,1.159-1.174c0.357,0,0.801,0.451,1.16,1.178l3.719,7.446
	l0.188,0.382c1.088,2.218,1.531,2.877,4.46,3.302l8.097,0.829c0.799,0.116,1.363,0.399,1.474,0.74
	c0.11,0.339-0.175,0.896-0.739,1.445l-5.391,5l-0.275,0.267C32.223,26.216,31.434,26.982,31.949,29.984z"/>
</svg>
