<?xml version="1.0" encoding="utf-8"?>
<!-- Generator: Adobe Illustrator 15.1.0, SVG Export Plug-In . SVG Version: 6.00 Build 0)  -->
<!DOCTYPE svg PUBLIC "-//W3C//DTD SVG 1.1//EN" "http://www.w3.org/Graphics/SVG/1.1/DTD/svg11.dtd">
<svg version="1.1" id="Слой_1" xmlns="http://www.w3.org/2000/svg" xmlns:xlink="http://www.w3.org/1999/xlink" x="0px" y="0px"
	 width="42.52px" height="37.5px" viewBox="0 0 42.52 37.5" enable-background="new 0 0 42.52 37.5" xml:space="preserve">
<path fill="#F6A607" d="M21.26,0.132L10.492,10.875V5.939H6.957v8.462L0,21.34h4.975V37.5h13.597v-7.891
	c0-1.641,1.398-2.967,3.125-2.967s3.125,1.326,3.125,2.967V37.5h12.725V21.34h4.975L21.26,0.132z M14.652,28.127
	c0,1.691-1.369,3.061-3.058,3.061c-1.69,0-3.059-1.369-3.059-3.061v-2.275c0-1.691,1.369-3.059,3.059-3.059
	c1.688,0,3.058,1.367,3.058,3.059V28.127z M34.783,28.127c0,1.691-1.369,3.061-3.06,3.061s-3.057-1.369-3.057-3.061v-2.275
	c0-1.691,1.366-3.059,3.057-3.059s3.06,1.367,3.06,3.059V28.127z"/>
</svg>
