<?xml version="1.0" encoding="utf-8"?>
<!-- Generator: Adobe Illustrator 15.1.0, SVG Export Plug-In . SVG Version: 6.00 Build 0)  -->
<!DOCTYPE svg PUBLIC "-//W3C//DTD SVG 1.1//EN" "http://www.w3.org/Graphics/SVG/1.1/DTD/svg11.dtd">
<svg version="1.1" id="Слой_1" xmlns="http://www.w3.org/2000/svg" xmlns:xlink="http://www.w3.org/1999/xlink" x="0px" y="0px"
	 width="42.52px" height="42.52px" viewBox="0 0 42.52 42.52" enable-background="new 0 0 42.52 42.52" xml:space="preserve">
<circle fill="#FEC853" cx="21.262" cy="21.26" r="21.258"/>
<g>
	<g>
		<path fill="#5F7277" d="M19.715,24.194c0-1.072,0.218-2.019,0.647-2.84c0.434-0.819,1.19-1.65,2.284-2.493
			c0.762-0.61,1.276-1.119,1.549-1.529c0.272-0.411,0.408-0.87,0.408-1.374c0-0.821-0.285-1.468-0.868-1.94
			c-0.574-0.475-1.391-0.71-2.441-0.71c-0.805,0-1.608,0.185-2.43,0.553s-1.587,0.857-2.306,1.468l-1.608-1.896
			c0.902-0.84,1.936-1.508,3.093-2.004c1.157-0.494,2.345-0.74,3.565-0.74c1.136,0,2.153,0.196,3.063,0.583
			c0.901,0.39,1.612,0.964,2.127,1.721c0.515,0.757,0.774,1.661,0.774,2.712c0,1.011-0.195,1.87-0.583,2.572
			c-0.392,0.706-1.067,1.396-2.033,2.067c-0.655,0.464-1.17,0.911-1.549,1.343s-0.646,0.894-0.804,1.389
			c-0.162,0.494-0.238,1.068-0.238,1.719v0.317l-2.651,0.251V24.194z M20,31.565c-0.314-0.179-0.565-0.421-0.74-0.726
			c-0.183-0.307-0.272-0.638-0.272-0.995s0.09-0.689,0.272-0.996c0.175-0.304,0.426-0.547,0.74-0.726
			c0.315-0.179,0.651-0.268,1.009-0.268s0.693,0.089,1.013,0.268c0.314,0.179,0.562,0.422,0.74,0.726
			c0.179,0.307,0.268,0.639,0.268,0.996s-0.089,0.688-0.268,0.995c-0.179,0.305-0.426,0.547-0.74,0.726
			c-0.319,0.177-0.655,0.268-1.013,0.268S20.315,31.742,20,31.565z"/>
	</g>
</g>
</svg>
