<?xml version="1.0" encoding="utf-8"?>
<!-- Generator: Adobe Illustrator 15.1.0, SVG Export Plug-In . SVG Version: 6.00 Build 0)  -->
<!DOCTYPE svg PUBLIC "-//W3C//DTD SVG 1.1//EN" "http://www.w3.org/Graphics/SVG/1.1/DTD/svg11.dtd">
<svg version="1.1" id="Слой_1" xmlns="http://www.w3.org/2000/svg" xmlns:xlink="http://www.w3.org/1999/xlink" x="0px" y="0px"
	 width="42.52px" height="37.5px" viewBox="0 0 42.52 37.5" enable-background="new 0 0 42.52 37.5" xml:space="preserve">
<path fill="#FFFFFF" d="M33.408,15.655V0.216H0v30.458h21.328c1.646,4.005,5.583,6.826,10.182,6.826c6.08,0,11.01-4.93,11.01-11.01
	C42.52,21.059,38.582,16.555,33.408,15.655z M22.946,2.686h7.991v4.733h-7.991V2.686z M12.931,2.686h7.546v10.739l-3.536-2.829
	l-4.01,2.954V2.686z M2.47,2.686h7.991v4.733H2.47V2.686z M2.47,28.205V9.889h7.991v8.549l6.418-4.729l6.067,4.854V9.889h7.991v5.62
	C25.125,15.808,20.5,20.602,20.5,26.49c0,0.584,0.059,1.154,0.146,1.715H2.47z M36.963,28.75c0,2.025-1.785,3.674-3.979,3.674
	h-6.174v-3.04h6.174c0.378,0,0.686-0.284,0.686-0.634v-2.531c0-0.35-0.308-0.635-0.686-0.635h-1.92v2.313l-5.008-3.637l5.008-3.704
	v1.989h1.92c2.193,0,3.979,1.648,3.979,3.674V28.75z"/>
</svg>
