<?xml version="1.0" encoding="utf-8"?>
<!-- Generator: Adobe Illustrator 15.1.0, SVG Export Plug-In . SVG Version: 6.00 Build 0)  -->
<!DOCTYPE svg PUBLIC "-//W3C//DTD SVG 1.1//EN" "http://www.w3.org/Graphics/SVG/1.1/DTD/svg11.dtd">
<svg version="1.1" xmlns="http://www.w3.org/2000/svg" xmlns:xlink="http://www.w3.org/1999/xlink" x="0px" y="0px" width="42.52px"
	 height="25px" viewBox="0 0 42.52 25" enable-background="new 0 0 42.52 25" xml:space="preserve">
<g id="Слой_1">
</g>
<g id="Capa_1">
	<g>
		<g>
			<g>
				<path fill="#61696B" d="M42.141,22.175c-0.114-0.191-0.821-1.728-4.223-4.885c-3.562-3.307-3.084-2.77,1.206-8.486
					c2.612-3.481,3.657-5.607,3.33-6.517c-0.312-0.866-2.232-0.638-2.232-0.638l-6.39,0.037c0,0-0.473-0.063-0.826,0.146
					c-0.343,0.207-0.563,0.686-0.563,0.686S31.43,5.214,30.08,7.504c-2.846,4.835-3.986,5.09-4.451,4.79
					c-1.082-0.699-0.811-2.813-0.811-4.312c0-4.686,0.709-6.639-1.385-7.144c-0.697-0.167-1.207-0.279-2.984-0.298
					c-2.281-0.023-4.213,0.008-5.305,0.542c-0.729,0.356-1.289,1.151-0.947,1.196c0.424,0.056,1.38,0.258,1.888,0.949
					c0.656,0.89,0.632,2.894,0.632,2.894s0.378,5.515-0.879,6.2c-0.863,0.471-2.047-0.488-4.585-4.876
					c-1.3-2.246-2.282-4.731-2.282-4.731S8.781,2.253,8.443,2.006C8.035,1.706,7.461,1.61,7.461,1.61L1.385,1.647
					c0,0-0.911,0.027-1.246,0.423c-0.297,0.354-0.023,1.082-0.023,1.082s4.757,11.127,10.141,16.737
					c4.941,5.143,10.549,4.806,10.549,4.806h2.541c0,0,0.768-0.085,1.158-0.508c0.361-0.388,0.349-1.116,0.349-1.116
					s-0.051-3.41,1.533-3.912c1.56-0.494,3.563,3.296,5.688,4.755c1.605,1.103,2.825,0.86,2.825,0.86l5.68-0.079
					C40.578,24.695,43.549,24.511,42.141,22.175z"/>
			</g>
		</g>
	</g>
</g>
</svg>
