<?xml version="1.0" encoding="utf-8"?>
<!-- Generator: Adobe Illustrator 15.1.0, SVG Export Plug-In . SVG Version: 6.00 Build 0)  -->
<!DOCTYPE svg PUBLIC "-//W3C//DTD SVG 1.1//EN" "http://www.w3.org/Graphics/SVG/1.1/DTD/svg11.dtd">
<svg version="1.1" id="Слой_1" xmlns="http://www.w3.org/2000/svg" xmlns:xlink="http://www.w3.org/1999/xlink" x="0px" y="0px"
	 width="85.04px" height="85.039px" viewBox="0 0 85.04 85.039" enable-background="new 0 0 85.04 85.039" xml:space="preserve">
<path fill="#929799" d="M51.523,42.518L83.27,10.767c2.465-2.461,2.465-6.457,0-8.918c-2.465-2.465-6.46-2.465-8.925,0
	L42.597,33.593L10.848,1.849c-2.461-2.465-6.461-2.465-8.922,0c-2.465,2.461-2.465,6.457,0,8.918l31.748,31.751L1.926,74.266
	c-2.465,2.465-2.465,6.46,0,8.925c1.23,1.232,2.846,1.849,4.461,1.849s3.23-0.616,4.461-1.849l31.749-31.747L74.345,83.19
	c1.232,1.232,2.849,1.849,4.462,1.849c1.614,0,3.23-0.616,4.463-1.849c2.465-2.465,2.465-6.46,0-8.925L51.523,42.518z"/>
</svg>
