<?xml version="1.0" encoding="utf-8"?>
<!-- Generator: Adobe Illustrator 15.1.0, SVG Export Plug-In . SVG Version: 6.00 Build 0)  -->
<!DOCTYPE svg PUBLIC "-//W3C//DTD SVG 1.1//EN" "http://www.w3.org/Graphics/SVG/1.1/DTD/svg11.dtd">
<svg version="1.1" id="Слой_1" xmlns="http://www.w3.org/2000/svg" xmlns:xlink="http://www.w3.org/1999/xlink" x="0px" y="0px"
	 width="85.04px" height="85.04px" viewBox="0 0 85.04 85.04" enable-background="new 0 0 85.04 85.04" xml:space="preserve">
<path fill="#FFFFFF" d="M79.967,13.04H5.074c-2.801,0-5.073,2.273-5.073,5.075v48.032c0,2.805,2.272,5.077,5.073,5.077h74.893
	c2.801,0,5.073-2.272,5.073-5.077V18.115C85.04,15.313,82.768,13.04,79.967,13.04z M78.418,64.603H6.624V29.775l30.032,27.826
	c2.626,2.504,5.011,3.759,7.396,3.759c2.434,0,4.864-1.31,7.557-3.938l26.81-27.554V64.603z M78.418,20.369L46.919,52.743
	c-2.737,2.672-2.947,2.682-5.728,0.029L6.624,20.742v-1.077h71.794V20.369z"/>
</svg>
