<?xml version="1.0" encoding="utf-8"?>
<!-- Generator: Adobe Illustrator 15.1.0, SVG Export Plug-In . SVG Version: 6.00 Build 0)  -->
<!DOCTYPE svg PUBLIC "-//W3C//DTD SVG 1.1//EN" "http://www.w3.org/Graphics/SVG/1.1/DTD/svg11.dtd">
<svg version="1.1" id="Слой_1" xmlns="http://www.w3.org/2000/svg" xmlns:xlink="http://www.w3.org/1999/xlink" x="0px" y="0px"
	 width="36.851px" height="42.52px" viewBox="0 0 36.851 42.52" enable-background="new 0 0 36.851 42.52" xml:space="preserve">
<g>
	<path fill="#F6A607" d="M-215.331,202.922c-1.983,0-3.251-1.207-4.177-2.089c-0.856-0.817-1.338-1.243-2.102-1.243
		c-1.997,0-2.713,0.522-3.702,1.245c-0.861,0.628-1.933,1.409-3.716,1.793c-0.54,0.114-1.094,0.173-1.646,0.173
		c-2.958,0-5.349-1.641-6.777-2.62c-0.322-0.223-0.581-0.416-0.781-0.51c-0.091,0.024-0.616,0.233-0.999,0.385
		c-0.929,0.368-2.2,0.873-3.788,0.873c-0.581,0-1.171-0.068-1.754-0.202c-1.932-0.446-3.345-2.15-3.88-4.675
		c-0.535-2.532-0.107-5.823,1.749-7.214c0.847-0.636,1.221-2.096,1.338-2.816c-0.931-3.233-0.192-5.217,0.614-6.322
		c1.004-1.379,2.646-2.171,4.501-2.171c1.185,0,2.278,0.347,3.002,0.948l0.354,0.303c0.871,0.756,1.957,1.697,3.562,1.697
		c1.063,0,2.272-0.41,3.597-1.215c1.691-1.03,3.096-1.51,4.419-1.51c1.725,0,2.918,0.832,3.877,1.501
		c1.156,0.808,2.079,1.408,4.06,1.167c1.193-0.148,2.093-0.323,2.827-0.465c1.828-0.355,3.135-0.488,4.705,0.098
		c1.995,0.748,3.267,3.228,3.604,5.215c0.307,1.812-0.105,3.293-1.16,4.172c-1.353,1.127-2.001,1.666-2.169,3.676
		c-0.043,0.512,0.124,1.177,0.298,1.88c0.488,1.968,1.398,5.631-3.906,7.561C-214.053,202.799-214.708,202.922-215.331,202.922z
		 M-221.609,195.801c2.314,0,3.704,1.323,4.717,2.289c1.086,1.034,1.367,1.215,2.215,0.903c2.1-0.763,2.011-1.117,1.522-3.085
		c-0.229-0.925-0.49-1.974-0.394-3.107c0.294-3.547,1.934-4.953,3.4-6.174c0.184-0.742-0.62-2.753-1.236-3.027
		c-0.817-0.309-1.351-0.176-2.651,0.076c-0.797,0.154-1.776,0.343-3.075,0.504c-3.52,0.439-5.369-0.891-6.7-1.819
		c-0.792-0.554-1.195-0.819-1.706-0.819c-0.583,0-1.406,0.322-2.449,0.957c-1.927,1.172-3.799,1.768-5.566,1.768
		c-3.018,0-4.986-1.706-6.045-2.623l-0.298-0.256c0.004,0.013-0.213-0.068-0.574-0.068c-0.232,0-1.025,0.044-1.439,0.613
		c-0.455,0.624-0.435,1.811,0.058,3.342l0.113,0.354l-0.028,0.371c-0.031,0.402-0.375,3.99-2.885,5.871
		c-0.294,0.294-0.71,2.033-0.228,3.746c0.22,0.781,0.588,1.337,0.938,1.418c1.206,0.277,2.237-0.081,3.293-0.5
		c1.199-0.477,2.643-0.88,3.896-0.342c0.442,0.188,0.877,0.486,1.427,0.864c1.396,0.958,3.454,2.304,5.484,1.865
		c0.993-0.212,1.532-0.604,2.276-1.147C-226.341,196.895-224.842,195.801-221.609,195.801z"/>
</g>
<path fill="#F6A607" d="M33.376,13.849c-1.226-1.34-3.002-2.323-4.938-2.968l1.591-4.67c5.521-4.567,0.544-5.981,0.544-5.981
	c-5.17-1.572-2.709,5.43-2.709,5.43l-1.593,4.673c-3.423-0.61-6.989-0.117-9.016,1.86C13.594,15.766,3.333,28.815,0,32.148
	c0,0,12.939,10.372,24.53,10.372c10.128,0,11.903,0,12.156,0l-0.261-20.566C36.426,21.954,37.124,17.946,33.376,13.849z"/>
</svg>
