<?xml version="1.0" encoding="utf-8"?>
<!-- Generator: Adobe Illustrator 15.1.0, SVG Export Plug-In . SVG Version: 6.00 Build 0)  -->
<!DOCTYPE svg PUBLIC "-//W3C//DTD SVG 1.1//EN" "http://www.w3.org/Graphics/SVG/1.1/DTD/svg11.dtd">
<svg version="1.1" id="Слой_1" xmlns="http://www.w3.org/2000/svg" xmlns:xlink="http://www.w3.org/1999/xlink" x="0px" y="0px"
	 width="85.04px" height="85.04px" viewBox="0 0 85.04 85.04" enable-background="new 0 0 85.04 85.04" xml:space="preserve">
<g>
	<polygon fill="#FFFFFF" points="39.045,36.911 43.001,31.535 39.894,31.535 36.36,36.699 36.36,31.535 33.737,31.535 
		33.737,42.514 36.36,42.514 36.36,37.376 40.126,42.514 43.658,42.514 	"/>
	<polygon fill="#FFFFFF" points="47.338,33.864 51.378,33.864 51.378,31.535 44.713,31.535 44.713,42.514 47.338,42.514 	"/>
	<path fill="#FFFFFF" d="M79.847,59.021h2.865v-2.865l0.375-0.375V53.66l-0.375,0.373v-1.016H49.684l17.801-16.442
		c0.841-0.733,1.372-1.813,1.372-3.015c0-2.21-1.788-4.003-3.997-4.003h-0.012H59.09v-5.06c0-2.21-1.79-4.002-4.002-4.002H41.494
		h-10.11h-2.439c-2.21,0-4.002,1.792-4.002,4.002v5.06h-5.758c-1.648,0-3.128,1.01-3.729,2.545c-0.598,1.534-0.197,3.28,1.013,4.398
		l17.881,16.516H1.322v6.004h2.65l-3.025,3.025v2.123l5.147-5.148h5.252L0.947,69.424v2.121L13.47,59.021h5.253L0.947,76.797v2.123
		l19.898-19.898h5.253L6.085,79.035H1.322v6.004h81.39v-6.004h-0.755l1.13-1.127v-2.123l-3.252,3.25h-5.252l8.504-8.502V68.41
		L72.461,79.035h-5.252l15.878-15.877v-2.123l-18,18h-5.254L79.847,59.021z M57.71,79.035h-5.253l20.014-20.014h5.253L57.71,79.035z
		 M40.848,59.021L20.834,79.035h-5.252l20.014-20.014H40.848z M42.97,59.021h5.254L28.21,79.035h-5.254L42.97,59.021z
		 M50.346,59.021H55.6L35.586,79.035h-5.254L50.346,59.021z M57.722,59.021h5.252L42.96,79.035h-5.252L57.722,59.021z
		 M65.097,59.021h5.251L50.334,79.035h-5.251L65.097,59.021z M19.185,33.561h9.76v-9.063h2.439h10.11h13.594v9.063h9.76
		L43.783,53.018h-3.534L19.185,33.561z M28.222,59.021h5.252L13.46,79.035H8.208L28.222,59.021z"/>
	<path fill="#FFFFFF" d="M28.706,16.699h2.941v-2.428h1.728v-2.806h-1.728V0.308h-2.474l-7.543,11.534v2.429h7.075V16.699z
		 M24.783,11.465l3.923-6.163v6.163H24.783z"/>
	<path fill="#FFFFFF" d="M37.394,15.508c1.108,1.06,2.457,1.59,4.042,1.59c0.806,0,1.575-0.158,2.309-0.476
		c0.734-0.316,1.349-0.759,1.849-1.325c0.854-0.973,1.282-2.295,1.282-3.968V5.77c0-0.866-0.129-1.653-0.383-2.363
		c-0.255-0.708-0.626-1.319-1.114-1.833s-1.071-0.904-1.743-1.171C42.958,0.135,42.208,0,41.383,0s-1.614,0.16-2.373,0.479
		c-0.758,0.319-1.376,0.76-1.849,1.323c-0.855,0.969-1.284,2.292-1.284,3.967v5.417c0,1.044,0.115,1.891,0.342,2.537
		C36.446,14.369,36.839,14.964,37.394,15.508z M38.842,5.815c0-0.935,0.223-1.659,0.669-2.172c0.447-0.513,1.07-0.769,1.872-0.769
		c0.496,0,0.935,0.118,1.315,0.356c0.381,0.237,0.678,0.571,0.894,1c0.211,0.43,0.318,0.919,0.318,1.471v5.462
		c0,0.977-0.189,1.693-0.565,2.15c-0.508,0.607-1.17,0.912-1.983,0.912c-0.806,0-1.46-0.289-1.96-0.867
		c-0.374-0.452-0.56-1.199-0.56-2.24V5.815z"/>
	<path fill="#FFFFFF" d="M50.983,15.508c1.11,1.06,2.458,1.59,4.042,1.59c0.805,0,1.575-0.158,2.31-0.476
		c0.733-0.316,1.349-0.759,1.847-1.325c0.854-0.973,1.284-2.295,1.284-3.968V5.77c0-0.866-0.129-1.653-0.383-2.363
		c-0.254-0.708-0.625-1.319-1.114-1.833c-0.488-0.513-1.07-0.904-1.745-1.171C56.55,0.135,55.799,0,54.975,0
		c-0.825,0-1.615,0.16-2.373,0.479c-0.759,0.319-1.376,0.76-1.851,1.323c-0.856,0.969-1.284,2.292-1.284,3.967v5.417
		c0,1.044,0.115,1.891,0.344,2.537C50.037,14.369,50.428,14.964,50.983,15.508z M52.434,5.815c0-0.935,0.223-1.659,0.668-2.172
		c0.446-0.513,1.071-0.769,1.873-0.769c0.494,0,0.932,0.118,1.313,0.356c0.384,0.237,0.681,0.571,0.894,1
		c0.213,0.43,0.318,0.919,0.318,1.471v5.462c0,0.977-0.188,1.693-0.563,2.15c-0.51,0.607-1.173,0.912-1.985,0.912
		c-0.806,0-1.458-0.289-1.961-0.867c-0.373-0.452-0.557-1.199-0.557-2.24V5.815z"/>
</g>
</svg>
