<?xml version="1.0" encoding="utf-8"?>
<!-- Generator: Adobe Illustrator 15.1.0, SVG Export Plug-In . SVG Version: 6.00 Build 0)  -->
<!DOCTYPE svg PUBLIC "-//W3C//DTD SVG 1.1//EN" "http://www.w3.org/Graphics/SVG/1.1/DTD/svg11.dtd">
<svg version="1.1" id="Слой_1" xmlns="http://www.w3.org/2000/svg" xmlns:xlink="http://www.w3.org/1999/xlink" x="0px" y="0px"
	 width="85.04px" height="85.04px" viewBox="0 0 85.04 85.04" enable-background="new 0 0 85.04 85.04" xml:space="preserve">
<g>
	<path fill="#FFFFFF" d="M15.381,44.744c1.413-0.1,9.329-0.201,16.431-0.242c1.031-0.006,2.007-0.457,2.681-1.237l4.578-5.31
		c0.193-0.001,0.381-0.038,0.571-0.063l9.359,5.993l-6.82,11.816c-0.984,1.707-0.399,3.891,1.306,4.875
		c0.563,0.324,1.176,0.479,1.782,0.479c1.23,0,2.432-0.641,3.092-1.785l8.522-14.768c0.955-1.652,0.441-3.761-1.166-4.789
		l-10.509-6.731l8.186-10.606l3.171,6.315c0.507,1.009,1.538,1.639,2.657,1.639c0.07,0,0.14-0.002,0.212-0.007l13.7-0.973
		c1.638-0.116,2.872-1.539,2.756-3.176s-1.513-2.852-3.178-2.756L60.99,24.25l-4.151-8.27c-0.079-1.326-0.688-2.615-1.823-3.491
		c-1.018-0.789-2.256-1.091-3.445-0.956L38.48,7.235c-1.07-0.353-2.248-0.07-3.041,0.734L26.309,17.2
		c-1.154,1.167-1.146,3.05,0.023,4.205c1.166,1.156,3.05,1.143,4.204-0.023l7.838-7.923l7.886,2.59l-10.999,14.25
		c-0.518,0.67-0.806,1.436-0.92,2.217l-4.192,4.86c-16.195,0.101-16.272,0.15-17.378,0.885c-1.641,1.089-2.089,3.304-0.999,4.945
		C12.584,44.428,14.021,44.982,15.381,44.744z"/>
	<circle fill="#FFFFFF" cx="60.335" cy="6.144" r="6.144"/>
	<path fill="#FFFFFF" d="M30.403,70.271C18.808,66.207,7.606,63.828,18.41,56.297c0,0-13.18,3.963-9.515,9.018
		c3.417,4.711,18.237,10.508,16.354,13.381c-2.088,3.186-7.531,6.244-7.531,6.244h16.849C34.566,84.939,42,74.336,30.403,70.271z"/>
	<path fill="#FFFFFF" d="M66.679,73.443c-9.515-1.684-26.758-7.234-22.2-11.596c0,0-10.307,3.566-4.758,7.035
		c5.55,3.471,23.49,9.219,20.813,16.156h14.667C75.201,85.039,76.193,75.127,66.679,73.443z"/>
</g>
</svg>
