<?xml version="1.0" encoding="utf-8"?>
<!-- Generator: Adobe Illustrator 15.1.0, SVG Export Plug-In . SVG Version: 6.00 Build 0)  -->
<!DOCTYPE svg PUBLIC "-//W3C//DTD SVG 1.1//EN" "http://www.w3.org/Graphics/SVG/1.1/DTD/svg11.dtd">
<svg version="1.1" id="Слой_1" xmlns="http://www.w3.org/2000/svg" xmlns:xlink="http://www.w3.org/1999/xlink" x="0px" y="0px"
	 width="42.52px" height="42.52px" viewBox="0 0 42.52 42.52" enable-background="new 0 0 42.52 42.52" xml:space="preserve">
<path fill="#FFFFFF" d="M39.137,17.583l-0.144-0.28c-0.524-1.048-1.827-1.746-6.481-1.746c-1.321,0-2.485,0.059-2.911,0.084
	c-0.983-0.17-2.111-0.565-2.272-0.677c-0.062-0.362,0.228-1.664,0.459-2.709c0.398-1.786,0.893-4.008,1.073-6.623
	c0.116-1.682-0.298-3.041-1.229-4.039C26.403,0.276,24.649,0,23.396,0c-0.64,0-1.073,0.074-1.073,0.074l-0.88,0.149L21.15,1.055
	c-1.833,5.25-5.117,14.118-6.12,15.568c-0.455,0.655-0.919,0.913-1.398,1.009c-0.462-1.8-2.152-3.145-4.177-3.145H4.313
	C1.934,14.487,0,16.336,0,18.609v19.792c0,2.271,1.934,4.119,4.313,4.119h5.142c1.594,0,2.972-0.84,3.719-2.068
	c2.084,1.702,4.913,1.737,5.074,1.737h0.031l0.033-0.002c0.061-0.002,7.752-0.328,11.481-0.165l0.317,0.008
	c3.638,0,5.24-2.784,5.645-4.461c0.354-0.698,1.229-2.7,3.148-8.334C41.415,21.869,39.935,19.082,39.137,17.583z M10.783,38.401
	c0,0.623-0.595,1.133-1.328,1.133H4.313c-0.733,0-1.328-0.51-1.328-1.133V18.609c0-0.626,0.595-1.136,1.328-1.136h5.142
	c0.733,0,1.328,0.51,1.328,1.136V38.401z M36.077,28.27c-2.282,6.693-2.986,7.949-2.982,7.949l-0.163,0.261l-0.058,0.287
	c-0.078,0.38-0.572,2.272-2.94,2.272c-0.004,0-0.006,0-0.008,0c-3.671-0.165-11.058,0.137-11.697,0.164
	c-0.268-0.01-3.089-0.148-3.962-2.107V20.572c0.966-0.204,2.197-0.773,3.217-2.251c1.378-1.987,4.971-11.994,6.151-15.329
	c0.561,0.025,1.361,0.153,1.813,0.639c0.345,0.368,0.49,0.973,0.434,1.795c-0.165,2.391-0.634,4.493-1.009,6.181
	c-0.414,1.862-0.688,3.093-0.443,4.071c0.52,2.069,3.583,2.744,4.876,2.938l0.159,0.023l0.161-0.01
	c0.02-0.002,1.335-0.088,2.886-0.088c2.637,0,3.632,0.245,3.946,0.354l0.043,0.086C37.127,20.16,38.169,22.127,36.077,28.27z"/>
</svg>
