<?xml version="1.0" encoding="utf-8"?>
<!-- Generator: Adobe Illustrator 15.1.0, SVG Export Plug-In . SVG Version: 6.00 Build 0)  -->
<!DOCTYPE svg PUBLIC "-//W3C//DTD SVG 1.1//EN" "http://www.w3.org/Graphics/SVG/1.1/DTD/svg11.dtd">
<svg version="1.1" id="Слой_1" xmlns="http://www.w3.org/2000/svg" xmlns:xlink="http://www.w3.org/1999/xlink" x="0px" y="0px"
	 width="85.04px" height="76.292px" viewBox="0 0 85.04 76.292" enable-background="new 0 0 85.04 76.292" xml:space="preserve">
<g>
	<path fill="#61696B" d="M40.704,51.85l-1.767-17.571v-7.35h7.162v7.35L44.428,51.85H40.704z M39.194,60.079v-4.637h6.648v4.637
		H39.194z"/>
</g>
<g>
	<path fill="#61696B" d="M74.741,76.291H10.298c-4.175,0-7.527-1.66-9.197-4.552c-1.671-2.895-1.431-6.627,0.656-10.241
		L33.979,5.687C36.065,2.072,39.178,0,42.52,0c3.338,0,6.452,2.072,8.538,5.687l32.225,55.812c2.088,3.614,2.326,7.347,0.656,10.241
		C82.27,74.631,78.915,76.291,74.741,76.291z M42.52,6.962c-0.763,0-1.726,0.846-2.512,2.205L7.786,64.979
		C7,66.342,6.749,67.598,7.13,68.256c0.381,0.661,1.594,1.073,3.167,1.073h64.443c1.572,0,2.785-0.412,3.165-1.073
		c0.383-0.658,0.131-1.914-0.653-3.277L45.034,9.167C44.244,7.809,43.282,6.962,42.52,6.962z"/>
</g>
</svg>
