<?xml version="1.0" encoding="utf-8"?>
<!-- Generator: Adobe Illustrator 15.1.0, SVG Export Plug-In . SVG Version: 6.00 Build 0)  -->
<!DOCTYPE svg PUBLIC "-//W3C//DTD SVG 1.1//EN" "http://www.w3.org/Graphics/SVG/1.1/DTD/svg11.dtd">
<svg version="1.1" id="Слой_1" xmlns="http://www.w3.org/2000/svg" xmlns:xlink="http://www.w3.org/1999/xlink" x="0px" y="0px"
	 width="42.52px" height="42.52px" viewBox="0 0 42.52 42.52" enable-background="new 0 0 42.52 42.52" xml:space="preserve">
<path fill="#61696B" d="M9.25,1.101L1.6,9.708c-0.123,0.138-0.229,0.285-0.326,0.437l-0.07,0.083
	c-1.807,2.029-1.551,5.203,0.569,7.088l24.671,21.938c2.107,1.877,5.268,1.768,7.079-0.234c0.184-0.134,0.356-0.289,0.517-0.465
	l7.651-8.609c1.204-1.354,1.081-3.426-0.271-4.629l-8.609-7.652c-1.352-1.204-3.424-1.083-4.628,0.27l-3.193,3.417l-5.421-4.819
	l3.193-3.418c1.202-1.353,1.081-3.426-0.271-4.628l-8.609-7.655C12.528-0.375,10.454-0.253,9.25,1.101L9.25,1.101z"/>
</svg>
