<?xml version="1.0" encoding="utf-8"?>
<!-- Generator: Adobe Illustrator 15.1.0, SVG Export Plug-In . SVG Version: 6.00 Build 0)  -->
<!DOCTYPE svg PUBLIC "-//W3C//DTD SVG 1.1//EN" "http://www.w3.org/Graphics/SVG/1.1/DTD/svg11.dtd">
<svg version="1.1" id="Слой_1" xmlns="http://www.w3.org/2000/svg" xmlns:xlink="http://www.w3.org/1999/xlink" x="0px" y="0px"
	 width="85.04px" height="85.039px" viewBox="0 0 85.04 85.039" enable-background="new 0 0 85.04 85.039" xml:space="preserve">
<path fill="#61696B" d="M20.489-0.146C9.173-0.146,0,9.026,0,20.339c0,11.316,9.172,20.488,20.488,20.488
	c11.313,0,20.485-9.172,20.485-20.488C40.974,9.026,31.802-0.146,20.489-0.146z M28.92,22.584h-6.18v6.187
	c0,1.241-1.007,2.249-2.249,2.249s-2.249-1.007-2.249-2.249v-6.187h-6.187c-1.241,0-2.249-1.007-2.249-2.249
	c0-1.241,1.007-2.249,2.249-2.249h6.187v-6.18c0-1.242,1.007-2.249,2.249-2.249s2.249,1.007,2.249,2.249v6.18h6.18
	c1.242,0,2.249,1.007,2.249,2.249C31.169,21.578,30.162,22.584,28.92,22.584z"/>
<path fill="#61696B" d="M64.554-0.146c-11.314,0-20.487,9.173-20.487,20.485c0,11.316,9.173,20.488,20.487,20.488
	c11.313,0,20.485-9.172,20.485-20.488C85.04,9.026,75.868-0.146,64.554-0.146z M72.987,22.587H56.123
	c-1.241,0-2.249-1.007-2.249-2.249c0-1.241,1.008-2.249,2.249-2.249h16.864c1.24,0,2.248,1.007,2.248,2.249
	C75.235,21.581,74.227,22.587,72.987,22.587z"/>
<path fill="#61696B" d="M64.554,44.068c-11.314,0-20.487,9.173-20.487,20.485s9.173,20.485,20.487,20.485
	c11.313,0,20.485-9.173,20.485-20.485S75.868,44.068,64.554,44.068z M72.987,71.58H56.123c-1.241,0-2.249-1.007-2.249-2.248
	s1.008-2.249,2.249-2.249h16.864c1.24,0,2.248,1.008,2.248,2.249S74.227,71.58,72.987,71.58z M72.987,62.024H56.123
	c-1.241,0-2.249-1.007-2.249-2.249c0-1.241,1.008-2.248,2.249-2.248h16.864c1.24,0,2.248,1.007,2.248,2.248
	C75.235,61.018,74.227,62.024,72.987,62.024z"/>
<path fill="#61696B" d="M20.489,44.068C9.173,44.068,0,53.241,0,64.554s9.172,20.485,20.488,20.485
	c11.313,0,20.485-9.173,20.485-20.485S31.802,44.068,20.489,44.068z M27.55,72.564c-0.427,0.377-0.957,0.562-1.484,0.562
	c-0.624,0-1.244-0.258-1.689-0.761l-3.824-4.339l-3.666,4.477c-0.445,0.544-1.092,0.825-1.742,0.825c-0.5,0-1.004-0.167-1.423-0.509
	c-0.96-0.788-1.104-2.205-0.316-3.165l4.131-5.048l-4.313-4.893c-0.823-0.931-0.732-2.351,0.199-3.173
	c0.934-0.823,2.354-0.729,3.174,0.198l3.827,4.342l3.666-4.476c0.785-0.964,2.199-1.104,3.165-0.316
	c0.96,0.787,1.101,2.204,0.316,3.165l-4.131,5.047l4.31,4.89C28.572,70.324,28.481,71.744,27.55,72.564z"/>
</svg>
