<?xml version="1.0" encoding="utf-8"?>
<!-- Generator: Adobe Illustrator 15.1.0, SVG Export Plug-In . SVG Version: 6.00 Build 0)  -->
<!DOCTYPE svg PUBLIC "-//W3C//DTD SVG 1.1//EN" "http://www.w3.org/Graphics/SVG/1.1/DTD/svg11.dtd">
<svg version="1.1" id="Слой_1" xmlns="http://www.w3.org/2000/svg" xmlns:xlink="http://www.w3.org/1999/xlink" x="0px" y="0px"
	 width="85.04px" height="80.368px" viewBox="0 0 85.04 80.368" enable-background="new 0 0 85.04 80.368" xml:space="preserve">
<g>
	<g>
		<path fill="#FFFFFF" d="M6.669,37.101h23.761c3.683,0,6.67-2.986,6.67-6.67V6.67c0-3.684-2.987-6.67-6.67-6.67H6.669
			C2.986,0,0,2.986,0,6.67v23.761C0,34.114,2.986,37.101,6.669,37.101z M6.669,6.67h23.761v23.761H6.669V6.67z"/>
		<path fill="#FFFFFF" d="M52.635,34.88c0.596,1.032,1.696,1.667,2.889,1.667h17.01c1.191,0,2.293-0.635,2.889-1.667l8.503-14.73
			c0.597-1.032,0.597-2.303,0-3.335l-8.503-14.73c-0.596-1.033-1.697-1.667-2.889-1.667h-17.01c-1.192,0-2.293,0.635-2.889,1.667
			l-8.506,14.73c-0.594,1.032-0.594,2.303,0,3.335L52.635,34.88z M57.448,7.087h13.161l6.579,11.395l-6.579,11.396H57.448
			L50.87,18.481L57.448,7.087z"/>
		<path fill="#FFFFFF" d="M20.336,53.769c0-5.237-4.261-9.497-9.498-9.497s-9.499,4.26-9.499,9.497c0,3.399,1.811,6.363,4.502,8.044
			C3.151,63.49,1.34,66.457,1.34,69.854c0,5.236,4.262,9.5,9.499,9.5s9.498-4.264,9.498-9.5c0-3.396-1.811-6.363-4.502-8.041
			C18.526,60.132,20.336,57.168,20.336,53.769z M10.838,49.606c2.301,0,4.162,1.862,4.162,4.162c0,2.299-1.861,4.162-4.162,4.162
			c-2.298,0-4.162-1.863-4.162-4.162C6.676,51.469,8.541,49.606,10.838,49.606z M10.838,74.016c-2.298,0-4.162-1.863-4.162-4.162
			c0-2.303,1.864-4.162,4.162-4.162c2.301,0,4.162,1.859,4.162,4.162C15,72.152,13.139,74.016,10.838,74.016z"/>
		<path fill="#FFFFFF" d="M73.996,44.535c-2.667,0-5.351,0.916-7.976,2.713l-5.367,3.688c-1.143,0.788-2.938,1.257-4.794,1.257
			s-3.651-0.469-4.794-1.257l-5.367-3.688c-2.623-1.797-5.305-2.713-7.976-2.713c-3.39,0-6.492,1.554-8.51,4.257
			c-1.658,2.222-2.534,5.152-2.534,8.468v10.382c0,8.741,5.727,12.728,11.048,12.728c2.667,0,5.348-0.912,7.971-2.709l5.361-3.681
			c1.146-0.785,2.94-1.254,4.8-1.254c1.86,0,3.654,0.469,4.801,1.254l5.36,3.681c2.621,1.797,5.302,2.709,7.973,2.709
			c5.321,0,11.047-3.986,11.047-12.728V57.26C85.04,48.519,79.314,44.535,73.996,44.535z M78.37,67.642
			c0,3.876-1.771,6.058-4.377,6.058c-1.244,0-2.678-0.495-4.198-1.54l-5.36-3.677c-2.357-1.619-5.469-2.427-8.575-2.427
			s-6.217,0.808-8.575,2.427l-5.36,3.677c-1.522,1.045-2.954,1.54-4.196,1.54c-2.608,0-4.378-2.182-4.378-6.058V57.26
			c0-3.872,1.769-6.055,4.374-6.055c1.243,0,2.676,0.499,4.198,1.541l5.367,3.687c2.357,1.622,5.465,2.43,8.571,2.43
			s6.214-0.808,8.571-2.43l5.367-3.687c1.524-1.042,2.957-1.541,4.198-1.541c2.605,0,4.374,2.183,4.374,6.055V67.642z"/>
	</g>
</g>
</svg>
