<?xml version="1.0" encoding="utf-8"?>
<!-- Generator: Adobe Illustrator 20.1.0, SVG Export Plug-In . SVG Version: 6.00 Build 0)  -->
<svg version="1.1" id="Слой_1" xmlns="http://www.w3.org/2000/svg" xmlns:xlink="http://www.w3.org/1999/xlink" x="0px" y="0px"
	 viewBox="0 0 42.5 33.2" style="enable-background:new 0 0 42.5 33.2;" xml:space="preserve">
<style type="text/css">
	.st0{fill:#00AB5B;}
</style>
<path class="st0" d="M1.2,17.3l1.4,15.9h4.5c0,0,0.3-9.3,2.9-12.5C10,20.7,5,15.7,1.2,17.3z"/>
<path class="st0" d="M4.8,0c0,0-4.7,3.3-4.8,8.1c-0.1,4.8,0.3,5.6,0.3,5.6s17.6,7.5,27.1,19.5h15.1c0,0,0-1.9-0.3-3.1
	c-0.5-2-0.7-3.4-7.2-5s-8.4-5.3-8.4-5.3S24,15.4,16.9,6.8C14.2,3.4,11,0,4.8,0z"/>
</svg>
