<?xml version="1.0" encoding="utf-8"?>
<!-- Generator: Adobe Illustrator 15.1.0, SVG Export Plug-In . SVG Version: 6.00 Build 0)  -->
<!DOCTYPE svg PUBLIC "-//W3C//DTD SVG 1.1//EN" "http://www.w3.org/Graphics/SVG/1.1/DTD/svg11.dtd">
<svg version="1.1" id="Слой_1" xmlns="http://www.w3.org/2000/svg" xmlns:xlink="http://www.w3.org/1999/xlink" x="0px" y="0px"
	 width="42.52px" height="42.52px" viewBox="0 0 42.52 42.52" enable-background="new 0 0 42.52 42.52" xml:space="preserve">
<symbol  id="Новый_символ" viewBox="-1.391 -1.406 2.781 2.813">
	<polygon fill="#A0AAB1" points="-0.453,0.469 -1.391,0.469 -1.391,1.406 -0.453,1.406 	"/>
	<polygon fill="#B4BFC2" points="0.484,0.469 -0.453,0.469 -0.453,1.406 0.484,1.406 	"/>
	<polygon fill="#C6CBCD" points="1.391,0.469 0.453,0.469 0.453,1.406 1.391,1.406 	"/>
	<polygon fill="#D5DADB" points="-0.453,-0.469 -1.391,-0.469 -1.391,0.469 -0.453,0.469 	"/>
	<polygon fill="#A0AAB1" points="0.484,-0.469 -0.453,-0.469 -0.453,0.469 0.484,0.469 	"/>
	<polygon fill="#B4BFC2" points="1.391,-0.469 0.453,-0.469 0.453,0.469 1.391,0.469 	"/>
	<polygon fill="#C8CED0" points="-0.453,-1.406 -1.391,-1.406 -1.391,-0.469 -0.453,-0.469 	"/>
	<polygon fill="#D9DDDF" points="0.484,-1.406 -0.453,-1.406 -0.453,-0.469 0.484,-0.469 	"/>
	<polygon fill="#818E95" points="1.391,-1.406 0.453,-1.406 0.453,-0.469 1.391,-0.469 	"/>
</symbol>
<image overflow="visible" width="40" height="40" xlink:href="DE266DB8.jpg"  transform="matrix(0.9999 0 0 0.9999 -8170 -8170.48)">
</image>
<circle fill="#A0AAB1" cx="20.938" cy="21.031" r="19.906"/>
<g>
	<defs>
		<circle id="SVGID_1_" cx="20.938" cy="21.031" r="19.906"/>
	</defs>
	<clipPath id="SVGID_2_">
		<use xlink:href="#SVGID_1_"  overflow="visible"/>
	</clipPath>
	<g clip-path="url(#SVGID_2_)">
		
			<use xlink:href="#Новый_символ"  width="2.781" height="2.813" x="-1.391" y="-1.406" transform="matrix(1 0 0 -1 29.6338 26.3672)" overflow="visible"/>
		
			<use xlink:href="#Новый_символ"  width="2.781" height="2.813" x="-1.391" y="-1.406" transform="matrix(1 0 0 -1 29.5156 33.0898)" overflow="visible"/>
		
			<use xlink:href="#Новый_символ"  width="2.781" height="2.813" x="-1.391" y="-1.406" transform="matrix(1 0 0 -1 9.9844 33.0898)" overflow="visible"/>
		
			<use xlink:href="#Новый_символ"  width="2.781" height="2.813" x="-1.391" y="-1.406" transform="matrix(1 0 0 -1 37.3281 33.0898)" overflow="visible"/>
		
			<use xlink:href="#Новый_символ"  width="2.781" height="2.813" x="-1.391" y="-1.406" transform="matrix(1 0 0 -1 6.0781 33.0898)" overflow="visible"/>
		
			<use xlink:href="#Новый_символ"  width="2.781" height="2.813" x="-1.391" y="-1.406" transform="matrix(1 0 0 -1 39.4531 13.4399)" overflow="visible"/>
		
			<use xlink:href="#Новый_символ"  width="2.781" height="2.813" x="-1.391" y="-1.406" transform="matrix(1 0 0 -1 36.3594 13.4399)" overflow="visible"/>
		
			<use xlink:href="#Новый_символ"  width="2.781" height="2.813" x="-1.391" y="-1.406" transform="matrix(1 0 0 -1 30.7031 10.4395)" overflow="visible"/>
		
			<use xlink:href="#Новый_символ"  width="2.781" height="2.813" x="-1.391" y="-1.406" transform="matrix(1 0 0 -1 16.4839 4.8125)" overflow="visible"/>
		
			<use xlink:href="#Новый_символ"  width="2.781" height="2.813" x="-1.391" y="-1.406" transform="matrix(1 0 0 -1 17.3511 1.6465)" overflow="visible"/>
		
			<use xlink:href="#Новый_символ"  width="2.781" height="2.813" x="-1.391" y="-1.406" transform="matrix(1 0 0 -1 20.0854 4.8125)" overflow="visible"/>
		
			<use xlink:href="#Новый_символ"  width="2.781" height="2.813" x="-1.391" y="-1.406" transform="matrix(1 0 0 -1 18.373 26.3672)" overflow="visible"/>
		
			<use xlink:href="#Новый_символ"  width="2.781" height="2.813" x="-1.391" y="-1.406" transform="matrix(1 0 0 -1 24.2559 1.792)" overflow="visible"/>
		
			<use xlink:href="#Новый_символ"  width="2.781" height="2.813" x="-1.391" y="-1.406" transform="matrix(1 0 0 -1 33.3057 7.5938)" overflow="visible"/>
		
			<use xlink:href="#Новый_символ"  width="2.781" height="2.813" x="-1.391" y="-1.406" transform="matrix(1 0 0 -1 28.2344 29.6729)" overflow="visible"/>
		
			<use xlink:href="#Новый_символ"  width="2.781" height="2.813" x="-1.391" y="-1.406" transform="matrix(1 0 0 -1 13.8906 33.0898)" overflow="visible"/>
		
			<use xlink:href="#Новый_символ"  width="2.781" height="2.813" x="-1.391" y="-1.406" transform="matrix(1 0 0 -1 24.3037 29.6729)" overflow="visible"/>
		
			<use xlink:href="#Новый_символ"  width="2.781" height="2.813" x="-1.391" y="-1.406" transform="matrix(1 0 0 -1 20.3721 29.6729)" overflow="visible"/>
		
			<use xlink:href="#Новый_символ"  width="2.781" height="2.813" x="-1.391" y="-1.406" transform="matrix(1 0 0 -1 16.4404 29.6729)" overflow="visible"/>
		
			<use xlink:href="#Новый_символ"  width="2.781" height="2.813" x="-1.391" y="-1.406" transform="matrix(1 0 0 -1 33.4219 33.0898)" overflow="visible"/>
		
			<use xlink:href="#Новый_символ"  width="2.781" height="2.813" x="-1.391" y="-1.406" transform="matrix(1 0 0 -1 36.3281 16.4434)" overflow="visible"/>
		
			<use xlink:href="#Новый_символ"  width="2.781" height="2.813" x="-1.391" y="-1.406" transform="matrix(1 0 0 -1 39.4531 16.4434)" overflow="visible"/>
		
			<use xlink:href="#Новый_символ"  width="2.781" height="2.813" x="-1.391" y="-1.406" transform="matrix(1 0 0 -1 9.2803 4.8125)" overflow="visible"/>
		
			<use xlink:href="#Новый_символ"  width="2.781" height="2.813" x="-1.391" y="-1.406" transform="matrix(1 0 0 -1 8.7158 7.5938)" overflow="visible"/>
		
			<use xlink:href="#Новый_символ"  width="2.781" height="2.813" x="-1.391" y="-1.406" transform="matrix(1 0 0 -1 14.8633 7.5938)" overflow="visible"/>
		
			<use xlink:href="#Новый_символ"  width="2.781" height="2.813" x="-1.391" y="-1.406" transform="matrix(1 0 0 -1 23.6875 4.8125)" overflow="visible"/>
		
			<use xlink:href="#Новый_символ"  width="2.781" height="2.813" x="-1.391" y="-1.406" transform="matrix(1 0 0 -1 28.0684 1.855)" overflow="visible"/>
		
			<use xlink:href="#Новый_символ"  width="2.781" height="2.813" x="-1.391" y="-1.406" transform="matrix(1 0 0 -1 32.166 29.6729)" overflow="visible"/>
		
			<use xlink:href="#Новый_символ"  width="2.781" height="2.813" x="-1.391" y="-1.406" transform="matrix(1 0 0 -1 14.6196 26.3672)" overflow="visible"/>
		
			<use xlink:href="#Новый_символ"  width="2.781" height="2.813" x="-1.391" y="-1.406" transform="matrix(1 0 0 -1 13.2021 10.4395)" overflow="visible"/>
		
			<use xlink:href="#Новый_символ"  width="2.781" height="2.813" x="-1.391" y="-1.406" transform="matrix(1 0 0 -1 12.7598 23.1611)" overflow="visible"/>
		
			<use xlink:href="#Новый_символ"  width="2.781" height="2.813" x="-1.391" y="-1.406" transform="matrix(1 0 0 -1 9.3638 23.1611)" overflow="visible"/>
		
			<use xlink:href="#Новый_символ"  width="2.781" height="2.813" x="-1.391" y="-1.406" transform="matrix(1 0 0 -1 11.7896 7.5938)" overflow="visible"/>
		
			<use xlink:href="#Новый_символ"  width="2.781" height="2.813" x="-1.391" y="-1.406" transform="matrix(1 0 0 -1 33.2666 13.4399)" overflow="visible"/>
		
			<use xlink:href="#Новый_символ"  width="2.781" height="2.813" x="-1.391" y="-1.406" transform="matrix(1 0 0 -1 25.6094 33.0898)" overflow="visible"/>
		
			<use xlink:href="#Новый_символ"  width="2.781" height="2.813" x="-1.391" y="-1.406" transform="matrix(1 0 0 -1 21.7031 33.0898)" overflow="visible"/>
		
			<use xlink:href="#Новый_символ"  width="2.781" height="2.813" x="-1.391" y="-1.406" transform="matrix(1 0 0 -1 17.7969 33.0898)" overflow="visible"/>
		
			<use xlink:href="#Новый_символ"  width="2.781" height="2.813" x="-1.391" y="-1.406" transform="matrix(1 0 0 -1 31.3906 36.25)" overflow="visible"/>
		
			<use xlink:href="#Новый_символ"  width="2.781" height="2.813" x="-1.391" y="-1.406" transform="matrix(1 0 0 -1 11.8594 36.25)" overflow="visible"/>
		
			<use xlink:href="#Новый_символ"  width="2.781" height="2.813" x="-1.391" y="-1.406" transform="matrix(1 0 0 -1 7.9531 36.25)" overflow="visible"/>
		
			<use xlink:href="#Новый_символ"  width="2.781" height="2.813" x="-1.391" y="-1.406" transform="matrix(1 0 0 -1 15.7656 36.25)" overflow="visible"/>
		
			<use xlink:href="#Новый_символ"  width="2.781" height="2.813" x="-1.391" y="-1.406" transform="matrix(1 0 0 -1 35.2969 36.25)" overflow="visible"/>
		
			<use xlink:href="#Новый_символ"  width="2.781" height="2.813" x="-1.391" y="-1.406" transform="matrix(1 0 0 -1 27.4844 36.25)" overflow="visible"/>
		
			<use xlink:href="#Новый_символ"  width="2.781" height="2.813" x="-1.391" y="-1.406" transform="matrix(1 0 0 -1 23.5781 36.25)" overflow="visible"/>
		
			<use xlink:href="#Новый_символ"  width="2.781" height="2.813" x="-1.391" y="-1.406" transform="matrix(1 0 0 -1 19.6719 36.25)" overflow="visible"/>
		
			<use xlink:href="#Новый_символ"  width="2.781" height="2.813" x="-1.391" y="-1.406" transform="matrix(1 0 0 -1 17.2656 39.4688)" overflow="visible"/>
		
			<use xlink:href="#Новый_символ"  width="2.781" height="2.813" x="-1.391" y="-1.406" transform="matrix(1 0 0 -1 13.3594 39.4688)" overflow="visible"/>
		
			<use xlink:href="#Новый_символ"  width="2.781" height="2.813" x="-1.391" y="-1.406" transform="matrix(1 0 0 -1 21.1719 39.4688)" overflow="visible"/>
		
			<use xlink:href="#Новый_символ"  width="2.781" height="2.813" x="-1.391" y="-1.406" transform="matrix(1 0 0 -1 28.9844 39.4688)" overflow="visible"/>
		
			<use xlink:href="#Новый_символ"  width="2.781" height="2.813" x="-1.391" y="-1.406" transform="matrix(1 0 0 -1 25.0781 39.4688)" overflow="visible"/>
		
			<use xlink:href="#Новый_символ"  width="2.781" height="2.813" x="-1.391" y="-1.406" transform="matrix(1 0 0 -1 20.6738 1.8135)" overflow="visible"/>
		
			<use xlink:href="#Новый_символ"  width="2.781" height="2.813" x="-1.391" y="-1.406" transform="matrix(1 0 0 -1 8.8271 10.4395)" overflow="visible"/>
		
			<use xlink:href="#Новый_символ"  width="2.781" height="2.813" x="-1.391" y="-1.406" transform="matrix(1 0 0 -1 18.3315 16.5059)" overflow="visible"/>
		
			<use xlink:href="#Новый_символ"  width="2.781" height="2.813" x="-1.391" y="-1.406" transform="matrix(1 0 0 -1 14.5825 16.5059)" overflow="visible"/>
		
			<use xlink:href="#Новый_символ"  width="2.781" height="2.813" x="-1.391" y="-1.406" transform="matrix(1 0 0 -1 20.8931 13.4399)" overflow="visible"/>
		
			<use xlink:href="#Новый_символ"  width="2.781" height="2.813" x="-1.391" y="-1.406" transform="matrix(1 0 0 -1 24.084 7.5938)" overflow="visible"/>
		
			<use xlink:href="#Новый_символ"  width="2.781" height="2.813" x="-1.391" y="-1.406" transform="matrix(1 0 0 -1 27.1582 7.5938)" overflow="visible"/>
		
			<use xlink:href="#Новый_символ"  width="2.781" height="2.813" x="-1.391" y="-1.406" transform="matrix(1 0 0 -1 26.7656 19.7769)" overflow="visible"/>
		
			<use xlink:href="#Новый_символ"  width="2.781" height="2.813" x="-1.391" y="-1.406" transform="matrix(1 0 0 -1 16.1563 23.1611)" overflow="visible"/>
		
			<use xlink:href="#Новый_символ"  width="2.781" height="2.813" x="-1.391" y="-1.406" transform="matrix(1 0 0 -1 17.937 7.5938)" overflow="visible"/>
		
			<use xlink:href="#Новый_символ"  width="2.781" height="2.813" x="-1.391" y="-1.406" transform="matrix(1 0 0 -1 35.2246 19.7769)" overflow="visible"/>
		
			<use xlink:href="#Новый_символ"  width="2.781" height="2.813" x="-1.391" y="-1.406" transform="matrix(1 0 0 -1 8.5195 13.4399)" overflow="visible"/>
		
			<use xlink:href="#Новый_символ"  width="2.781" height="2.813" x="-1.391" y="-1.406" transform="matrix(1 0 0 -1 29.5801 16.5059)" overflow="visible"/>
		
			<use xlink:href="#Новый_символ"  width="2.781" height="2.813" x="-1.391" y="-1.406" transform="matrix(1 0 0 -1 23.9863 13.4399)" overflow="visible"/>
		
			<use xlink:href="#Новый_символ"  width="2.781" height="2.813" x="-1.391" y="-1.406" transform="matrix(1 0 0 -1 7.1128 26.3672)" overflow="visible"/>
		
			<use xlink:href="#Новый_символ"  width="2.781" height="2.813" x="-1.391" y="-1.406" transform="matrix(1 0 0 -1 12.5088 29.6729)" overflow="visible"/>
		
			<use xlink:href="#Новый_символ"  width="2.781" height="2.813" x="-1.391" y="-1.406" transform="matrix(1 0 0 -1 10.833 16.5059)" overflow="visible"/>
		
			<use xlink:href="#Новый_символ"  width="2.781" height="2.813" x="-1.391" y="-1.406" transform="matrix(1 0 0 -1 12.8818 4.8125)" overflow="visible"/>
		
			<use xlink:href="#Новый_символ"  width="2.781" height="2.813" x="-1.391" y="-1.406" transform="matrix(1 0 0 -1 11.6128 13.4399)" overflow="visible"/>
		
			<use xlink:href="#Новый_символ"  width="2.781" height="2.813" x="-1.391" y="-1.406" transform="matrix(1 0 0 -1 5.4263 13.4399)" overflow="visible"/>
		
			<use xlink:href="#Новый_символ"  width="2.781" height="2.813" x="-1.391" y="-1.406" transform="matrix(1 0 0 -1 30.2324 7.5938)" overflow="visible"/>
		
			<use xlink:href="#Новый_символ"  width="2.781" height="2.813" x="-1.391" y="-1.406" transform="matrix(1 0 0 -1 27.0801 13.4399)" overflow="visible"/>
		
			<use xlink:href="#Новый_символ"  width="2.781" height="2.813" x="-1.391" y="-1.406" transform="matrix(1 0 0 -1 22.5371 19.7769)" overflow="visible"/>
		
			<use xlink:href="#Новый_символ"  width="2.781" height="2.813" x="-1.391" y="-1.406" transform="matrix(1 0 0 -1 21.9526 10.4395)" overflow="visible"/>
		
			<use xlink:href="#Новый_символ"  width="2.781" height="2.813" x="-1.391" y="-1.406" transform="matrix(1 0 0 -1 14.7065 13.4399)" overflow="visible"/>
		
			<use xlink:href="#Новый_символ"  width="2.781" height="2.813" x="-1.391" y="-1.406" transform="matrix(1 0 0 -1 21.0107 7.5938)" overflow="visible"/>
		
			<use xlink:href="#Новый_символ"  width="2.781" height="2.813" x="-1.391" y="-1.406" transform="matrix(1 0 0 -1 17.7998 13.4399)" overflow="visible"/>
		
			<use xlink:href="#Новый_символ"  width="2.781" height="2.813" x="-1.391" y="-1.406" transform="matrix(1 0 0 -1 30.8906 4.8125)" overflow="visible"/>
		
			<use xlink:href="#Новый_символ"  width="2.781" height="2.813" x="-1.391" y="-1.406" transform="matrix(1 0 0 -1 26.3281 10.4395)" overflow="visible"/>
		
			<use xlink:href="#Новый_символ"  width="2.781" height="2.813" x="-1.391" y="-1.406" transform="matrix(1 0 0 -1 5.6421 7.5938)" overflow="visible"/>
		
			<use xlink:href="#Новый_символ"  width="2.781" height="2.813" x="-1.391" y="-1.406" transform="matrix(1 0 0 -1 25.8301 16.5059)" overflow="visible"/>
		
			<use xlink:href="#Новый_символ"  width="2.781" height="2.813" x="-1.391" y="-1.406" transform="matrix(1 0 0 -1 33.3281 16.5059)" overflow="visible"/>
		
			<use xlink:href="#Новый_символ"  width="2.781" height="2.813" x="-1.391" y="-1.406" transform="matrix(1 0 0 -1 17.5776 10.4395)" overflow="visible"/>
		
			<use xlink:href="#Новый_символ"  width="2.781" height="2.813" x="-1.391" y="-1.406" transform="matrix(1 0 0 -1 7.084 16.5059)" overflow="visible"/>
		
			<use xlink:href="#Новый_символ"  width="2.781" height="2.813" x="-1.391" y="-1.406" transform="matrix(1 0 0 -1 22.0811 16.5059)" overflow="visible"/>
		
			<use xlink:href="#Новый_символ"  width="2.781" height="2.813" x="-1.391" y="-1.406" transform="matrix(1 0 0 -1 3.3345 16.5059)" overflow="visible"/>
		
			<use xlink:href="#Новый_символ"  width="2.781" height="2.813" x="-1.391" y="-1.406" transform="matrix(1 0 0 -1 4.646 29.6729)" overflow="visible"/>
		
			<use xlink:href="#Новый_символ"  width="2.781" height="2.813" x="-1.391" y="-1.406" transform="matrix(1 0 0 -1 2.5708 23.1611)" overflow="visible"/>
		
			<use xlink:href="#Новый_символ"  width="2.781" height="2.813" x="-1.391" y="-1.406" transform="matrix(1 0 0 -1 35.3281 29.6875)" overflow="visible"/>
		
			<use xlink:href="#Новый_символ"  width="2.781" height="2.813" x="-1.391" y="-1.406" transform="matrix(1 0 0 -1 3.3594 26.3672)" overflow="visible"/>
		
			<use xlink:href="#Новый_символ"  width="2.781" height="2.813" x="-1.391" y="-1.406" transform="matrix(1 0 0 -1 2.333 13.4399)" overflow="visible"/>
		
			<use xlink:href="#Новый_символ"  width="2.781" height="2.813" x="-1.391" y="-1.406" transform="matrix(1 0 0 -1 1.3906 19.7769)" overflow="visible"/>
		
			<use xlink:href="#Новый_символ"  width="2.781" height="2.813" x="-1.391" y="-1.406" transform="matrix(1 0 0 -1 22.127 26.3672)" overflow="visible"/>
		
			<use xlink:href="#Новый_символ"  width="2.781" height="2.813" x="-1.391" y="-1.406" transform="matrix(1 0 0 -1 8.5776 29.6729)" overflow="visible"/>
		
			<use xlink:href="#Новый_символ"  width="2.781" height="2.813" x="-1.391" y="-1.406" transform="matrix(4.489659e-011 -1 -1 -4.489659e-011 5.6196 19.7769)" overflow="visible"/>
		
			<use xlink:href="#Новый_символ"  width="2.781" height="2.813" x="-1.391" y="-1.406" transform="matrix(1 0 0 -1 5.9673 23.1611)" overflow="visible"/>
		
			<use xlink:href="#Новый_символ"  width="2.781" height="2.813" x="-1.391" y="-1.406" transform="matrix(1 0 0 -1 9.8491 19.7769)" overflow="visible"/>
		
			<use xlink:href="#Новый_символ"  width="2.781" height="2.813" x="-1.391" y="-1.406" transform="matrix(1 0 0 -1 38.4531 29.7188)" overflow="visible"/>
		
			<use xlink:href="#Новый_символ"  width="2.781" height="2.813" x="-1.391" y="-1.406" transform="matrix(1 0 0 -1 4.4521 10.4395)" overflow="visible"/>
		
			<use xlink:href="#Новый_символ"  width="2.781" height="2.813" x="-1.391" y="-1.406" transform="matrix(1 0 0 -1 38.0781 10.5938)" overflow="visible"/>
		
			<use xlink:href="#Новый_символ"  width="2.781" height="2.813" x="-1.391" y="-1.406" transform="matrix(1 0 0 -1 39.4531 19.7769)" overflow="visible"/>
		
			<use xlink:href="#Новый_символ"  width="2.781" height="2.813" x="-1.391" y="-1.406" transform="matrix(1 0 0 -1 35.0781 10.4395)" overflow="visible"/>
		
			<use xlink:href="#Новый_символ"  width="2.781" height="2.813" x="-1.391" y="-1.406" transform="matrix(1 0 0 -1 33.1387 23.1611)" overflow="visible"/>
		
			<use xlink:href="#Новый_символ"  width="2.781" height="2.813" x="-1.391" y="-1.406" transform="matrix(1 0 0 -1 36.5352 23.1611)" overflow="visible"/>
		
			<use xlink:href="#Новый_символ"  width="2.781" height="2.813" x="-1.391" y="-1.406" transform="matrix(1 0 0 -1 39.4531 23.1611)" overflow="visible"/>
		
			<use xlink:href="#Новый_символ"  width="2.781" height="2.813" x="-1.391" y="-1.406" transform="matrix(1 0 0 -1 25.8809 26.3672)" overflow="visible"/>
		
			<use xlink:href="#Новый_символ"  width="2.781" height="2.813" x="-1.391" y="-1.406" transform="matrix(1 0 0 -1 10.8662 26.3672)" overflow="visible"/>
		
			<use xlink:href="#Новый_символ"  width="2.781" height="2.813" x="-1.391" y="-1.406" transform="matrix(1 0 0 -1 29.7422 23.1611)" overflow="visible"/>
		
			<use xlink:href="#Новый_символ"  width="2.781" height="2.813" x="-1.391" y="-1.406" transform="matrix(1 0 0 -1 26.3457 23.1611)" overflow="visible"/>
		
			<use xlink:href="#Новый_символ"  width="2.781" height="2.813" x="-1.391" y="-1.406" transform="matrix(1 0 0 -1 19.5527 23.1611)" overflow="visible"/>
		
			<use xlink:href="#Новый_символ"  width="2.781" height="2.813" x="-1.391" y="-1.406" transform="matrix(1 0 0 -1 18.3071 19.7769)" overflow="visible"/>
		
			<use xlink:href="#Новый_символ"  width="2.781" height="2.813" x="-1.391" y="-1.406" transform="matrix(1 0 0 -1 22.9492 23.1611)" overflow="visible"/>
		
			<use xlink:href="#Новый_символ"  width="2.781" height="2.813" x="-1.391" y="-1.406" transform="matrix(1 0 0 -1 33.3867 26.3672)" overflow="visible"/>
		
			<use xlink:href="#Новый_символ"  width="2.781" height="2.813" x="-1.391" y="-1.406" transform="matrix(1 0 0 -1 30.1729 13.4399)" overflow="visible"/>
		
			<use xlink:href="#Новый_символ"  width="2.781" height="2.813" x="-1.391" y="-1.406" transform="matrix(1 0 0 -1 36.5156 26.3672)" overflow="visible"/>
		
			<use xlink:href="#Новый_символ"  width="2.781" height="2.813" x="-1.391" y="-1.406" transform="matrix(1 0 0 -1 39.4531 26.2188)" overflow="visible"/>
		
			<use xlink:href="#Новый_символ"  width="2.781" height="2.813" x="-1.391" y="-1.406" transform="matrix(1 0 0 -1 36.3789 7.5938)" overflow="visible"/>
		
			<use xlink:href="#Новый_символ"  width="2.781" height="2.813" x="-1.391" y="-1.406" transform="matrix(1 0 0 -1 30.9941 19.7769)" overflow="visible"/>
		
			<use xlink:href="#Новый_символ"  width="2.781" height="2.813" x="-1.391" y="-1.406" transform="matrix(1 0 0 -1 14.0781 19.7769)" overflow="visible"/>
		
			<use xlink:href="#Новый_символ"  width="2.781" height="2.813" x="-1.391" y="-1.406" transform="matrix(1 0 0 -1 27.2891 4.8125)" overflow="visible"/>
		
			<use xlink:href="#Новый_символ"  width="2.781" height="2.813" x="-1.391" y="-1.406" transform="matrix(1 0 0 -1 14.3096 1.6465)" overflow="visible"/>
	</g>
</g>
</svg>
