<?xml version="1.0" encoding="utf-8"?>
<!-- Generator: Adobe Illustrator 15.1.0, SVG Export Plug-In . SVG Version: 6.00 Build 0)  -->
<!DOCTYPE svg PUBLIC "-//W3C//DTD SVG 1.1//EN" "http://www.w3.org/Graphics/SVG/1.1/DTD/svg11.dtd">
<svg version="1.1" id="Слой_1" xmlns="http://www.w3.org/2000/svg" xmlns:xlink="http://www.w3.org/1999/xlink" x="0px" y="0px"
	 width="71.259px" height="85.04px" viewBox="0 0 71.259 85.04" enable-background="new 0 0 71.259 85.04" xml:space="preserve">
<path fill="#FFFFFF" d="M30.46,5.384c0.357-0.193,0.804-0.06,0.997,0.297l10.406,19.243c0.194,0.356,0.06,0.804-0.297,0.997
	l-4.548,2.459l-3.624,1.96c0,0-0.533,0.428-0.632,0.757c-0.104,0.351,0.12,1.184,0.12,1.184l1.917,3.544l6.556,12.122l1.851,3.423
	c0,0,0.559,0.843,1.03,0.848c0.78,0.008,1.504-0.396,1.504-0.396l3.06-1.655l4.548-2.46c0.357-0.192,0.804-0.06,0.997,0.297
	l10.407,19.244c0.192,0.357,0.059,0.804-0.298,0.996L45.211,78.651c-0.043,0.023-0.091,0.042-0.148,0.059l-0.536,0.157l-0.496,0.263
	c-1.861,0.985-4.276,0.12-5.385-1.93L8.816,22.04c-1.118-2.067-0.509-4.571,1.359-5.581l0.183-0.099l0.399-0.216l0.359-0.28
	c0.072-0.056,0.105-0.076,0.101-0.074L30.46,5.384 M27.847,0.552L8.604,10.958c-0.309,0.167-0.592,0.361-0.86,0.57l-0.183,0.099
	c-4.539,2.455-6.141,8.287-3.578,13.026l29.83,55.16c2.55,4.716,8.261,6.569,12.791,4.17c0.414-0.12,0.824-0.285,1.221-0.499
	l19.244-10.407c3.026-1.636,4.151-5.417,2.516-8.442L59.178,45.391c-1.637-3.027-5.416-4.153-8.442-2.518l-4.549,2.46l-6.555-12.12
	l4.548-2.46c3.026-1.637,4.153-5.416,2.517-8.442L36.29,3.067C34.653,0.042,30.874-1.085,27.847,0.552L27.847,0.552z"/>
</svg>
