<?xml version="1.0" encoding="utf-8"?>
<!-- Generator: Adobe Illustrator 20.1.0, SVG Export Plug-In . SVG Version: 6.00 Build 0)  -->
<svg version="1.1" id="Слой_1" xmlns="http://www.w3.org/2000/svg" xmlns:xlink="http://www.w3.org/1999/xlink" x="0px" y="0px"
	 viewBox="0 0 42.5 31.9" style="enable-background:new 0 0 42.5 31.9;" xml:space="preserve">
<style type="text/css">
	.st0{fill:#DD4400;}
</style>
<polygon class="st0" points="0,0.3 0,31.8 4.5,31.8 4.5,4.3 38.1,4.3 38.1,31.8 42.5,31.8 42.5,0.3 "/>
<path class="st0" d="M36.2,16.9h-2.5c-1-4.6-4.5-8.1-8.7-8.1h-5.3c-4.2,0-7.7,3.4-8.7,8.1h-3v1.9h2.7c0,0.2,0,0.7,0,0.7v6.5v1.5v4.3
	H15v-4.3h14.7v4.3H34v-4.3v-1.5v-6.5c0,0,0-0.5,0-0.7h2.2C36.2,18.9,36.2,16.9,36.2,16.9z M19.7,12.1H25c3.1,0,5.7,3.3,5.8,7.3H14
	C14,15.3,16.6,12.1,19.7,12.1z M15.7,24.7h-1.3c-0.7,0-1.2-0.5-1.2-1.2c0-0.7,0.5-1.2,1.2-1.2h1.3c0.7,0,1.2,0.5,1.2,1.2
	C16.9,24.1,16.4,24.7,15.7,24.7z M30.2,24.7h-1.3c-0.7,0-1.2-0.5-1.2-1.2c0-0.7,0.5-1.2,1.2-1.2h1.3c0.7,0,1.2,0.5,1.2,1.2
	C31.4,24.1,30.9,24.7,30.2,24.7z"/>
</svg>
