<?xml version="1.0" encoding="utf-8"?>
<!-- Generator: Adobe Illustrator 15.1.0, SVG Export Plug-In . SVG Version: 6.00 Build 0)  -->
<!DOCTYPE svg PUBLIC "-//W3C//DTD SVG 1.1//EN" "http://www.w3.org/Graphics/SVG/1.1/DTD/svg11.dtd">
<svg version="1.1" id="Слой_1" xmlns="http://www.w3.org/2000/svg" xmlns:xlink="http://www.w3.org/1999/xlink" x="0px" y="0px"
	 width="31.181px" height="28.347px" viewBox="0 0 31.181 28.347" enable-background="new 0 0 31.181 28.347" xml:space="preserve">
<g>
	<g>
		<path fill="#FFFFFF" d="M2.352,13.086h8.382c1.299,0,2.353-1.054,2.353-2.352V2.352c0-1.3-1.054-2.352-2.353-2.352H2.352
			C1.054,0,0,1.052,0,2.352v8.382C0,12.032,1.054,13.086,2.352,13.086z"/>
		<path fill="#FFFFFF" d="M18.563,12.302c0.213,0.364,0.6,0.589,1.02,0.589h5.999c0.423,0,0.81-0.225,1.02-0.589l3-5.195
			c0.212-0.364,0.212-0.812,0-1.176l-3-5.196c-0.21-0.363-0.597-0.587-1.02-0.587h-5.999c-0.42,0-0.807,0.224-1.02,0.587
			l-2.998,5.196c-0.21,0.364-0.21,0.812,0,1.176L18.563,12.302z"/>
		<path fill="#FFFFFF" d="M7.173,18.965c0-1.848-1.503-3.35-3.351-3.35c-1.847,0-3.349,1.502-3.349,3.35
			c0,1.198,0.637,2.245,1.586,2.837c-0.949,0.592-1.586,1.638-1.586,2.837c0,1.846,1.502,3.35,3.349,3.35
			c1.848,0,3.351-1.504,3.351-3.35c0-1.199-0.64-2.245-1.589-2.837C6.533,21.21,7.173,20.163,7.173,18.965z"/>
		<path fill="#FFFFFF" d="M26.099,15.709c-0.94,0-1.887,0.321-2.813,0.956l-1.893,1.301c-0.404,0.277-1.037,0.443-1.692,0.443
			s-1.287-0.166-1.69-0.444l-1.894-1.3c-0.925-0.635-1.869-0.956-2.813-0.956c-1.196,0-2.289,0.547-3.001,1.499
			c-0.585,0.785-0.894,1.817-0.894,2.988v3.662c0,3.083,2.019,4.488,3.896,4.488c0.942,0,1.887-0.322,2.812-0.956l1.892-1.297
			c0.403-0.278,1.037-0.442,1.692-0.442c0.657,0,1.289,0.164,1.695,0.442l1.89,1.297c0.925,0.634,1.87,0.956,2.813,0.956
			c1.875,0,3.896-1.405,3.896-4.488v-3.662C29.994,17.113,27.976,15.709,26.099,15.709z"/>
	</g>
</g>
</svg>
