<?xml version="1.0" encoding="utf-8"?>
<!-- Generator: Adobe Illustrator 15.1.0, SVG Export Plug-In . SVG Version: 6.00 Build 0)  -->
<!DOCTYPE svg PUBLIC "-//W3C//DTD SVG 1.1//EN" "http://www.w3.org/Graphics/SVG/1.1/DTD/svg11.dtd">
<svg version="1.1" id="Слой_1" xmlns="http://www.w3.org/2000/svg" xmlns:xlink="http://www.w3.org/1999/xlink" x="0px" y="0px"
	 width="42.52px" height="26.152px" viewBox="0 0 42.52 26.152" enable-background="new 0 0 42.52 26.152" xml:space="preserve">
<circle fill="#F6A607" cx="9.412" cy="23.127" r="3.025"/>
<circle fill="#F6A607" cx="32.942" cy="23.127" r="3.025"/>
<path fill="#F6A607" d="M36.806,11.698c-3.392-1.016-5.387-1.193-6.348-1.203l0.097-0.073c-6.102-8.136-8.941-9.806-9.064-9.879
	l-5.262-0.031l-4.633,0.024c-0.912,0.013-3.504,0.11-4.535,0.347l-6.73,9.362L0,22.286h4.455c0.404-2.379,2.464-4.2,4.958-4.2
	c2.493,0,4.553,1.821,4.957,4.2h13.615c0.403-2.379,2.464-4.2,4.957-4.2s4.554,1.821,4.957,4.2h4.621V15.06
	C42.52,15.06,41.848,13.21,36.806,11.698z M13.95,10.522H6.217l4.12-8.235h3.612V10.522z M15.966,10.522V2.287h4.56
	c0.701,0.514,3.207,2.587,7.56,8.235H15.966z"/>
</svg>
