<?xml version="1.0" encoding="utf-8"?>
<!-- Generator: Adobe Illustrator 15.1.0, SVG Export Plug-In . SVG Version: 6.00 Build 0)  -->
<!DOCTYPE svg PUBLIC "-//W3C//DTD SVG 1.1//EN" "http://www.w3.org/Graphics/SVG/1.1/DTD/svg11.dtd">
<svg version="1.1" id="Слой_1" xmlns="http://www.w3.org/2000/svg" xmlns:xlink="http://www.w3.org/1999/xlink" x="0px" y="0px"
	 width="42.52px" height="42.52px" viewBox="0 0 42.52 42.52" enable-background="new 0 0 42.52 42.52" xml:space="preserve">
<path fill="#FFFFFF" d="M39.315,3.319c-2.553,1.532-3.19,1.276-3.19,1.276s-6.638,0.511-9.957-1.915
	c-2.79-2.04-4.393-2.539-4.836-2.648V0c0,0-0.028,0.005-0.071,0.015C21.217,0.005,21.189,0,21.189,0v0.033
	c-0.443,0.109-2.046,0.608-4.836,2.648c-3.319,2.425-9.957,1.915-9.957,1.915S5.758,4.851,3.205,3.319c0,0-3.446-1.149-3.191,4.34
	c0.255,5.489-0.766,25.147,21.189,34.593h0.113c21.956-9.445,20.935-29.104,21.189-34.593C42.762,2.17,39.315,3.319,39.315,3.319z"
	/>
</svg>
