<?xml version="1.0" encoding="utf-8"?>
<!-- Generator: Adobe Illustrator 15.1.0, SVG Export Plug-In . SVG Version: 6.00 Build 0)  -->
<!DOCTYPE svg PUBLIC "-//W3C//DTD SVG 1.1//EN" "http://www.w3.org/Graphics/SVG/1.1/DTD/svg11.dtd">
<svg version="1.1" xmlns="http://www.w3.org/2000/svg" xmlns:xlink="http://www.w3.org/1999/xlink" x="0px" y="0px" width="42.52px"
	 height="42.52px" viewBox="0 0 42.52 42.52" enable-background="new 0 0 42.52 42.52" xml:space="preserve">
<g id="Слой_1">
	<g id="Слой_1_1_">
	</g>
	<g id="Capa_1">
		<g>
			
				<linearGradient id="SVGID_1_" gradientUnits="userSpaceOnUse" x1="276.4602" y1="-337.7083" x2="276.3156" y2="-370.2761" gradientTransform="matrix(1 0 0 -1 -255.0801 -335.9897)">
				<stop  offset="0" style="stop-color:#56D062"/>
				<stop  offset="1" style="stop-color:#26B43D"/>
			</linearGradient>
			<path fill="url(#SVGID_1_)" d="M21.302,1.833h-0.009l0,0c-10.181,0-18.459,8.281-18.459,18.463c0,4.04,1.302,7.782,3.515,10.822
				l-2.301,6.86l7.096-2.27c2.92,1.934,6.402,3.052,10.157,3.052c10.181,0,18.459-8.284,18.459-18.463
				C39.761,10.117,31.482,1.833,21.302,1.833z"/>
			<path fill="#FAFAFA" d="M33.152,29.39c-0.512,1.44-2.538,2.636-4.152,2.984c-1.105,0.234-2.551,0.422-7.409-1.591
				c-6.218-2.576-10.221-8.895-10.534-9.304c-0.299-0.412-2.513-3.347-2.513-6.382c0-3.037,1.541-4.514,2.163-5.149
				c0.511-0.521,1.354-0.759,2.164-0.759c0.262,0,0.497,0.015,0.709,0.024c0.622,0.025,0.933,0.063,1.343,1.044
				c0.51,1.23,1.753,4.265,1.901,4.578c0.151,0.311,0.302,0.733,0.09,1.144c-0.198,0.423-0.373,0.612-0.685,0.972
				c-0.313,0.358-0.609,0.633-0.921,1.02c-0.285,0.337-0.608,0.697-0.248,1.317c0.359,0.608,1.602,2.638,3.432,4.267
				c2.362,2.102,4.277,2.773,4.962,3.06c0.509,0.21,1.116,0.16,1.492-0.235c0.472-0.511,1.058-1.356,1.651-2.188
				c0.423-0.599,0.957-0.673,1.519-0.46c0.57,0.198,3.594,1.692,4.216,2.001c0.621,0.311,1.029,0.46,1.182,0.722
				C33.662,26.715,33.662,27.945,33.152,29.39z"/>
		</g>
		<g id="Capa_1_1_">
			<g>
				
					<linearGradient id="SVGID_2_" gradientUnits="userSpaceOnUse" x1="276.4602" y1="-337.7083" x2="276.3156" y2="-370.2761" gradientTransform="matrix(1 0 0 -1 -255.0801 -335.9897)">
					<stop  offset="0" style="stop-color:#56D062"/>
					<stop  offset="1" style="stop-color:#26B43D"/>
				</linearGradient>
				<path fill="url(#SVGID_2_)" d="M21.302,1.833h-0.009l0,0c-10.181,0-18.459,8.281-18.459,18.463c0,4.04,1.302,7.782,3.515,10.822
					l-2.301,6.86l7.096-2.27c2.92,1.934,6.402,3.052,10.157,3.052c10.181,0,18.459-8.284,18.459-18.463
					C39.761,10.117,31.482,1.833,21.302,1.833z"/>
				<path fill="#FAFAFA" d="M33.152,29.39c-0.512,1.44-2.538,2.636-4.152,2.984c-1.105,0.234-2.551,0.422-7.409-1.591
					c-6.218-2.576-10.221-8.895-10.534-9.304c-0.299-0.412-2.513-3.347-2.513-6.382c0-3.037,1.541-4.514,2.163-5.149
					c0.511-0.521,1.354-0.759,2.164-0.759c0.262,0,0.497,0.015,0.709,0.024c0.622,0.025,0.933,0.063,1.343,1.044
					c0.51,1.23,1.753,4.265,1.901,4.578c0.151,0.311,0.302,0.733,0.09,1.144c-0.198,0.423-0.373,0.612-0.685,0.972
					c-0.313,0.358-0.609,0.633-0.921,1.02c-0.285,0.337-0.608,0.697-0.248,1.317c0.359,0.608,1.602,2.638,3.432,4.267
					c2.362,2.102,4.277,2.773,4.962,3.06c0.509,0.21,1.116,0.16,1.492-0.235c0.472-0.511,1.058-1.356,1.651-2.188
					c0.423-0.599,0.957-0.673,1.519-0.46c0.57,0.198,3.594,1.692,4.216,2.001c0.621,0.311,1.029,0.46,1.182,0.722
					C33.662,26.715,33.662,27.945,33.152,29.39z"/>
			</g>
		</g>
	</g>
</g>
<g id="Режим_изоляции">
	<g id="Capa_1_2_">
		<g>
			<g>
				<path fill="#FFFFFF" d="M21.301,39.761c-3.664,0-7.215-1.021-10.302-2.955l-6.646,2.125c-0.359,0.116-0.752,0.019-1.017-0.25
					C3.072,38.412,2.98,38.018,3.1,37.66l2.14-6.379c-2.229-3.239-3.405-7.025-3.405-10.985c0-10.732,8.729-19.463,19.459-19.463
					c5.199,0,10.084,2.027,13.763,5.708c3.679,3.68,5.705,8.566,5.704,13.757C40.76,31.03,32.031,39.761,21.301,39.761z
					 M11.144,34.709c0.194,0,0.386,0.057,0.552,0.166c2.851,1.888,6.172,2.886,9.605,2.886c9.627,0,17.459-7.834,17.459-17.463
					c0-4.657-1.817-9.041-5.118-12.343c-3.302-3.303-7.684-5.122-12.34-5.122c-9.636,0-17.468,7.834-17.468,17.463
					c0,3.708,1.149,7.247,3.323,10.233c0.19,0.262,0.243,0.6,0.14,0.907l-1.673,4.988l5.215-1.668
					C10.939,34.725,11.042,34.709,11.144,34.709z"/>
			</g>
		</g>
	</g>
</g>
</svg>
