<?xml version="1.0" encoding="utf-8"?>
<!-- Generator: Adobe Illustrator 15.1.0, SVG Export Plug-In . SVG Version: 6.00 Build 0)  -->
<!DOCTYPE svg PUBLIC "-//W3C//DTD SVG 1.1//EN" "http://www.w3.org/Graphics/SVG/1.1/DTD/svg11.dtd">
<svg version="1.1" id="Слой_1" xmlns="http://www.w3.org/2000/svg" xmlns:xlink="http://www.w3.org/1999/xlink" x="0px" y="0px"
	 width="85.039px" height="85.04px" viewBox="0 0 85.039 85.04" enable-background="new 0 0 85.039 85.04" xml:space="preserve">
<g>
	<path fill="#00AB5B" d="M78.083,31.482H50.095c-4.94-1.038-8.764-5.314-9.814-10.5V3.288c0.247-0.07,0.191-0.138,0-0.206V2.909
		c0-2.641-2.143-4.784-4.784-4.784h-23.79c-2.641,0-4.783,2.143-4.783,4.784V56.1c0,2.641,2.142,4.783,4.783,4.783h13.976h9.814
		h42.586c2.641,0,4.783-2.143,4.783-4.783V36.265C82.866,33.625,80.724,31.482,78.083,31.482z"/>
	<circle fill="#00AB5B" cx="11.011" cy="76.338" r="8.702"/>
	<circle fill="#00AB5B" cx="31.579" cy="76.338" r="8.702"/>
	<circle fill="#00AB5B" cx="53.201" cy="76.338" r="8.702"/>
	<circle fill="#00AB5B" cx="73.769" cy="76.338" r="8.702"/>
</g>
</svg>
