<?xml version="1.0" encoding="utf-8"?>
<!-- Generator: Adobe Illustrator 15.1.0, SVG Export Plug-In . SVG Version: 6.00 Build 0)  -->
<!DOCTYPE svg PUBLIC "-//W3C//DTD SVG 1.1//EN" "http://www.w3.org/Graphics/SVG/1.1/DTD/svg11.dtd">
<svg version="1.1" id="Слой_1" xmlns="http://www.w3.org/2000/svg" xmlns:xlink="http://www.w3.org/1999/xlink" x="0px" y="0px"
	 width="42.52px" height="42.52px" viewBox="0 0 42.52 42.52" enable-background="new 0 0 42.52 42.52" xml:space="preserve">
<g>
	<path fill="#656C6F" d="M31.645,38.92H8.325c-1.779,0-3.227-1.447-3.227-3.227V11.498L17.305,0h14.34
		c1.778,0,3.226,1.447,3.226,3.226v32.468C34.87,37.473,33.423,38.92,31.645,38.92z M6.449,12.08v23.614
		c0,1.034,0.842,1.876,1.876,1.876h23.319c1.034,0,1.876-0.842,1.876-1.876V3.226c0-1.034-0.842-1.876-1.876-1.876H17.841
		L6.449,12.08z"/>
</g>
<g>
	<path fill="#656C6F" d="M37.495,3.983v2.081c0.068,0.195,0.113,0.402,0.113,0.621v32.597c0,1.041-0.846,1.888-1.886,1.888H12.311
		c-0.674,0-1.247-0.366-1.579-0.899H9.243c0.42,1.301,1.629,2.25,3.068,2.25h23.412c1.784,0,3.235-1.453,3.235-3.238V6.685
		C38.958,5.555,38.375,4.562,37.495,3.983z"/>
</g>
<g>
	<g>
		<path fill="#EF4236" d="M41.845,26.321c0,1.409-1.143,2.551-2.552,2.551H15.449c-1.409,0-2.551-1.142-2.551-2.551V14.999
			c0-1.409,1.143-2.551,2.551-2.551h23.844c1.409,0,2.552,1.142,2.552,2.551V26.321z"/>
	</g>
	<g>
		<path fill="#FFFFFF" d="M39.293,29.547H15.449c-1.779,0-3.226-1.447-3.226-3.227V14.999c0-1.779,1.447-3.226,3.226-3.226h23.844
			c1.779,0,3.227,1.447,3.227,3.226v11.322C42.52,28.1,41.072,29.547,39.293,29.547z M15.449,13.123
			c-1.035,0-1.876,0.842-1.876,1.876v11.322c0,1.035,0.842,1.876,1.876,1.876h23.844c1.034,0,1.877-0.841,1.877-1.876V14.999
			c0-1.034-0.843-1.876-1.877-1.876H15.449z"/>
	</g>
</g>
<g>
	<path fill="#FFFFFF" d="M23.131,19.566c0,0.369-0.061,0.701-0.182,0.997c-0.122,0.296-0.295,0.548-0.521,0.757
		c-0.226,0.209-0.503,0.371-0.831,0.485c-0.329,0.113-0.721,0.17-1.176,0.17h-0.837v2.654c0,0.029-0.009,0.057-0.026,0.079
		s-0.043,0.041-0.08,0.055c-0.036,0.013-0.085,0.024-0.148,0.034c-0.063,0.01-0.141,0.014-0.236,0.014
		c-0.095,0-0.174-0.004-0.236-0.014s-0.113-0.021-0.151-0.034c-0.038-0.014-0.064-0.032-0.08-0.055
		c-0.015-0.022-0.022-0.05-0.022-0.079v-6.8c0-0.151,0.04-0.26,0.119-0.325c0.079-0.064,0.169-0.097,0.268-0.097h1.577
		c0.16,0,0.312,0.007,0.459,0.02c0.146,0.014,0.319,0.042,0.518,0.085c0.199,0.043,0.402,0.125,0.609,0.245
		c0.207,0.12,0.383,0.267,0.527,0.441c0.144,0.175,0.256,0.377,0.332,0.607C23.092,19.036,23.131,19.29,23.131,19.566z M22.1,19.646
		c0-0.299-0.056-0.55-0.167-0.751c-0.112-0.201-0.25-0.351-0.416-0.45c-0.165-0.099-0.335-0.161-0.512-0.188
		c-0.177-0.026-0.349-0.04-0.516-0.04h-0.905v2.956h0.882c0.296,0,0.542-0.038,0.738-0.114c0.195-0.076,0.359-0.181,0.492-0.316
		c0.133-0.135,0.234-0.296,0.303-0.484C22.066,20.071,22.1,19.866,22.1,19.646z"/>
	<path fill="#FFFFFF" d="M30.295,20.984c0,0.637-0.082,1.195-0.245,1.671c-0.162,0.477-0.4,0.871-0.714,1.185
		c-0.313,0.313-0.698,0.547-1.153,0.703s-0.998,0.233-1.629,0.233h-1.561c-0.087,0-0.169-0.029-0.247-0.088
		c-0.078-0.06-0.117-0.163-0.117-0.311v-6.572c0-0.148,0.039-0.251,0.117-0.31s0.16-0.088,0.247-0.088h1.669
		c0.638,0,1.177,0.083,1.617,0.248c0.44,0.165,0.81,0.402,1.107,0.711c0.299,0.31,0.524,0.685,0.678,1.125
		C30.219,19.933,30.295,20.43,30.295,20.984z M29.265,21.024c0-0.399-0.05-0.77-0.148-1.113s-0.254-0.641-0.464-0.891
		c-0.211-0.251-0.478-0.446-0.801-0.586c-0.322-0.141-0.737-0.211-1.246-0.211h-0.997v5.735h1.008c0.472,0,0.867-0.059,1.19-0.178
		c0.322-0.117,0.592-0.297,0.809-0.54s0.378-0.548,0.486-0.914C29.211,21.959,29.265,21.526,29.265,21.024z"/>
	<path fill="#FFFFFF" d="M35.676,17.83c0,0.072-0.003,0.135-0.011,0.188c-0.009,0.053-0.021,0.096-0.04,0.128
		c-0.02,0.033-0.041,0.056-0.065,0.071c-0.025,0.015-0.051,0.023-0.077,0.023h-2.699v2.505h2.551c0.026,0,0.052,0.007,0.077,0.02
		s0.046,0.035,0.065,0.065c0.02,0.031,0.032,0.071,0.039,0.123c0.009,0.051,0.012,0.117,0.012,0.197
		c0,0.072-0.003,0.133-0.012,0.185c-0.007,0.051-0.02,0.093-0.039,0.125s-0.04,0.057-0.065,0.074
		c-0.025,0.018-0.051,0.025-0.077,0.025h-2.551v3.07c0,0.026-0.008,0.052-0.023,0.076c-0.015,0.025-0.041,0.044-0.079,0.058
		c-0.038,0.013-0.088,0.024-0.148,0.034s-0.141,0.014-0.238,0.014c-0.092,0-0.169-0.004-0.234-0.014
		c-0.064-0.01-0.116-0.021-0.153-0.034c-0.038-0.014-0.064-0.032-0.08-0.058c-0.015-0.024-0.022-0.05-0.022-0.076v-6.823
		c0-0.148,0.039-0.251,0.116-0.31c0.078-0.059,0.161-0.088,0.248-0.088h3.314c0.026,0,0.052,0.007,0.077,0.023
		c0.024,0.015,0.046,0.04,0.065,0.074c0.019,0.034,0.031,0.079,0.04,0.134C35.673,17.694,35.676,17.758,35.676,17.83z"/>
</g>
</svg>
