<?xml version="1.0" encoding="utf-8"?>
<!-- Generator: Adobe Illustrator 20.1.0, SVG Export Plug-In . SVG Version: 6.00 Build 0)  -->
<svg version="1.1" id="Слой_1" xmlns="http://www.w3.org/2000/svg" xmlns:xlink="http://www.w3.org/1999/xlink" x="0px" y="0px"
	 viewBox="0 0 42.5 37.5" style="enable-background:new 0 0 42.5 37.5;" xml:space="preserve">
<style type="text/css">
	.st0{fill:#00AB5B;}
</style>
<path class="st0" d="M21.3,0.1L10.5,10.9V5.9H7v8.5l-7,6.9h5v16.2h13.6v-7.9c0-1.6,1.4-3,3.1-3s3.1,1.3,3.1,3v7.9h12.7V21.3h5
	L21.3,0.1z M14.7,28.1c0,1.7-1.4,3.1-3.1,3.1c-1.7,0-3.1-1.4-3.1-3.1v-2.3c0-1.7,1.4-3.1,3.1-3.1c1.7,0,3.1,1.4,3.1,3.1V28.1z
	 M34.8,28.1c0,1.7-1.4,3.1-3.1,3.1s-3.1-1.4-3.1-3.1v-2.3c0-1.7,1.4-3.1,3.1-3.1s3.1,1.4,3.1,3.1V28.1z"/>
</svg>
