<?xml version="1.0" encoding="utf-8"?>
<!-- Generator: Adobe Illustrator 15.1.0, SVG Export Plug-In . SVG Version: 6.00 Build 0)  -->
<!DOCTYPE svg PUBLIC "-//W3C//DTD SVG 1.1//EN" "http://www.w3.org/Graphics/SVG/1.1/DTD/svg11.dtd">
<svg version="1.1" id="Слой_1" xmlns="http://www.w3.org/2000/svg" xmlns:xlink="http://www.w3.org/1999/xlink" x="0px" y="0px"
	 width="85.04px" height="85.04px" viewBox="0 0 85.04 85.04" enable-background="new 0 0 85.04 85.04" xml:space="preserve">
<g>
	<path fill="#FFFFFF" d="M11.695,23.479c0.129,0.073,0.271,0.108,0.41,0.108c0.292,0,0.576-0.154,0.73-0.426
		c0.227-0.403,0.083-0.914-0.321-1.141c-1.126-0.634-4.066-2.763-4.128-4.969c-0.05-1.685,1.813-3.252,3.968-5.067
		c1.208-1.017,2.457-2.068,3.54-3.283c1.237-1.386,1.306-3.082,0.194-4.772c-1.19-1.811-4.469-4.137-5.363-3.834
		c-0.438,0.146-0.676,0.619-0.53,1.058c0.103,0.311,0.369,0.52,0.672,0.564c0.697,0.27,3.756,2.171,4.266,4.071
		c0.174,0.656,0.02,1.228-0.49,1.799c-1.003,1.125-2.205,2.136-3.366,3.115c-2.386,2.008-4.638,3.903-4.565,6.396
		C6.816,20.694,11.495,23.368,11.695,23.479z"/>
	<path fill="#FFFFFF" d="M23.604,23.479c0.128,0.073,0.27,0.108,0.41,0.108c0.292,0,0.576-0.154,0.73-0.426
		c0.227-0.403,0.083-0.914-0.32-1.141c-1.127-0.634-4.066-2.763-4.129-4.969c-0.05-1.685,1.814-3.252,3.968-5.067
		c1.208-1.017,2.457-2.068,3.541-3.283c1.236-1.386,1.306-3.082,0.194-4.772c-1.19-1.811-4.472-4.137-5.363-3.834
		c-0.438,0.146-0.676,0.619-0.53,1.058c0.103,0.311,0.368,0.52,0.671,0.564c0.698,0.27,3.757,2.171,4.267,4.071
		c0.174,0.656,0.019,1.228-0.491,1.799c-1.002,1.125-2.204,2.136-3.366,3.115c-2.386,2.008-4.638,3.903-4.565,6.396
		C18.725,20.694,23.403,23.368,23.604,23.479z"/>
	<path fill="#FFFFFF" d="M53.185,23.479c0.128,0.073,0.271,0.108,0.41,0.108c0.291,0,0.574-0.154,0.729-0.426
		c0.227-0.403,0.083-0.914-0.32-1.141c-1.128-0.634-4.066-2.763-4.129-4.969c-0.051-1.685,1.813-3.252,3.967-5.067
		c1.209-1.017,2.458-2.068,3.541-3.283c1.237-1.386,1.307-3.082,0.195-4.772c-1.191-1.811-4.475-4.137-5.364-3.834
		c-0.438,0.146-0.676,0.619-0.529,1.058c0.102,0.311,0.369,0.52,0.671,0.564c0.698,0.27,3.757,2.171,4.268,4.071
		c0.174,0.656,0.019,1.228-0.49,1.799c-1.003,1.125-2.205,2.136-3.367,3.115c-2.385,2.008-4.638,3.903-4.565,6.396
		C48.306,20.694,52.984,23.368,53.185,23.479z"/>
	<path fill="#FFFFFF" d="M65.093,23.479c0.128,0.073,0.27,0.108,0.41,0.108c0.292,0,0.575-0.154,0.73-0.426
		c0.226-0.403,0.081-0.914-0.321-1.141c-1.127-0.634-4.065-2.763-4.129-4.969c-0.05-1.685,1.813-3.252,3.968-5.067
		c1.208-1.017,2.458-2.068,3.541-3.283c1.235-1.386,1.305-3.082,0.193-4.772c-1.189-1.811-4.476-4.137-5.362-3.834
		c-0.438,0.146-0.676,0.619-0.53,1.058c0.103,0.311,0.368,0.52,0.672,0.564c0.697,0.27,3.756,2.171,4.266,4.071
		c0.174,0.656,0.021,1.228-0.49,1.799c-1.003,1.125-2.205,2.136-3.367,3.115c-2.384,2.008-4.636,3.903-4.563,6.396
		C60.213,20.694,64.893,23.368,65.093,23.479z"/>
	<rect x="4.943" y="29.632" fill="#FFFFFF" width="32.744" height="17.209"/>
	<rect x="41.686" y="29.632" fill="#FFFFFF" width="36.744" height="17.209"/>
	<path fill="#FFFFFF" d="M76.803,71.213c0.688,0,1.329,0.176,1.907,0.462V49.354H60.274c0.669,0.49,1.133,1.245,1.133,2.141
		c0,1.489-1.207,2.696-2.695,2.696c-1.492,0-2.699-1.207-2.699-2.696c0-0.896,0.463-1.65,1.134-2.141H4.943v2.28
		c0.486-0.209,1.021-0.327,1.583-0.327c2.208,0,3.998,1.792,3.998,3.999c0,2.21-1.79,4-3.998,4c-0.563,0-1.097-0.119-1.583-0.329
		v14.524c0.091-0.021,0.181-0.057,0.279-0.057c0.719,0,1.301,0.584,1.301,1.304c0,0.718-0.582,1.3-1.301,1.3
		c-0.098,0-0.188-0.035-0.279-0.058v6.624c0.99-0.89,2.285-1.448,3.721-1.448c2.497,0,4.583,1.648,5.298,3.907h32.236
		c-0.417-0.349-0.697-0.854-0.697-1.442c0-1.052,0.854-1.906,1.907-1.906c1.05,0,1.906,0.854,1.906,1.906
		c0,0.589-0.282,1.094-0.698,1.442h5.969c0.461-0.872,1.348-1.486,2.403-1.486c1.055,0,1.941,0.614,2.402,1.486h9.522
		c-0.257-0.342-0.438-0.748-0.438-1.208c0-1.131,0.916-2.049,2.048-2.049s2.048,0.918,2.048,2.049c0,0.46-0.182,0.866-0.438,1.208
		h6.577v-5.67c-0.578,0.285-1.22,0.459-1.907,0.459c-2.39,0-4.326-1.936-4.326-4.325C72.477,73.15,74.413,71.213,76.803,71.213z
		 M46.385,50.657c1.412,0,2.557,1.142,2.557,2.555s-1.145,2.56-2.557,2.56c-1.413,0-2.558-1.146-2.558-2.56
		S44.972,50.657,46.385,50.657z M36.383,62.889c0,1.515-1.228,2.742-2.744,2.742c-1.515,0-2.742-1.228-2.742-2.742
		c0-1.516,1.228-2.743,2.742-2.743C35.156,60.146,36.383,61.373,36.383,62.889z M23.872,55.585c0.643,0,1.165,0.522,1.165,1.164
		c0,0.641-0.521,1.164-1.165,1.164c-0.641,0-1.162-0.523-1.162-1.164C22.709,56.107,23.231,55.585,23.872,55.585z M21.827,72.049
		c0.746,0,1.35,0.606,1.35,1.352s-0.604,1.348-1.35,1.348c-0.746,0-1.349-0.603-1.349-1.348S21.081,72.049,21.827,72.049z
		 M11.314,72.794c-1.978,0-3.58-1.604-3.58-3.581s1.602-3.582,3.58-3.582c1.979,0,3.582,1.604,3.582,3.582
		S13.293,72.794,11.314,72.794z M14.525,58.934c0-0.873,0.709-1.579,1.581-1.579c0.872,0,1.581,0.706,1.581,1.579
		c0,0.874-0.708,1.582-1.581,1.582C15.234,60.516,14.525,59.808,14.525,58.934z M20.665,84.328c-2.311,0-4.186-1.873-4.186-4.187
		c0-2.311,1.875-4.186,4.186-4.186c2.312,0,4.186,1.875,4.186,4.186C24.851,82.455,22.976,84.328,20.665,84.328z M25.082,69.816
		c-1.617,0-2.93-1.31-2.93-2.93c0-1.618,1.313-2.931,2.93-2.931c1.618,0,2.931,1.313,2.931,2.931
		C28.012,68.507,26.699,69.816,25.082,69.816z M30.756,52.61c0.746,0,1.351,0.602,1.351,1.348s-0.605,1.352-1.351,1.352
		c-0.745,0-1.349-0.605-1.349-1.352S30.011,52.61,30.756,52.61z M31.315,81.354c-1.002,0-1.814-0.813-1.814-1.813
		c0-1.004,0.812-1.814,1.814-1.814c1.003,0,1.813,0.811,1.813,1.814C33.128,80.541,32.318,81.354,31.315,81.354z M30.803,72.33
		c0-2.105,1.707-3.813,3.813-3.813c2.107,0,3.814,1.707,3.814,3.813s-1.707,3.813-3.814,3.813
		C32.51,76.144,30.803,74.436,30.803,72.33z M38.243,80.142c-0.666,0-1.207-0.541-1.207-1.207c0-0.668,0.541-1.208,1.207-1.208
		c0.67,0,1.211,0.54,1.211,1.208C39.454,79.601,38.913,80.142,38.243,80.142z M40.849,66.655c-0.925,0-1.674-0.751-1.674-1.674
		c0-0.926,0.75-1.675,1.674-1.675c0.924,0,1.674,0.749,1.674,1.675C42.523,65.904,41.773,66.655,40.849,66.655z M42.338,59.585
		c0-1.131,0.916-2.047,2.044-2.047c1.131,0,2.047,0.916,2.047,2.047c0,1.132-0.916,2.047-2.047,2.047
		C43.254,61.632,42.338,60.717,42.338,59.585z M46.338,76.61c-1.849,0-3.349-1.5-3.349-3.349c0-1.852,1.5-3.349,3.349-3.349
		s3.349,1.497,3.349,3.349C49.687,75.11,48.187,76.61,46.338,76.61z M52.851,73.168c-0.72,0-1.304-0.582-1.304-1.302
		c0-0.719,0.584-1.304,1.304-1.304c0.719,0,1.303,0.585,1.303,1.304C54.153,72.586,53.569,73.168,52.851,73.168z M55.964,65.632
		c-2.182,0-3.953-1.77-3.953-3.952c0-2.185,1.771-3.954,3.953-3.954c2.185,0,3.955,1.77,3.955,3.954
		C59.919,63.862,58.148,65.632,55.964,65.632z M60.943,75.772c-1.491,0-2.699-1.207-2.699-2.699c0-1.49,1.208-2.698,2.699-2.698
		c1.488,0,2.697,1.208,2.697,2.698C63.641,74.565,62.432,75.772,60.943,75.772z M63.452,65.028c0-0.487,0.398-0.885,0.883-0.885
		c0.489,0,0.886,0.397,0.886,0.885c0,0.489-0.396,0.883-0.886,0.883C63.851,65.911,63.452,65.518,63.452,65.028z M65.315,81.816
		c-0.771,0-1.396-0.623-1.396-1.396c0-0.77,0.625-1.395,1.396-1.395c0.77,0,1.395,0.625,1.395,1.395
		C66.71,81.193,66.085,81.816,65.315,81.816z M66.151,57.119c0-1.668,1.354-3.021,3.024-3.021c1.668,0,3.021,1.354,3.021,3.021
		c0,1.67-1.354,3.024-3.021,3.024C67.506,60.144,66.151,58.789,66.151,57.119z M71.221,70.938c-1.67,0-3.022-1.355-3.022-3.026
		c0-1.67,1.353-3.021,3.022-3.021c1.671,0,3.024,1.352,3.024,3.021C74.245,69.582,72.892,70.938,71.221,70.938z"/>
</g>
</svg>
