<?xml version="1.0" encoding="utf-8"?>
<!-- Generator: Adobe Illustrator 15.1.0, SVG Export Plug-In . SVG Version: 6.00 Build 0)  -->
<!DOCTYPE svg PUBLIC "-//W3C//DTD SVG 1.1//EN" "http://www.w3.org/Graphics/SVG/1.1/DTD/svg11.dtd">
<svg version="1.1" id="Слой_1" xmlns="http://www.w3.org/2000/svg" xmlns:xlink="http://www.w3.org/1999/xlink" x="0px" y="0px"
	 width="85.04px" height="85.04px" viewBox="0 0 85.04 85.04" enable-background="new 0 0 85.04 85.04" xml:space="preserve">
<g>
	<path fill="#FFFFFF" d="M59.626,10.286c12.063,0,21.988-1.95,23.314-4.458l0.009-1.355C81.651,1.958,71.71,0.001,59.626,0.001
		c-12.085,0-22.025,1.957-23.323,4.472l0.007,1.259C37.435,8.285,47.412,10.286,59.626,10.286z"/>
	<path fill="#FFFFFF" d="M59.626,27.391c11.816,0,21.565-1.873,23.206-4.308l0.087-13.141c-5.757,3.368-18.595,3.698-23.293,3.698
		c-4.699,0-17.536-0.33-23.294-3.698l0.087,13.128C38.031,25.511,47.787,27.391,59.626,27.391z"/>
	<g>
		<path fill="#FFFFFF" d="M63.203,47.961V59.19c9.723-0.318,17.487-1.912,19.428-3.963l0.073-10.779
			C78.004,47.058,68.985,47.778,63.203,47.961z"/>
	</g>
	<g>
		<path fill="#FFFFFF" d="M55.749,38.981H2.535C1.136,38.981,0,40.116,0,41.516v40.989c0,1.4,1.136,2.535,2.535,2.535h53.214
			c1.399,0,2.535-1.135,2.535-2.535V72.34H40.123c-5.763,0-10.453-4.69-10.453-10.453s4.69-10.451,10.453-10.451h18.161v-9.919
			C58.284,40.116,57.148,38.981,55.749,38.981z"/>
		<path fill="#FFFFFF" d="M33.963,61.887c0,3.402,2.757,6.159,6.16,6.159h18.161V55.728H40.123
			C36.72,55.728,33.963,58.485,33.963,61.887z M41.439,61.862c0,1.029-0.835,1.863-1.863,1.863c-1.029,0-1.864-0.834-1.864-1.863
			s0.835-1.864,1.864-1.864C40.604,59.998,41.439,60.833,41.439,61.862z"/>
	</g>
	<g>
		<path fill="#FFFFFF" d="M59.626,30.745c-4.675,0-17.387-0.329-23.186-3.646l0.051,7.41h19.705c3.864,0,7.007,3.144,7.007,7.007
			v2.917c9.922-0.326,17.787-1.981,19.521-4.092l0.087-13.231C77.003,30.419,64.297,30.745,59.626,30.745z"/>
	</g>
</g>
</svg>
