<?xml version="1.0" encoding="utf-8"?>
<!-- Generator: Adobe Illustrator 15.1.0, SVG Export Plug-In . SVG Version: 6.00 Build 0)  -->
<!DOCTYPE svg PUBLIC "-//W3C//DTD SVG 1.1//EN" "http://www.w3.org/Graphics/SVG/1.1/DTD/svg11.dtd">
<svg version="1.1" id="Слой_1" xmlns="http://www.w3.org/2000/svg" xmlns:xlink="http://www.w3.org/1999/xlink" x="0px" y="0px"
	 width="85.04px" height="85.04px" viewBox="0 0 85.04 85.04" enable-background="new 0 0 85.04 85.04" xml:space="preserve">
<g>
	<path fill="#FFFFFF" d="M70.624,30.823c0.834-0.833,1.25-1.927,1.25-3.018c0-1.092-0.416-2.185-1.25-3.018
		c0,0-7.78-9.85-10.732-12.804C56.936,9.031,47.087,1.251,47.087,1.251C46.257,0.418,45.164,0.001,44.07,0
		c-1.093,0-2.186,0.418-3.019,1.251c0,0-15.516,14.332-20.493,19.31C15.581,25.538,1.25,41.054,1.25,41.054
		C0.416,41.887,0,42.979,0,44.071c0.001,1.092,0.418,2.185,1.25,3.018c0,0,7.324,10.28,10.29,13.245
		c2.965,2.968,13.248,10.292,13.248,10.292c0.834,0.833,1.926,1.25,3.018,1.25s2.185-0.417,3.018-1.25
		c0,0,15.66-14.184,20.64-19.163C56.44,46.483,70.624,30.823,70.624,30.823z"/>
	<path fill="#FFFFFF" d="M82.955,67.578L61.369,45.993L45.992,61.37l21.584,21.587c2.778,2.776,7.282,2.776,10.062,0l5.317-5.32
		C85.734,74.86,85.734,70.356,82.955,67.578z"/>
	<path fill="#FFFFFF" d="M10.062,25.438l15.377-15.376l-1.625-1.625c-2.777-2.777-7.28-2.777-10.058,0l-5.319,5.319
		c-2.777,2.778-2.777,7.282,0,10.06L10.062,25.438z"/>
</g>
</svg>
