<?xml version="1.0" encoding="utf-8"?>
<!-- Generator: Adobe Illustrator 20.1.0, SVG Export Plug-In . SVG Version: 6.00 Build 0)  -->
<svg version="1.1" id="Слой_1" xmlns="http://www.w3.org/2000/svg" xmlns:xlink="http://www.w3.org/1999/xlink" x="0px" y="0px"
	 viewBox="0 0 85 85" style="enable-background:new 0 0 85 85;" xml:space="preserve">
<style type="text/css">
	.st0{fill:#FFFFFF;}
	.st1{fill:#61696B;}
</style>
<g>
	<path class="st0" d="M43.2,6.9c0,0,13.1,10.7,28.2,14c0,0,3.7,42.4-27.1,57.2h-2.4C11.1,63.3,14.8,20.9,14.8,20.9
		c15-3.2,28.2-14,28.2-14H43.2z"/>
</g>
<g>
	<path class="st0" d="M43.1,85L43.1,85c-0.2,0-0.3,0-0.5-0.1C4.3,67.8,9.5,17.1,9.6,16.6c0.1-0.5,0.4-0.9,1-1
		c18-2.9,28.6-12.4,31.4-15.2C42.2,0.1,42.5,0,42.8,0h0.7c0.3,0,0.6,0.1,0.8,0.3c3.6,3.7,14,12.5,31.3,15.2c0.5,0.1,0.9,0.5,1,1
		c0.1,0.5,5.4,51.3-32.9,68.4C43.4,85,43.3,85,43.1,85z M11.8,17.7c-0.5,6.6-2.3,49.6,31.3,65c33.6-15.4,31.7-58.4,31.2-65
		C57.5,14.8,47.2,6.4,43.1,2.4C39.6,5.8,29,14.7,11.8,17.7z"/>
</g>
<g>
	<path class="st1" d="M35.8,39.6V25.8h-2.1v-2.8h5.1v16.6L35.8,39.6L35.8,39.6z"/>
	<path class="st1" d="M43.3,28.5c0-1.7,0.4-3,1.3-4c0.5-0.6,1.1-1,1.9-1.3c0.8-0.3,1.6-0.5,2.4-0.5c0.8,0,1.6,0.1,2.3,0.4
		c0.7,0.3,1.3,0.7,1.8,1.2c0.5,0.5,0.9,1.1,1.1,1.9c0.3,0.7,0.4,1.5,0.4,2.4v5.6c0,1.7-0.4,3-1.3,4c-0.5,0.6-1.1,1-1.9,1.3
		c-0.7,0.3-1.5,0.5-2.3,0.5c-1.6,0-3-0.5-4.1-1.6c-0.6-0.6-1-1.2-1.2-1.8c-0.2-0.7-0.3-1.5-0.3-2.6C43.3,34,43.3,28.5,43.3,28.5z
		 M51.4,28.4c0-0.6-0.1-1.1-0.3-1.5c-0.2-0.4-0.5-0.8-0.9-1c-0.4-0.2-0.8-0.4-1.3-0.4c-0.8,0-1.4,0.3-1.9,0.8
		c-0.5,0.5-0.7,1.3-0.7,2.2v5.4c0,1.1,0.2,1.8,0.6,2.3c0.5,0.6,1.2,0.9,2,0.9c0.8,0,1.5-0.3,2-0.9c0.4-0.5,0.6-1.2,0.6-2.2V28.4z"/>
	<path class="st1" d="M29.7,48.4h8.4v9.5h-2.5v-7.5h-3.4v4.3c0,1.1-0.1,1.8-0.4,2.3c-0.3,0.4-0.5,0.7-0.8,0.9S30.2,58,29.6,58
		c-0.4,0-0.9-0.1-1.6-0.2V56c0.1,0,0.2,0,0.4,0c0.3,0,0.5,0,0.6,0c0.3,0,0.5-0.1,0.6-0.3c0.1-0.2,0.1-0.8,0.1-1.9L29.7,48.4
		L29.7,48.4z"/>
	<path class="st1" d="M45.8,54.9l2.5,0.4c-0.3,0.9-0.8,1.6-1.5,2.1c-0.7,0.5-1.6,0.7-2.6,0.7c-1.6,0-2.9-0.5-3.7-1.6
		c-0.6-0.9-0.9-2-0.9-3.3c0-1.6,0.4-2.8,1.2-3.7c0.8-0.9,1.9-1.3,3.1-1.3c1.4,0,2.5,0.5,3.3,1.4s1.2,2.4,1.2,4.3h-6.3
		c0,0.7,0.2,1.3,0.6,1.7c0.4,0.4,0.9,0.6,1.4,0.6c0.4,0,0.7-0.1,1-0.3S45.6,55.3,45.8,54.9z M45.9,52.3c0-0.7-0.2-1.3-0.6-1.7
		c-0.4-0.4-0.8-0.6-1.3-0.6c-0.6,0-1,0.2-1.4,0.6c-0.4,0.4-0.5,0.9-0.5,1.6L45.9,52.3L45.9,52.3z"/>
	<path class="st1" d="M48.9,48.4h8.6v2h-3v7.5h-2.5v-7.5h-3V48.4z"/>
</g>
</svg>
