<?xml version="1.0" encoding="utf-8"?>
<!-- Generator: Adobe Illustrator 15.1.0, SVG Export Plug-In . SVG Version: 6.00 Build 0)  -->
<!DOCTYPE svg PUBLIC "-//W3C//DTD SVG 1.1//EN" "http://www.w3.org/Graphics/SVG/1.1/DTD/svg11.dtd">
<svg version="1.1" id="Слой_1" xmlns="http://www.w3.org/2000/svg" xmlns:xlink="http://www.w3.org/1999/xlink" x="0px" y="0px"
	 width="42.52px" height="42.52px" viewBox="0 0 42.52 42.52" enable-background="new 0 0 42.52 42.52" xml:space="preserve">
<path fill="#FECE2F" d="M19.008,1.925c1.225-2.48,3.228-2.48,4.452,0l3.914,7.836c1.224,2.481,1.255,2.855,3.992,3.253l8.563,0.877
	c2.737,0.398,3.358,2.303,1.376,4.234l-5.651,5.24c-1.98,1.932-2.538,2.301-2.07,5.027l1.431,9.096
	c0.468,2.727-1.153,3.903-3.603,2.618l-7.883-4.319c-2.45-1.287-1.396-1.435-3.845-0.147l-8.632,4.467
	c-2.449,1.285-4.07,0.108-3.602-2.618l1.291-8.8c0.468-2.727,0.207-3.539-1.774-5.472L1.16,18.126
	c-1.981-1.931-1.362-3.836,1.376-4.234l9.606-1.32c2.738-0.398,2.029-0.477,3.254-2.958L19.008,1.925z"/>
</svg>
