<?xml version="1.0" encoding="utf-8"?>
<!-- Generator: Adobe Illustrator 20.1.0, SVG Export Plug-In . SVG Version: 6.00 Build 0)  -->
<svg version="1.1" id="Слой_1" xmlns="http://www.w3.org/2000/svg" xmlns:xlink="http://www.w3.org/1999/xlink" x="0px" y="0px"
	 viewBox="0 0 42.5 42.5" style="enable-background:new 0 0 42.5 42.5;" xml:space="preserve">
<style type="text/css">
	.st0{fill:#00AB5B;}
</style>
<path class="st0" d="M41.4,22.2c-0.6-0.2-1.2,0.1-1.9,0.7c-1.1-8.2-7.7-14.5-16-15.1c0.7-2.5,2.1-3.3,2.2-3.4
	c0.5-0.3,0.7-0.9,0.4-1.4c-0.3-0.5-0.9-0.7-1.4-0.5C24.6,2.5,23,3.4,22,5.8c-1.8-4.4-5.9-5.8-5.9-5.8c-0.6-0.2-1.2,0.1-1.3,0.7
	c-0.2,0.6,0.1,1.2,0.7,1.3c0,0,3.9,1.4,5,5.7C12.4,8.6,6,14.9,5,22.8c-0.7-0.6-1.3-0.9-1.9-0.7c-1.2,0.5-1.4,3-0.4,5.7
	c0.9,2.4,2.4,4.1,3.6,4.1c2.7,6.2,8.8,10.6,16,10.6c7.2,0,13.3-4.3,16-10.6c1.2,0,2.7-1.7,3.6-4.1C42.9,25.2,42.7,22.6,41.4,22.2z
	 M14,25.9c0-1.3,1.1-2.4,2.4-2.4s2.4,1.1,2.4,2.4s-1.1,2.4-2.4,2.4C15,28.2,14,27.2,14,25.9z M29,33.8c-1.5,2.1-4,3.4-6.7,3.4
	c-2.7,0-5.2-1.3-6.8-3.6c-0.3-0.5-0.2-1.1,0.3-1.5c0.5-0.3,1.1-0.2,1.5,0.3c1.1,1.7,3,2.7,5,2.7c2,0,3.8-0.9,4.9-2.5
	c0.3-0.5,1-0.6,1.5-0.2S29.3,33.3,29,33.8z M28.2,28.2c-1.3,0-2.4-1.1-2.4-2.4c0-1.3,1.1-2.4,2.4-2.4s2.4,1.1,2.4,2.4
	C30.6,27.2,29.5,28.2,28.2,28.2z"/>
</svg>
