<?xml version="1.0" encoding="utf-8"?>
<!-- Generator: Adobe Illustrator 15.1.0, SVG Export Plug-In . SVG Version: 6.00 Build 0)  -->
<!DOCTYPE svg PUBLIC "-//W3C//DTD SVG 1.1//EN" "http://www.w3.org/Graphics/SVG/1.1/DTD/svg11.dtd">
<svg version="1.1" id="Слой_1" xmlns="http://www.w3.org/2000/svg" xmlns:xlink="http://www.w3.org/1999/xlink" x="0px" y="0px"
	 width="85.04px" height="85.04px" viewBox="0 0 85.04 85.04" enable-background="new 0 0 85.04 85.04" xml:space="preserve">
<g>
	<path fill="#61696B" d="M14.59,54.251V11.946c0-1.938-1.57-3.51-3.51-3.51c-1.94,0-3.511,1.572-3.511,3.51v42.305
		c-4.388,1.475-7.568,5.572-7.568,10.457s3.181,8.982,7.568,10.457v3.475c0,1.938,1.57,3.51,3.511,3.51
		c1.939,0,3.51-1.572,3.51-3.51v-3.475c4.388-1.475,7.569-5.572,7.569-10.457S18.978,55.726,14.59,54.251z"/>
	<path fill="#61696B" d="M46.072,16.737v-4.791c0-1.938-1.57-3.51-3.511-3.51s-3.51,1.572-3.51,3.51v4.791
		c-4.388,1.474-7.569,5.572-7.569,10.457s3.182,8.983,7.569,10.457V78.64c0,1.938,1.569,3.51,3.51,3.51s3.511-1.572,3.511-3.51
		V37.65c4.388-1.474,7.568-5.572,7.568-10.457S50.46,18.211,46.072,16.737z"/>
	<path fill="#61696B" d="M85.04,52.862c0-4.885-3.181-8.983-7.568-10.458V11.946c0-1.938-1.57-3.51-3.511-3.51
		c-1.939,0-3.51,1.572-3.51,3.51v30.458c-4.388,1.474-7.569,5.573-7.569,10.458s3.182,8.982,7.569,10.457v15.32
		c0,1.938,1.57,3.51,3.51,3.51c1.94,0,3.511-1.572,3.511-3.51v-15.32C81.859,61.845,85.04,57.747,85.04,52.862z"/>
</g>
</svg>
