<?xml version="1.0" encoding="utf-8"?>
<!-- Generator: Adobe Illustrator 15.1.0, SVG Export Plug-In . SVG Version: 6.00 Build 0)  -->
<!DOCTYPE svg PUBLIC "-//W3C//DTD SVG 1.1//EN" "http://www.w3.org/Graphics/SVG/1.1/DTD/svg11.dtd">
<svg version="1.1" id="Слой_1" xmlns="http://www.w3.org/2000/svg" xmlns:xlink="http://www.w3.org/1999/xlink" x="0px" y="0px"
	 width="85.04px" height="85.04px" viewBox="0 0 85.04 85.04" enable-background="new 0 0 85.04 85.04" xml:space="preserve">
<g>
	<path fill="#61696B" d="M66.934,0H18.107c-10,0-18.106,8.106-18.106,18.108v48.823c0,10.002,8.106,18.108,18.106,18.108h48.826
		c10,0,18.106-8.106,18.106-18.108V18.108C85.04,8.106,76.934,0,66.934,0z M75.458,66.931c0,4.703-3.824,8.527-8.524,8.527H18.107
		c-4.701,0-8.525-3.824-8.525-8.527V18.108c0-4.702,3.824-8.526,8.525-8.526h48.826c4.7,0,8.524,3.824,8.524,8.526V66.931z"/>
	<path fill="#61696B" d="M42.521,20.561c-12.127,0-21.959,9.832-21.959,21.958c0,12.128,9.832,21.958,21.959,21.958
		s21.959-9.83,21.959-21.958C64.479,30.393,54.647,20.561,42.521,20.561z M42.521,54.896c-6.824,0-12.377-5.552-12.377-12.377
		c0-6.824,5.553-12.376,12.377-12.376s12.377,5.552,12.377,12.376C54.897,49.345,49.345,54.896,42.521,54.896z"/>
	<circle fill="#61696B" cx="64.379" cy="20.062" r="4.726"/>
</g>
</svg>
