<?xml version="1.0" encoding="utf-8"?>
<!-- Generator: Adobe Illustrator 20.1.0, SVG Export Plug-In . SVG Version: 6.00 Build 0)  -->
<svg version="1.1" id="Слой_1" xmlns="http://www.w3.org/2000/svg" xmlns:xlink="http://www.w3.org/1999/xlink" x="0px" y="0px"
	 viewBox="0 0 42.5 26.2" style="enable-background:new 0 0 42.5 26.2;" xml:space="preserve">
<style type="text/css">
	.st0{fill:#00AB5B;}
</style>
<circle class="st0" cx="9.4" cy="23.1" r="3"/>
<circle class="st0" cx="32.9" cy="23.1" r="3"/>
<path class="st0" d="M36.8,11.7c-3.4-1-5.4-1.2-6.3-1.2l0.1-0.1c-6.1-8.1-8.9-9.8-9.1-9.9l-5.3,0l-4.6,0c-0.9,0-3.5,0.1-4.5,0.3
	l-6.7,9.4L0,22.3h4.5c0.4-2.4,2.5-4.2,5-4.2c2.5,0,4.6,1.8,5,4.2H28c0.4-2.4,2.5-4.2,5-4.2s4.6,1.8,5,4.2h4.6v-7.2
	C42.5,15.1,41.8,13.2,36.8,11.7z M13.9,10.5H6.2l4.1-8.2h3.6L13.9,10.5L13.9,10.5z M16,10.5V2.3h4.6c0.7,0.5,3.2,2.6,7.6,8.2
	C28.1,10.5,16,10.5,16,10.5z"/>
</svg>
