<?xml version="1.0" encoding="utf-8"?>
<!-- Generator: Adobe Illustrator 15.1.0, SVG Export Plug-In . SVG Version: 6.00 Build 0)  -->
<!DOCTYPE svg PUBLIC "-//W3C//DTD SVG 1.1//EN" "http://www.w3.org/Graphics/SVG/1.1/DTD/svg11.dtd">
<svg version="1.1" id="Слой_1" xmlns="http://www.w3.org/2000/svg" xmlns:xlink="http://www.w3.org/1999/xlink" x="0px" y="0px"
	 width="42.52px" height="42.52px" viewBox="0 0 42.52 42.52" enable-background="new 0 0 42.52 42.52" xml:space="preserve">
<path fill="#FFFFFF" d="M40.129,30.625l-6.727-3.787l4.592-1.715c0.559-0.207,0.84-0.826,0.633-1.383
	c-0.209-0.559-0.828-0.842-1.385-0.635l-6.295,2.35l-7.095-3.996l7.095-3.996l6.295,2.349c0.557,0.207,1.176-0.076,1.385-0.634
	c0.207-0.557-0.074-1.176-0.633-1.384l-4.592-1.713l6.727-3.789c0.518-0.292,0.701-0.948,0.409-1.466
	c-0.292-0.519-0.948-0.702-1.466-0.41l-6.684,3.764l0.98-4.84c0.119-0.584-0.258-1.151-0.841-1.269
	c-0.582-0.119-1.151,0.258-1.269,0.841l-1.35,6.665l-6.819,3.84v-7.805l5.134-4.332c0.455-0.383,0.513-1.062,0.129-1.517
	c-0.384-0.455-1.061-0.513-1.518-0.128l-3.745,3.16v-7.72C23.091,0.482,22.608,0,22.014,0c-0.594,0-1.076,0.482-1.076,1.077v7.67
	l-3.736-3.23c-0.451-0.39-1.129-0.34-1.518,0.11c-0.389,0.45-0.339,1.13,0.11,1.518l5.144,4.447v8.226l-7.621-4.292l-1.255-6.6
	c-0.111-0.584-0.675-0.968-1.259-0.856c-0.324,0.062-0.586,0.263-0.737,0.53c-0.12,0.213-0.168,0.469-0.119,0.729l0.916,4.815
	l-5.906-3.326c-0.519-0.292-1.175-0.108-1.466,0.409C3.198,11.744,3.381,12.4,3.9,12.692l5.499,3.097l-4.648,1.67
	c-0.559,0.203-0.848,0.818-0.648,1.377c0.201,0.56,0.818,0.851,1.377,0.648l6.399-2.3l7.588,4.274l-7.588,4.273l-6.399-2.299
	c-0.56-0.203-1.177,0.09-1.377,0.648c-0.199,0.559,0.089,1.174,0.648,1.377l4.648,1.67L3.9,30.227
	c-0.519,0.291-0.702,0.947-0.41,1.467c0.292,0.516,0.948,0.701,1.466,0.408l5.906-3.326l-0.916,4.816
	c-0.049,0.26,0,0.514,0.119,0.729c0.151,0.266,0.413,0.467,0.737,0.529c0.584,0.111,1.147-0.271,1.259-0.857l1.255-6.6l7.621-4.291
	v9.186l-5.144,4.445c-0.45,0.391-0.499,1.07-0.11,1.52c0.389,0.447,1.067,0.498,1.518,0.111l3.736-3.23v6.311
	c0,0.594,0.482,1.076,1.076,1.076c0.595,0,1.077-0.482,1.077-1.076v-6.779l3.745,3.162c0.203,0.17,0.449,0.252,0.694,0.252
	c0.307,0,0.61-0.129,0.823-0.383c0.384-0.453,0.326-1.133-0.129-1.516l-5.134-4.332V23.5l6.819,3.842l1.35,6.664
	c0.117,0.582,0.687,0.959,1.269,0.84c0.583-0.115,0.96-0.684,0.841-1.268l-0.98-4.84l6.684,3.764
	c0.518,0.291,1.174,0.109,1.466-0.41C40.83,31.575,40.646,30.918,40.129,30.625z"/>
</svg>
