<?xml version="1.0" encoding="utf-8"?>
<!-- Generator: Adobe Illustrator 15.1.0, SVG Export Plug-In . SVG Version: 6.00 Build 0)  -->
<!DOCTYPE svg PUBLIC "-//W3C//DTD SVG 1.1//EN" "http://www.w3.org/Graphics/SVG/1.1/DTD/svg11.dtd">
<svg version="1.1" id="Слой_1" xmlns="http://www.w3.org/2000/svg" xmlns:xlink="http://www.w3.org/1999/xlink" x="0px" y="0px"
	 width="85.04px" height="85.04px" viewBox="0 0 85.04 85.04" enable-background="new 0 0 85.04 85.04" xml:space="preserve">
<g>
	<g>
		<rect x="38.917" y="21.163" fill="#A0AAB3" width="6.294" height="4.576"/>
		<rect x="38.917" y="35.177" fill="#A0AAB3" width="6.294" height="27.17"/>
	</g>
	<path fill="#A0AAB3" d="M42.063,3.432c21.839,0,39.608,17.77,39.608,39.61c0,21.84-17.77,39.609-39.608,39.609
		c-21.841,0-39.611-17.77-39.611-39.609C2.453,21.202,20.222,3.432,42.063,3.432 M42.063,0C18.292,0-0.979,19.27-0.979,43.042
		c0,23.771,19.271,43.041,43.043,43.041c23.769,0,43.04-19.27,43.04-43.041C85.104,19.27,65.832,0,42.063,0L42.063,0z"/>
</g>
</svg>
