<?xml version="1.0" encoding="utf-8"?>
<!-- Generator: Adobe Illustrator 15.1.0, SVG Export Plug-In . SVG Version: 6.00 Build 0)  -->
<!DOCTYPE svg PUBLIC "-//W3C//DTD SVG 1.1//EN" "http://www.w3.org/Graphics/SVG/1.1/DTD/svg11.dtd">
<svg version="1.1" id="Слой_1" xmlns="http://www.w3.org/2000/svg" xmlns:xlink="http://www.w3.org/1999/xlink" x="0px" y="0px"
	 width="42.52px" height="42.52px" viewBox="0 0 42.52 42.52" enable-background="new 0 0 42.52 42.52" xml:space="preserve">
<path fill="#F6A607" d="M41.449,22.175c-0.559-0.205-1.234,0.073-1.897,0.671C38.5,14.685,31.816,8.3,23.518,7.716
	c0.719-2.463,2.089-3.298,2.184-3.352c0.51-0.271,0.707-0.903,0.44-1.417c-0.269-0.517-0.902-0.722-1.423-0.452
	c-0.104,0.052-1.684,0.932-2.758,3.353c-1.818-4.354-5.884-5.776-5.938-5.793c-0.556-0.185-1.151,0.114-1.336,0.667
	c-0.185,0.554,0.114,1.152,0.667,1.336c0.046,0.017,3.87,1.36,5.025,5.714c-7.986,0.87-14.345,7.131-15.367,15.073
	c-0.664-0.597-1.339-0.875-1.896-0.67c-1.234,0.453-1.43,2.999-0.441,5.687c0.88,2.392,2.399,4.08,3.592,4.105
	c2.669,6.205,8.833,10.552,16.015,10.552c7.184,0,13.348-4.347,16.016-10.552c1.191-0.024,2.714-1.713,3.594-4.105
	C42.879,25.174,42.681,22.628,41.449,22.175z M13.979,25.881c0-1.305,1.056-2.36,2.36-2.36c1.304,0,2.36,1.056,2.36,2.36
	c0,1.304-1.057,2.36-2.36,2.36C15.035,28.242,13.979,27.185,13.979,25.881z M28.984,33.819c-1.535,2.142-4.023,3.418-6.654,3.418
	c-2.708,0-5.237-1.337-6.766-3.573c-0.329-0.482-0.204-1.139,0.277-1.469c0.48-0.326,1.138-0.205,1.468,0.277
	c1.134,1.66,3.01,2.652,5.02,2.652c1.951,0,3.797-0.949,4.938-2.536c0.342-0.475,1-0.584,1.474-0.243S29.324,33.346,28.984,33.819z
	 M28.224,28.242c-1.304,0-2.36-1.057-2.36-2.36c0-1.305,1.057-2.36,2.36-2.36s2.36,1.056,2.36,2.36
	C30.584,27.185,29.527,28.242,28.224,28.242z"/>
</svg>
