<?xml version="1.0" encoding="utf-8"?>
<!-- Generator: Adobe Illustrator 15.1.0, SVG Export Plug-In . SVG Version: 6.00 Build 0)  -->
<!DOCTYPE svg PUBLIC "-//W3C//DTD SVG 1.1//EN" "http://www.w3.org/Graphics/SVG/1.1/DTD/svg11.dtd">
<svg version="1.1" id="Слой_1" xmlns="http://www.w3.org/2000/svg" xmlns:xlink="http://www.w3.org/1999/xlink" x="0px" y="0px"
	 width="42.52px" height="42.52px" viewBox="0 0 42.52 42.52" enable-background="new 0 0 42.52 42.52" xml:space="preserve">
<path fill="none" d="M-68.394-12.112C-69.766-11-74.776-7.179-79.781-6.396c-0.284,3.26-0.569,16.059,11.388,22.926
	c11.816-6.793,11.628-19.695,11.38-22.927C-62.016-7.183-67.022-11-68.394-12.112z"/>
<g>
	<path fill="#FFFFFF" d="M38.538,9.275l-0.284-1.909L36.33,7.199c-6.114-0.532-13.232-6.549-13.3-6.607L22.342,0h-2.534L19.12,0.592
		c-0.07,0.061-7.154,6.072-13.299,6.607L3.897,7.366l-0.285,1.91C3.579,9.498,0.54,31.579,19.68,42.211l0.554,0.309h1.683
		l0.554-0.309C41.61,31.579,38.572,9.498,38.538,9.275z M21.876,41.142l-0.277,0.154h-1.048l-0.277-0.154
		C1.852,30.907,4.791,9.669,4.822,9.456l0.143-0.955l0.962-0.083c6.566-0.571,13.917-6.834,13.991-6.897l0.344-0.296h1.626
		l0.344,0.296c0.074,0.063,7.439,6.328,13.991,6.897l0.962,0.083l0.143,0.955C37.359,9.669,40.299,30.907,21.876,41.142z"/>
	<path fill="#FFFFFF" d="M36.118,9.636c-7.036-0.612-14.683-7.188-14.683-7.188h-0.72c0,0-7.647,6.577-14.683,7.188
		c0,0-3.059,20.495,14.836,30.437h0.413C39.177,30.131,36.118,9.636,36.118,9.636z"/>
</g>
</svg>
