<?xml version="1.0" encoding="utf-8"?>
<!-- Generator: Adobe Illustrator 15.1.0, SVG Export Plug-In . SVG Version: 6.00 Build 0)  -->
<!DOCTYPE svg PUBLIC "-//W3C//DTD SVG 1.1//EN" "http://www.w3.org/Graphics/SVG/1.1/DTD/svg11.dtd">
<svg version="1.1" id="Слой_1" xmlns="http://www.w3.org/2000/svg" xmlns:xlink="http://www.w3.org/1999/xlink" x="0px" y="0px"
	 width="42.52px" height="31.917px" viewBox="0 0 42.52 31.917" enable-background="new 0 0 42.52 31.917" xml:space="preserve">
<polygon fill="#F6A607" points="0,0.333 0,31.79 4.465,31.79 4.465,4.332 38.055,4.332 38.055,31.79 42.52,31.79 42.52,0.333 "/>
<path fill="#F6A607" d="M36.155,16.928h-2.46c-0.997-4.623-4.496-8.064-8.687-8.064h-5.266c-4.189,0-7.688,3.441-8.685,8.064h-2.96
	v1.933h2.709c-0.013,0.24-0.027,0.713-0.027,0.713v6.484v1.467v4.266h4.265v-4.266h14.662v4.266h4.266v-4.266v-1.467v-6.484
	c0,0-0.015-0.473-0.027-0.713h2.21V16.928z M19.743,12.063h5.266c3.148,0,5.708,3.274,5.783,7.331H13.96
	C14.035,15.337,16.594,12.063,19.743,12.063z M15.718,24.682h-1.333c-0.662,0-1.2-0.537-1.2-1.2c0-0.662,0.538-1.199,1.2-1.199
	h1.333c0.662,0,1.2,0.537,1.2,1.199C16.917,24.145,16.38,24.682,15.718,24.682z M30.203,24.682H28.87c-0.662,0-1.2-0.537-1.2-1.2
	c0-0.662,0.538-1.199,1.2-1.199h1.333c0.662,0,1.199,0.537,1.199,1.199C31.402,24.145,30.865,24.682,30.203,24.682z"/>
</svg>
